<svg width="32" height="32" viewBox="0 0 32 32" fill="none" xmlns="http://www.w3.org/2000/svg">
<g clip-path="url(#clip0_82_121)">
<path d="M25 0H7C3.13401 0 0 3.13401 0 7V25C0 28.866 3.13401 32 7 32H25C28.866 32 32 28.866 32 25V7C32 3.13401 28.866 0 25 0Z" fill="url(#paint0_linear_82_121)"/>
<path d="M7.3161 27.86C6.79343 27.86 6.42943 27.7107 6.2241 27.412C6.03743 27.1133 5.93477 26.7587 5.9161 26.348C5.89743 25.9187 5.8881 25.536 5.8881 25.2C5.8881 22.8667 6.1681 20.5707 6.7281 18.312C7.2881 16.0533 7.92277 13.8413 8.6321 11.676C8.83743 11.0413 9.11743 10.5373 9.4721 10.164C9.82677 9.772 10.3494 9.576 11.0401 9.576C11.5628 9.576 12.0108 9.744 12.3841 10.08C12.7574 10.416 13.0748 10.836 13.3361 11.34C13.6161 11.8253 13.8308 12.3013 13.9801 12.768L15.7441 18.116L15.8561 18.228C15.9121 18.172 15.9588 18.116 15.9961 18.06C16.0334 18.004 16.0614 17.9387 16.0801 17.864C16.1734 17.6027 16.3134 17.2107 16.5001 16.688C16.7054 16.1467 16.9201 15.5773 17.1441 14.98C17.3868 14.364 17.6014 13.804 17.7881 13.3C17.9748 12.7773 18.1054 12.4227 18.1801 12.236C18.3668 11.7693 18.5721 11.3213 18.7961 10.892C19.0388 10.4627 19.3468 10.1173 19.7201 9.856C20.0934 9.576 20.5601 9.436 21.1201 9.436C21.6801 9.436 22.1561 9.62267 22.5481 9.996C22.9401 10.3507 23.2574 10.7987 23.5001 11.34C23.7428 11.8627 23.9294 12.3853 24.0601 12.908C24.5454 14.7 24.9188 16.5293 25.1801 18.396C25.4414 20.244 25.5721 22.092 25.5721 23.94V25.06C25.4041 25.508 25.1988 25.788 24.9561 25.9C24.7134 26.012 24.4054 26.068 24.0321 26.068C23.6028 26.068 23.2668 25.956 23.0241 25.732C22.8001 25.4893 22.6228 25.1907 22.4921 24.836C22.3801 24.4813 22.3054 24.1173 22.2681 23.744C22.2308 23.352 22.1934 23.0067 22.1561 22.708C22.0254 21.3453 21.8948 19.9827 21.7641 18.62C21.6334 17.2387 21.4094 15.848 21.0921 14.448L20.9521 14.196H20.8681C20.7374 14.588 20.5694 15.0733 20.3641 15.652C20.1588 16.212 19.9441 16.7907 19.7201 17.388C19.5148 17.9853 19.3281 18.5173 19.1601 18.984C18.9921 19.4507 18.8708 19.7773 18.7961 19.964C18.7028 20.244 18.5534 20.5987 18.3481 21.028C18.1614 21.4573 17.9281 21.896 17.6481 22.344C17.3681 22.7733 17.0601 23.1373 16.7241 23.436C16.4068 23.716 16.0708 23.856 15.7161 23.856C15.2681 23.856 14.8574 23.6413 14.4841 23.212C14.1108 22.764 13.7654 22.1947 13.4481 21.504C13.1308 20.7947 12.8321 20.0387 12.5521 19.236C12.2908 18.4333 12.0481 17.6587 11.8241 16.912C11.6188 16.1653 11.4321 15.54 11.2641 15.036C11.2641 14.9427 11.1894 14.8213 11.0401 14.672C10.9468 14.8027 10.8814 14.9147 10.8441 15.008C10.8254 15.1013 10.8161 15.1947 10.8161 15.288C10.6481 16.0347 10.4708 16.7813 10.2841 17.528C10.1161 18.256 9.9761 19.0027 9.8641 19.768C9.8081 20.104 9.7521 20.4307 9.6961 20.748C9.65877 21.0467 9.62143 21.2893 9.5841 21.476C9.5841 21.644 9.5561 21.9053 9.5001 22.26C9.46277 22.6147 9.4161 22.9973 9.3601 23.408C9.32277 23.8 9.2761 24.164 9.2201 24.5C9.18277 24.836 9.1641 25.0693 9.1641 25.2C9.12677 25.5733 9.04277 25.9747 8.9121 26.404C8.78143 26.8147 8.58543 27.16 8.3241 27.44C8.08143 27.72 7.74543 27.86 7.3161 27.86Z" fill="#4CAF50"/>
<path d="M16.1292 5.26762C16.6092 5.26762 17.0492 5.44095 17.4492 5.78762C17.8225 6.13428 18.0092 6.64095 18.0092 7.30762C18.0092 8.18762 17.7692 8.85428 17.2892 9.30762C16.7825 9.76095 16.2359 9.98762 15.6492 9.98762C15.1425 9.98762 14.6892 9.80095 14.2892 9.42762C13.8892 9.05428 13.7025 8.49428 13.7292 7.74762C13.7825 6.92095 14.0625 6.29428 14.5692 5.86762C15.0492 5.46762 15.5692 5.26762 16.1292 5.26762Z" fill="#FFD54F"/>
</g>
<defs>
<linearGradient id="paint0_linear_82_121" x1="0" y1="0" x2="0" y2="32" gradientUnits="userSpaceOnUse">
<stop stop-color="white"/>
<stop offset="1" stop-color="#E5FFE9"/>
</linearGradient>
<clipPath id="clip0_82_121">
<rect width="32" height="32" fill="white"/>
</clipPath>
</defs>
</svg>
