<svg width="377" height="130" viewBox="0 0 377 130" fill="none" xmlns="http://www.w3.org/2000/svg">
<path d="M10.6572 42.76C9.76119 42.76 9.13719 42.504 8.78519 41.992C8.46519 41.48 8.28919 40.872 8.25719 40.168C8.22519 39.432 8.20919 38.776 8.20919 38.2C8.20919 34.2 8.68919 30.264 9.64919 26.392C10.6092 22.52 11.6972 18.728 12.9132 15.016C13.2652 13.928 13.7452 13.064 14.3532 12.424C14.9612 11.752 15.8572 11.416 17.0412 11.416C17.9372 11.416 18.7052 11.704 19.3452 12.28C19.9852 12.856 20.5292 13.576 20.9772 14.44C21.4572 15.272 21.8252 16.088 22.0812 16.888L25.1052 26.056L25.2972 26.248C25.3932 26.152 25.4732 26.056 25.5372 25.96C25.6012 25.864 25.6492 25.752 25.6812 25.624C25.8412 25.176 26.0812 24.504 26.4012 23.608C26.7532 22.68 27.1212 21.704 27.5052 20.68C27.9212 19.624 28.2892 18.664 28.6092 17.8C28.9292 16.904 29.1532 16.296 29.2812 15.976C29.6012 15.176 29.9532 14.408 30.3372 13.672C30.7532 12.936 31.2812 12.344 31.9212 11.896C32.5612 11.416 33.3612 11.176 34.3212 11.176C35.2812 11.176 36.0972 11.496 36.7692 12.136C37.4412 12.744 37.9852 13.512 38.4012 14.44C38.8172 15.336 39.1372 16.232 39.3612 17.128C40.1932 20.2 40.8332 23.336 41.2812 26.536C41.7292 29.704 41.9532 32.872 41.9532 36.04V37.96C41.6652 38.728 41.3132 39.208 40.8972 39.4C40.4812 39.592 39.9532 39.688 39.3132 39.688C38.5772 39.688 38.0012 39.496 37.5852 39.112C37.2012 38.696 36.8972 38.184 36.6732 37.576C36.4812 36.968 36.3532 36.344 36.2892 35.704C36.2252 35.032 36.1612 34.44 36.0972 33.928C35.8732 31.592 35.6492 29.256 35.4252 26.92C35.2012 24.552 34.8172 22.168 34.2732 19.768L34.0332 19.336H33.8892C33.6652 20.008 33.3772 20.84 33.0252 21.832C32.6732 22.792 32.3052 23.784 31.9212 24.808C31.5692 25.832 31.2492 26.744 30.9612 27.544C30.6732 28.344 30.4652 28.904 30.3372 29.224C30.1772 29.704 29.9212 30.312 29.5692 31.048C29.2492 31.784 28.8492 32.536 28.3692 33.304C27.8892 34.04 27.3612 34.664 26.7852 35.176C26.2412 35.656 25.6652 35.896 25.0572 35.896C24.2892 35.896 23.5852 35.528 22.9452 34.792C22.3052 34.024 21.7132 33.048 21.1692 31.864C20.6252 30.648 20.1132 29.352 19.6332 27.976C19.1852 26.6 18.7692 25.272 18.3852 23.992C18.0332 22.712 17.7132 21.64 17.4252 20.776C17.4252 20.616 17.2972 20.408 17.0412 20.152C16.8812 20.376 16.7692 20.568 16.7052 20.728C16.6732 20.888 16.6572 21.048 16.6572 21.208C16.3692 22.488 16.0652 23.768 15.7452 25.048C15.4572 26.296 15.2172 27.576 15.0252 28.888C14.9292 29.464 14.8332 30.024 14.7372 30.568C14.6732 31.08 14.6092 31.496 14.5452 31.816C14.5452 32.104 14.4972 32.552 14.4012 33.16C14.3372 33.768 14.2572 34.424 14.1612 35.128C14.0972 35.8 14.0172 36.424 13.9212 37C13.8572 37.576 13.8252 37.976 13.8252 38.2C13.7612 38.84 13.6172 39.528 13.3932 40.264C13.1692 40.968 12.8332 41.56 12.3852 42.04C11.9692 42.52 11.3932 42.76 10.6572 42.76ZM55.9943 43.48C54.5223 43.48 53.1463 43.144 51.8663 42.472C50.5863 41.8 49.5143 40.904 48.6503 39.784C47.7863 38.632 47.2263 37.336 46.9703 35.896V33.448C46.9703 31.656 47.2903 29.848 47.9303 28.024C48.5703 26.2 49.4823 24.52 50.6663 22.984C51.8503 21.416 53.2583 20.168 54.8903 19.24C56.5223 18.28 58.3143 17.8 60.2663 17.8C61.0663 17.8 61.7543 17.944 62.3303 18.232C62.9383 18.52 63.4823 18.824 63.9623 19.144C64.4743 19.432 64.9703 19.608 65.4503 19.672C65.7063 18.36 66.0583 17.496 66.5063 17.08C66.9543 16.632 67.5623 16.408 68.3303 16.408C69.2583 16.408 69.8823 16.712 70.2023 17.32C70.5543 17.896 70.7303 18.632 70.7303 19.528C70.7303 21.288 70.6823 23.016 70.5863 24.712C70.5223 26.408 70.4903 28.152 70.4903 29.944C70.4903 31.352 70.5703 32.808 70.7303 34.312C70.8903 35.816 70.9703 37.272 70.9703 38.68V39.688C70.9703 40.392 70.8263 41.048 70.5383 41.656C70.2823 42.232 69.6903 42.52 68.7623 42.52C67.8983 42.52 67.2743 42.264 66.8903 41.752C66.5383 41.208 66.2983 40.568 66.1703 39.832C66.0743 39.064 65.9783 38.376 65.8823 37.768L65.6903 37.576C64.6023 38.664 63.6263 39.656 62.7623 40.552C61.9303 41.448 61.0023 42.168 59.9783 42.712C58.9543 43.224 57.6263 43.48 55.9943 43.48ZM55.5143 38.632C56.6343 38.632 57.6903 38.296 58.6823 37.624C59.7063 36.92 60.6183 36.024 61.4183 34.936C62.2183 33.816 62.8423 32.648 63.2903 31.432C63.7383 30.216 63.9623 29.08 63.9623 28.024C63.9623 27.224 63.8503 26.424 63.6263 25.624C63.4023 24.792 63.0183 24.088 62.4743 23.512C61.9623 22.936 61.2263 22.648 60.2663 22.648C59.2103 22.648 58.1703 23.016 57.1463 23.752C56.1543 24.488 55.2583 25.432 54.4583 26.584C53.6583 27.704 53.0183 28.888 52.5383 30.136C52.0583 31.352 51.8183 32.456 51.8183 33.448C51.8183 34.248 51.9303 35.048 52.1543 35.848C52.4103 36.648 52.8103 37.32 53.3543 37.864C53.8983 38.376 54.6183 38.632 55.5143 38.632ZM80.0123 42.04C79.2123 42.04 78.6203 41.816 78.2363 41.368C77.8523 40.888 77.6123 40.312 77.5163 39.64C77.4203 38.936 77.3723 38.264 77.3723 37.624C77.3723 36.152 77.4043 34.68 77.4683 33.208C77.5643 31.736 77.6123 30.328 77.6123 28.984C77.6123 27.544 77.4523 26.168 77.1323 24.856C76.8123 23.544 76.6523 22.232 76.6523 20.92V19.048C76.9403 18.376 77.2443 17.928 77.5643 17.704C77.8843 17.448 78.3163 17.32 78.8603 17.32C79.8523 17.32 80.5723 17.64 81.0203 18.28C81.4683 18.888 81.7563 19.624 81.8843 20.488C82.0443 21.32 82.1563 22.088 82.2203 22.792C82.2523 23.144 82.3163 23.832 82.4123 24.856C82.5403 25.88 82.6203 26.84 82.6523 27.736H82.8443L83.0363 27.544C83.6443 26.648 84.2843 25.688 84.9563 24.664C85.6283 23.64 86.3643 22.68 87.1643 21.784C87.9963 20.888 88.9083 20.168 89.9003 19.624C90.8923 19.048 92.0123 18.76 93.2603 18.76C94.8603 18.76 96.2203 19.224 97.3403 20.152C98.4603 21.048 99.4043 22.232 100.172 23.704C100.94 25.144 101.564 26.712 102.044 28.408C102.524 30.104 102.908 31.752 103.196 33.352C103.484 34.952 103.74 36.328 103.964 37.48V38.68C103.964 39.384 103.772 40.088 103.388 40.792C103.004 41.464 102.396 41.8 101.564 41.8C100.7 41.8 100.06 41.576 99.6443 41.128C99.2603 40.68 99.0043 40.104 98.8763 39.4C98.8123 39.112 98.7323 38.648 98.6363 38.008C98.5403 37.336 98.4283 36.616 98.3003 35.848C98.1723 35.048 98.0603 34.312 97.9643 33.64C97.8683 32.936 97.7883 32.424 97.7243 32.104C97.6283 31.464 97.4043 30.712 97.0523 29.848C96.7323 28.952 96.4283 28.184 96.1403 27.544C95.8523 26.872 95.4843 26.168 95.0363 25.432C94.5883 24.696 93.9323 24.328 93.0683 24.328C92.3003 24.328 91.5963 24.6 90.9563 25.144C90.3483 25.688 89.8043 26.328 89.3243 27.064C88.8763 27.8 88.4763 28.456 88.1243 29.032C87.3243 30.312 86.6043 31.592 85.9643 32.872C85.3243 34.152 84.6363 35.544 83.9003 37.048C83.6123 37.656 83.3403 38.36 83.0843 39.16C82.8283 39.928 82.4763 40.6 82.0283 41.176C81.5803 41.752 80.9083 42.04 80.0123 42.04ZM114.804 43.72C113.204 43.304 111.86 42.6 110.772 41.608C109.716 40.584 108.916 39.384 108.372 38.008C107.86 36.632 107.604 35.192 107.604 33.688C107.604 31.608 108.052 29.608 108.948 27.688C109.844 25.736 111.044 24.008 112.548 22.504C114.084 20.968 115.812 19.752 117.732 18.856C119.684 17.96 121.7 17.512 123.78 17.512C124.516 17.512 125.22 17.624 125.892 17.848C126.596 18.04 127.3 18.152 128.004 18.184L128.196 17.56C128.228 16.984 128.276 16.264 128.34 15.4C128.404 14.536 128.484 13.64 128.58 12.712C128.708 11.752 128.836 10.84 128.964 9.976C129.124 9.112 129.3 8.424 129.492 7.912C129.748 7.176 130.116 6.552 130.596 6.04C131.076 5.496 131.716 5.224 132.516 5.224C133.316 5.224 133.828 5.48 134.052 5.992C134.308 6.504 134.436 7.144 134.436 7.912V9.112C133.988 12.792 133.636 16.424 133.38 20.008C133.156 23.56 133.044 27.112 133.044 30.664C133.044 32.296 133.124 33.896 133.284 35.464C133.444 37 133.524 38.616 133.524 40.312C133.524 40.92 133.428 41.528 133.236 42.136C133.076 42.712 132.596 43 131.796 43C130.964 43 130.324 42.776 129.876 42.328C129.428 41.848 129.108 41.256 128.916 40.552C128.724 39.848 128.564 39.176 128.436 38.536C128.372 38.056 128.308 37.816 128.244 37.816H128.052C126.388 39.64 124.676 41.08 122.916 42.136C121.188 43.192 119.188 43.72 116.916 43.72H114.804ZM116.628 38.824C117.876 38.824 119.076 38.488 120.228 37.816C121.38 37.144 122.404 36.264 123.3 35.176C124.228 34.088 124.948 32.92 125.46 31.672C126.004 30.392 126.276 29.176 126.276 28.024C126.276 27.736 126.212 27.304 126.084 26.728C125.956 26.152 125.796 25.544 125.604 24.904C125.412 24.264 125.204 23.736 124.98 23.32C124.788 22.872 124.612 22.648 124.452 22.648C122.916 22.648 121.46 22.968 120.084 23.608C118.708 24.216 117.476 25.048 116.388 26.104C115.332 27.16 114.484 28.36 113.844 29.704C113.236 31.048 112.932 32.456 112.932 33.928V35.848C113.188 36.776 113.62 37.512 114.228 38.056C114.836 38.568 115.636 38.824 116.628 38.824ZM147.128 42.52C145.752 42.52 144.6 42.232 143.672 41.656C142.776 41.048 142.072 40.264 141.56 39.304C141.048 38.344 140.68 37.304 140.456 36.184C140.264 35.032 140.168 33.896 140.168 32.776V30.424C140.168 30.328 140.216 29.96 140.312 29.32C140.408 28.648 140.504 27.928 140.6 27.16C140.728 26.392 140.824 25.816 140.888 25.432C140.984 24.984 141.096 24.424 141.224 23.752C141.384 23.048 141.576 22.36 141.8 21.688C142.056 20.984 142.376 20.408 142.76 19.96C143.176 19.48 143.672 19.24 144.248 19.24C145.112 19.24 145.768 19.496 146.216 20.008C146.696 20.52 146.936 21.144 146.936 21.88C146.936 22.488 146.84 23.08 146.648 23.656C146.488 24.232 146.344 24.824 146.216 25.432C145.992 26.648 145.768 27.864 145.544 29.08C145.352 30.296 145.256 31.528 145.256 32.776C145.256 33.224 145.288 33.8 145.352 34.504C145.416 35.208 145.592 35.832 145.88 36.376C146.168 36.92 146.664 37.192 147.368 37.192C147.912 37.192 148.552 36.84 149.288 36.136C150.056 35.432 150.856 34.52 151.688 33.4C152.552 32.28 153.416 31.064 154.28 29.752C155.144 28.408 155.944 27.112 156.68 25.864C157.448 24.584 158.104 23.464 158.648 22.504C159.192 21.512 159.576 20.824 159.8 20.44C160.056 20.088 160.328 19.8 160.616 19.576C160.904 19.352 161.272 19.24 161.72 19.24C163.224 19.24 164.12 19.944 164.408 21.352V23.08C164.408 24.488 164.36 25.896 164.264 27.304C164.2 28.68 164.168 30.024 164.168 31.336V34.168C164.264 34.68 164.472 35.144 164.792 35.56C165.112 35.976 165.4 36.392 165.656 36.808C165.944 37.192 166.088 37.656 166.088 38.2C166.088 38.936 165.864 39.56 165.416 40.072C164.968 40.584 164.376 40.84 163.64 40.84C162.68 40.84 161.912 40.52 161.336 39.88C160.76 39.208 160.312 38.424 159.992 37.528C159.8 36.952 159.576 36.216 159.32 35.32C159.096 34.392 158.872 33.48 158.648 32.584C158.168 33.416 157.624 34.248 157.016 35.08C156.44 35.88 155.832 36.664 155.192 37.432C154.168 38.712 152.968 39.88 151.592 40.936C150.216 41.992 148.728 42.52 147.128 42.52ZM175.127 42.52C174.423 42.52 173.799 42.296 173.255 41.848C172.743 41.368 172.487 40.776 172.487 40.072C172.487 39.016 172.519 37.992 172.583 37C172.679 36.008 172.727 35 172.727 33.976V30.808C172.727 29.496 172.679 28.2 172.583 26.92C172.519 25.608 172.311 24.312 171.959 23.032C171.831 22.648 171.719 22.248 171.623 21.832C171.559 21.384 171.527 20.936 171.527 20.488C171.527 19.848 171.687 19.208 172.007 18.568C172.327 17.896 172.903 17.56 173.735 17.56C174.407 17.56 174.951 17.816 175.367 18.328C175.783 18.808 176.103 19.416 176.327 20.152C176.551 20.856 176.711 21.576 176.807 22.312C176.935 23.016 177.047 23.608 177.143 24.088C177.207 24.504 177.303 24.952 177.431 25.432C177.559 25.912 177.623 26.376 177.623 26.824C177.623 26.856 177.655 26.952 177.719 27.112C177.783 27.272 177.847 27.432 177.911 27.592C178.327 26.856 178.791 26.056 179.303 25.192C179.847 24.296 180.439 23.464 181.079 22.696C181.751 21.896 182.487 21.24 183.287 20.728C184.119 20.216 185.031 19.96 186.023 19.96C187.047 19.96 187.815 20.216 188.327 20.728C188.871 21.208 189.303 21.816 189.623 22.552C189.943 23.256 190.263 23.96 190.583 24.664C190.711 24.984 190.791 25.32 190.823 25.672C190.855 25.992 190.935 26.328 191.063 26.68L191.591 25.912C192.231 25.016 192.951 24.04 193.751 22.984C194.583 21.896 195.511 20.968 196.535 20.2C197.559 19.4 198.711 19 199.991 19C201.015 19 201.879 19.304 202.583 19.912C203.319 20.488 203.911 21.24 204.359 22.168C204.839 23.096 205.191 24.056 205.415 25.048C205.639 26.04 205.751 26.952 205.751 27.784V37.96C205.751 38.44 205.671 38.968 205.511 39.544C205.383 40.088 205.143 40.568 204.791 40.984C204.439 41.368 203.943 41.56 203.303 41.56C202.567 41.56 201.975 41.304 201.527 40.792C201.079 40.28 200.855 39.736 200.855 39.16V30.424C200.855 30.328 200.839 30.12 200.807 29.8C200.775 29.48 200.727 29.144 200.663 28.792C200.631 28.44 200.615 28.184 200.615 28.024C200.615 27.768 200.583 27.368 200.519 26.824C200.455 26.28 200.327 25.768 200.135 25.288C199.943 24.808 199.655 24.568 199.271 24.568H198.839C197.879 25.4 197.159 26.2 196.679 26.968C196.199 27.704 195.831 28.44 195.575 29.176C195.319 29.912 195.079 30.696 194.855 31.528C194.631 32.328 194.311 33.208 193.895 34.168C193.671 35 193.303 35.784 192.791 36.52C192.311 37.224 191.639 37.576 190.775 37.576C189.943 37.576 189.303 37.352 188.855 36.904C188.439 36.424 188.119 35.848 187.895 35.176C187.703 34.504 187.543 33.864 187.415 33.256C187.351 32.968 187.239 32.488 187.079 31.816C186.919 31.144 186.743 30.408 186.551 29.608C186.391 28.808 186.231 28.056 186.071 27.352C185.911 26.616 185.799 26.072 185.735 25.72C185.543 25.432 185.351 25.288 185.159 25.288C184.871 25.288 184.567 25.496 184.247 25.912C183.927 26.328 183.687 26.728 183.527 27.112C183.335 27.4 183.063 27.912 182.711 28.648C182.359 29.352 182.023 30.04 181.703 30.712C181.415 31.384 181.223 31.832 181.127 32.056C181.063 32.248 180.871 32.712 180.551 33.448C180.263 34.184 179.927 35.032 179.543 35.992C179.159 36.92 178.807 37.768 178.487 38.536C178.167 39.304 177.959 39.816 177.863 40.072C177.543 40.68 177.207 41.24 176.855 41.752C176.535 42.264 175.959 42.52 175.127 42.52Z" fill="#4CAF50"/>
<path d="M235.015 43.24C234.215 43.24 233.591 43.032 233.143 42.616C232.727 42.2 232.391 41.592 232.135 40.792V38.2C232.135 35.448 232.279 32.696 232.567 29.944C232.887 27.192 233.047 24.44 233.047 21.688C233.047 21.048 233.031 20.36 232.999 19.624C232.999 18.888 232.919 18.072 232.759 17.176C231.991 16.984 231.335 16.696 230.791 16.312C230.247 15.928 229.975 15.336 229.975 14.536C229.975 13.672 230.295 12.984 230.935 12.472C231.575 11.928 232.391 11.528 233.383 11.272C234.375 10.984 235.415 10.792 236.503 10.696C237.623 10.568 238.663 10.504 239.623 10.504C240.583 10.472 241.335 10.456 241.879 10.456C243.991 10.456 246.039 10.696 248.023 11.176C250.039 11.624 251.799 12.456 253.303 13.672C254.839 14.888 255.927 16.664 256.567 19V20.968C256.567 21.224 256.567 21.496 256.567 21.784C256.599 22.072 256.615 22.344 256.615 22.6C256.615 22.824 256.599 23.064 256.567 23.32C256.535 23.576 256.471 23.816 256.375 24.04C255.767 25.448 254.903 26.568 253.783 27.4C252.695 28.2 251.511 28.904 250.231 29.512C250.007 29.576 249.671 29.688 249.223 29.848C248.775 29.976 248.551 30.152 248.551 30.376V30.616C249.319 31.192 250.039 31.832 250.711 32.536C251.415 33.24 252.103 33.928 252.775 34.6C253.511 35.304 254.167 36.12 254.743 37.048C255.351 37.944 255.655 38.808 255.655 39.64C255.655 40.472 255.415 41.128 254.935 41.608C254.455 42.056 253.799 42.28 252.967 42.28C252.583 42.28 252.183 42.2 251.767 42.04C251.351 41.592 250.967 41.192 250.615 40.84C250.295 40.456 249.959 40.024 249.607 39.544C249.255 39 248.791 38.408 248.215 37.768C247.671 37.096 247.095 36.472 246.487 35.896C245.911 35.288 245.383 34.808 244.903 34.456C244.583 34.136 244.087 33.768 243.415 33.352C242.775 32.904 242.103 32.44 241.399 31.96C240.727 31.48 240.151 30.968 239.671 30.424C239.191 29.88 238.951 29.32 238.951 28.744C238.951 28.136 239.255 27.64 239.863 27.256C240.471 26.872 241.239 26.552 242.167 26.296C243.127 26.008 244.135 25.72 245.191 25.432C246.279 25.144 247.287 24.808 248.215 24.424C249.175 24.04 249.959 23.56 250.567 22.984C251.175 22.376 251.479 21.624 251.479 20.728C251.479 19.544 251.095 18.632 250.327 17.992C249.591 17.352 248.663 16.904 247.543 16.648C246.455 16.36 245.351 16.2 244.231 16.168C243.111 16.104 242.167 16.072 241.399 16.072H239.047L238.855 16.264L237.655 37.72C237.623 38.168 237.591 38.712 237.559 39.352C237.527 39.96 237.431 40.568 237.271 41.176C237.143 41.752 236.903 42.248 236.551 42.664C236.199 43.048 235.687 43.24 235.015 43.24ZM267.131 13.432C266.171 13.432 265.339 13.128 264.635 12.52C263.931 11.912 263.579 11.016 263.579 9.832C263.579 8.648 263.995 7.816 264.827 7.336C265.659 6.856 266.507 6.616 267.371 6.616C268.363 6.616 269.195 6.92 269.867 7.528C270.571 8.136 270.923 9.048 270.923 10.264C270.923 11.416 270.507 12.232 269.675 12.712C268.875 13.192 268.027 13.432 267.131 13.432ZM265.211 42.28C264.603 42.28 264.139 41.96 263.819 41.32C263.499 40.68 263.259 40.04 263.099 39.4V33.208C263.099 33.048 263.131 32.632 263.195 31.96C263.291 31.256 263.387 30.44 263.483 29.512C263.611 28.552 263.723 27.64 263.819 26.776C263.947 25.88 264.043 25.176 264.107 24.664C264.203 24.024 264.315 23.32 264.443 22.552C264.603 21.784 264.875 21.112 265.259 20.536C265.643 19.96 266.187 19.672 266.891 19.672C267.659 19.672 268.203 19.864 268.523 20.248C268.875 20.6 269.083 21.048 269.147 21.592C269.211 22.136 269.243 22.696 269.243 23.272V24.952C269.243 25.016 269.227 25.16 269.195 25.384C269.163 25.576 269.115 25.8 269.051 26.056C268.827 27.176 268.651 28.008 268.523 28.552C268.427 29.064 268.347 29.512 268.283 29.896C268.251 30.248 268.235 30.744 268.235 31.384C268.235 31.768 268.235 32.248 268.235 32.824C268.267 33.4 268.283 34.152 268.283 35.08C268.283 35.496 268.299 35.912 268.331 36.328C268.363 36.712 268.379 37.128 268.379 37.576C268.379 38.056 268.331 38.568 268.235 39.112C268.107 39.912 267.819 40.648 267.371 41.32C266.923 41.96 266.203 42.28 265.211 42.28ZM278.205 42.52C277.501 42.52 276.877 42.296 276.333 41.848C275.821 41.368 275.565 40.776 275.565 40.072C275.565 39.016 275.597 37.992 275.661 37C275.757 36.008 275.805 35 275.805 33.976V30.808C275.805 29.496 275.757 28.2 275.661 26.92C275.597 25.608 275.389 24.312 275.037 23.032C274.909 22.648 274.797 22.248 274.701 21.832C274.637 21.384 274.605 20.936 274.605 20.488C274.605 19.848 274.765 19.208 275.085 18.568C275.405 17.896 275.981 17.56 276.813 17.56C277.485 17.56 278.029 17.816 278.445 18.328C278.861 18.808 279.181 19.416 279.405 20.152C279.629 20.856 279.789 21.576 279.885 22.312C280.013 23.016 280.125 23.608 280.221 24.088C280.285 24.504 280.381 24.952 280.509 25.432C280.637 25.912 280.701 26.376 280.701 26.824C280.701 26.856 280.733 26.952 280.797 27.112C280.861 27.272 280.925 27.432 280.989 27.592C281.405 26.856 281.869 26.056 282.381 25.192C282.925 24.296 283.517 23.464 284.157 22.696C284.829 21.896 285.565 21.24 286.365 20.728C287.197 20.216 288.109 19.96 289.101 19.96C290.125 19.96 290.893 20.216 291.405 20.728C291.949 21.208 292.381 21.816 292.701 22.552C293.021 23.256 293.341 23.96 293.661 24.664C293.789 24.984 293.869 25.32 293.901 25.672C293.933 25.992 294.013 26.328 294.141 26.68L294.669 25.912C295.309 25.016 296.029 24.04 296.829 22.984C297.661 21.896 298.589 20.968 299.613 20.2C300.637 19.4 301.789 19 303.069 19C304.093 19 304.957 19.304 305.661 19.912C306.397 20.488 306.989 21.24 307.437 22.168C307.917 23.096 308.269 24.056 308.493 25.048C308.717 26.04 308.829 26.952 308.829 27.784V37.96C308.829 38.44 308.749 38.968 308.589 39.544C308.461 40.088 308.221 40.568 307.869 40.984C307.517 41.368 307.021 41.56 306.381 41.56C305.645 41.56 305.053 41.304 304.605 40.792C304.157 40.28 303.933 39.736 303.933 39.16V30.424C303.933 30.328 303.917 30.12 303.885 29.8C303.853 29.48 303.805 29.144 303.741 28.792C303.709 28.44 303.693 28.184 303.693 28.024C303.693 27.768 303.661 27.368 303.597 26.824C303.533 26.28 303.405 25.768 303.213 25.288C303.021 24.808 302.733 24.568 302.349 24.568H301.917C300.957 25.4 300.237 26.2 299.757 26.968C299.277 27.704 298.909 28.44 298.653 29.176C298.397 29.912 298.157 30.696 297.933 31.528C297.709 32.328 297.389 33.208 296.973 34.168C296.749 35 296.381 35.784 295.869 36.52C295.389 37.224 294.717 37.576 293.853 37.576C293.021 37.576 292.381 37.352 291.933 36.904C291.517 36.424 291.197 35.848 290.973 35.176C290.781 34.504 290.621 33.864 290.493 33.256C290.429 32.968 290.317 32.488 290.157 31.816C289.997 31.144 289.821 30.408 289.629 29.608C289.469 28.808 289.309 28.056 289.149 27.352C288.989 26.616 288.877 26.072 288.813 25.72C288.621 25.432 288.429 25.288 288.237 25.288C287.949 25.288 287.645 25.496 287.325 25.912C287.005 26.328 286.765 26.728 286.605 27.112C286.413 27.4 286.141 27.912 285.789 28.648C285.437 29.352 285.101 30.04 284.781 30.712C284.493 31.384 284.301 31.832 284.205 32.056C284.141 32.248 283.949 32.712 283.629 33.448C283.341 34.184 283.005 35.032 282.621 35.992C282.237 36.92 281.885 37.768 281.565 38.536C281.245 39.304 281.037 39.816 280.941 40.072C280.621 40.68 280.285 41.24 279.933 41.752C279.613 42.264 279.037 42.52 278.205 42.52ZM324.767 42.52C324.159 42.52 323.679 42.52 323.327 42.52C323.007 42.488 322.607 42.408 322.127 42.28C321.903 42.152 321.599 42.008 321.215 41.848C320.831 41.656 320.463 41.48 320.111 41.32C319.759 41.16 319.503 41.08 319.343 41.08C319.119 41.08 318.767 41.288 318.287 41.704C317.839 42.088 317.327 42.28 316.751 42.28C315.919 42.28 315.343 41.992 315.023 41.416C314.703 40.808 314.543 40.12 314.543 39.352C314.543 38.648 314.575 38.024 314.639 37.48C314.703 36.904 314.831 36.264 315.023 35.56C315.503 32.04 315.871 28.424 316.127 24.712C316.415 20.968 316.559 17.256 316.559 13.576C316.559 12.648 316.559 11.736 316.559 10.84C316.559 9.944 316.527 9.048 316.463 8.152C316.431 7.512 316.623 7.064 317.039 6.808C317.455 6.552 317.919 6.424 318.431 6.424H318.863C319.567 6.424 320.159 6.6 320.639 6.952C321.119 7.304 321.423 7.928 321.551 8.824V11.416C321.551 13.272 321.519 15.128 321.455 16.984C321.391 18.84 321.343 20.824 321.311 22.936H321.455C322.767 21.432 324.223 20.152 325.823 19.096C327.423 18.04 329.199 17.512 331.151 17.512C332.655 17.512 334.111 17.864 335.519 18.568C336.959 19.24 338.143 20.2 339.071 21.448C339.999 22.664 340.463 24.072 340.463 25.672C340.463 27.816 340.063 29.896 339.263 31.912C338.463 33.896 337.343 35.688 335.903 37.288C334.463 38.888 332.799 40.168 330.911 41.128C329.023 42.056 326.975 42.52 324.767 42.52ZM324.767 37.384C326.015 37.384 327.279 37.08 328.559 36.472C329.839 35.864 331.007 35.048 332.063 34.024C333.119 33 333.967 31.864 334.607 30.616C335.279 29.368 335.615 28.104 335.615 26.824C335.615 25.8 335.247 24.856 334.511 23.992C333.807 23.096 332.911 22.648 331.823 22.648C330.671 22.648 329.615 22.92 328.655 23.464C327.727 24.008 326.863 24.712 326.063 25.576C325.295 26.408 324.591 27.32 323.951 28.312C323.311 29.304 322.719 30.232 322.175 31.096C321.951 31.608 321.663 32.184 321.311 32.824C320.991 33.464 320.831 34.072 320.831 34.648C320.831 35.224 321.055 35.72 321.503 36.136C321.951 36.552 322.479 36.872 323.087 37.096C323.727 37.288 324.287 37.384 324.767 37.384ZM353.557 43.48C352.085 43.48 350.709 43.144 349.429 42.472C348.149 41.8 347.077 40.904 346.213 39.784C345.349 38.632 344.789 37.336 344.533 35.896V33.448C344.533 31.656 344.853 29.848 345.493 28.024C346.133 26.2 347.045 24.52 348.229 22.984C349.413 21.416 350.821 20.168 352.453 19.24C354.085 18.28 355.877 17.8 357.829 17.8C358.629 17.8 359.317 17.944 359.893 18.232C360.501 18.52 361.045 18.824 361.525 19.144C362.037 19.432 362.533 19.608 363.013 19.672C363.269 18.36 363.621 17.496 364.069 17.08C364.517 16.632 365.125 16.408 365.893 16.408C366.821 16.408 367.445 16.712 367.765 17.32C368.117 17.896 368.293 18.632 368.293 19.528C368.293 21.288 368.245 23.016 368.149 24.712C368.085 26.408 368.053 28.152 368.053 29.944C368.053 31.352 368.133 32.808 368.293 34.312C368.453 35.816 368.533 37.272 368.533 38.68V39.688C368.533 40.392 368.389 41.048 368.101 41.656C367.845 42.232 367.253 42.52 366.325 42.52C365.461 42.52 364.837 42.264 364.453 41.752C364.101 41.208 363.861 40.568 363.733 39.832C363.637 39.064 363.541 38.376 363.445 37.768L363.253 37.576C362.165 38.664 361.189 39.656 360.325 40.552C359.493 41.448 358.565 42.168 357.541 42.712C356.517 43.224 355.189 43.48 353.557 43.48ZM353.077 38.632C354.197 38.632 355.253 38.296 356.245 37.624C357.269 36.92 358.181 36.024 358.981 34.936C359.781 33.816 360.405 32.648 360.853 31.432C361.301 30.216 361.525 29.08 361.525 28.024C361.525 27.224 361.413 26.424 361.189 25.624C360.965 24.792 360.581 24.088 360.037 23.512C359.525 22.936 358.789 22.648 357.829 22.648C356.773 22.648 355.733 23.016 354.709 23.752C353.717 24.488 352.821 25.432 352.021 26.584C351.221 27.704 350.581 28.888 350.101 30.136C349.621 31.352 349.381 32.456 349.381 33.448C349.381 34.248 349.493 35.048 349.717 35.848C349.973 36.648 350.373 37.32 350.917 37.864C351.461 38.376 352.181 38.632 353.077 38.632Z" fill="#212121"/>
<path d="M268.847 3.53135C270.107 3.53135 271.262 3.98635 272.312 4.89635C273.292 5.80635 273.782 7.13635 273.782 8.88635C273.782 11.1964 273.152 12.9464 271.892 14.1364C270.562 15.3264 269.127 15.9214 267.587 15.9214C266.257 15.9214 265.067 15.4314 264.017 14.4514C262.967 13.4714 262.477 12.0014 262.547 10.0414C262.687 7.87135 263.422 6.22635 264.752 5.10635C266.012 4.05635 267.377 3.53135 268.847 3.53135Z" fill="#FFD54F"/>
<path d="M10.6572 42.76C9.76119 42.76 9.13719 42.504 8.78519 41.992C8.46519 41.48 8.28919 40.872 8.25719 40.168C8.22519 39.432 8.20919 38.776 8.20919 38.2C8.20919 34.2 8.68919 30.264 9.64919 26.392C10.6092 22.52 11.6972 18.728 12.9132 15.016C13.2652 13.928 13.7452 13.064 14.3532 12.424C14.9612 11.752 15.8572 11.416 17.0412 11.416C17.9372 11.416 18.7052 11.704 19.3452 12.28C19.9852 12.856 20.5292 13.576 20.9772 14.44C21.4572 15.272 21.8252 16.088 22.0812 16.888L25.1052 26.056L25.2972 26.248C25.3932 26.152 25.4732 26.056 25.5372 25.96C25.6012 25.864 25.6492 25.752 25.6812 25.624C25.8412 25.176 26.0812 24.504 26.4012 23.608C26.7532 22.68 27.1212 21.704 27.5052 20.68C27.9212 19.624 28.2892 18.664 28.6092 17.8C28.9292 16.904 29.1532 16.296 29.2812 15.976C29.6012 15.176 29.9532 14.408 30.3372 13.672C30.7532 12.936 31.2812 12.344 31.9212 11.896C32.5612 11.416 33.3612 11.176 34.3212 11.176C35.2812 11.176 36.0972 11.496 36.7692 12.136C37.4412 12.744 37.9852 13.512 38.4012 14.44C38.8172 15.336 39.1372 16.232 39.3612 17.128C40.1932 20.2 40.8332 23.336 41.2812 26.536C41.7292 29.704 41.9532 32.872 41.9532 36.04V37.96C41.6652 38.728 41.3132 39.208 40.8972 39.4C40.4812 39.592 39.9532 39.688 39.3132 39.688C38.5772 39.688 38.0012 39.496 37.5852 39.112C37.2012 38.696 36.8972 38.184 36.6732 37.576C36.4812 36.968 36.3532 36.344 36.2892 35.704C36.2252 35.032 36.1612 34.44 36.0972 33.928C35.8732 31.592 35.6492 29.256 35.4252 26.92C35.2012 24.552 34.8172 22.168 34.2732 19.768L34.0332 19.336H33.8892C33.6652 20.008 33.3772 20.84 33.0252 21.832C32.6732 22.792 32.3052 23.784 31.9212 24.808C31.5692 25.832 31.2492 26.744 30.9612 27.544C30.6732 28.344 30.4652 28.904 30.3372 29.224C30.1772 29.704 29.9212 30.312 29.5692 31.048C29.2492 31.784 28.8492 32.536 28.3692 33.304C27.8892 34.04 27.3612 34.664 26.7852 35.176C26.2412 35.656 25.6652 35.896 25.0572 35.896C24.2892 35.896 23.5852 35.528 22.9452 34.792C22.3052 34.024 21.7132 33.048 21.1692 31.864C20.6252 30.648 20.1132 29.352 19.6332 27.976C19.1852 26.6 18.7692 25.272 18.3852 23.992C18.0332 22.712 17.7132 21.64 17.4252 20.776C17.4252 20.616 17.2972 20.408 17.0412 20.152C16.8812 20.376 16.7692 20.568 16.7052 20.728C16.6732 20.888 16.6572 21.048 16.6572 21.208C16.3692 22.488 16.0652 23.768 15.7452 25.048C15.4572 26.296 15.2172 27.576 15.0252 28.888C14.9292 29.464 14.8332 30.024 14.7372 30.568C14.6732 31.08 14.6092 31.496 14.5452 31.816C14.5452 32.104 14.4972 32.552 14.4012 33.16C14.3372 33.768 14.2572 34.424 14.1612 35.128C14.0972 35.8 14.0172 36.424 13.9212 37C13.8572 37.576 13.8252 37.976 13.8252 38.2C13.7612 38.84 13.6172 39.528 13.3932 40.264C13.1692 40.968 12.8332 41.56 12.3852 42.04C11.9692 42.52 11.3932 42.76 10.6572 42.76ZM55.9943 43.48C54.5223 43.48 53.1463 43.144 51.8663 42.472C50.5863 41.8 49.5143 40.904 48.6503 39.784C47.7863 38.632 47.2263 37.336 46.9703 35.896V33.448C46.9703 31.656 47.2903 29.848 47.9303 28.024C48.5703 26.2 49.4823 24.52 50.6663 22.984C51.8503 21.416 53.2583 20.168 54.8903 19.24C56.5223 18.28 58.3143 17.8 60.2663 17.8C61.0663 17.8 61.7543 17.944 62.3303 18.232C62.9383 18.52 63.4823 18.824 63.9623 19.144C64.4743 19.432 64.9703 19.608 65.4503 19.672C65.7063 18.36 66.0583 17.496 66.5063 17.08C66.9543 16.632 67.5623 16.408 68.3303 16.408C69.2583 16.408 69.8823 16.712 70.2023 17.32C70.5543 17.896 70.7303 18.632 70.7303 19.528C70.7303 21.288 70.6823 23.016 70.5863 24.712C70.5223 26.408 70.4903 28.152 70.4903 29.944C70.4903 31.352 70.5703 32.808 70.7303 34.312C70.8903 35.816 70.9703 37.272 70.9703 38.68V39.688C70.9703 40.392 70.8263 41.048 70.5383 41.656C70.2823 42.232 69.6903 42.52 68.7623 42.52C67.8983 42.52 67.2743 42.264 66.8903 41.752C66.5383 41.208 66.2983 40.568 66.1703 39.832C66.0743 39.064 65.9783 38.376 65.8823 37.768L65.6903 37.576C64.6023 38.664 63.6263 39.656 62.7623 40.552C61.9303 41.448 61.0023 42.168 59.9783 42.712C58.9543 43.224 57.6263 43.48 55.9943 43.48ZM55.5143 38.632C56.6343 38.632 57.6903 38.296 58.6823 37.624C59.7063 36.92 60.6183 36.024 61.4183 34.936C62.2183 33.816 62.8423 32.648 63.2903 31.432C63.7383 30.216 63.9623 29.08 63.9623 28.024C63.9623 27.224 63.8503 26.424 63.6263 25.624C63.4023 24.792 63.0183 24.088 62.4743 23.512C61.9623 22.936 61.2263 22.648 60.2663 22.648C59.2103 22.648 58.1703 23.016 57.1463 23.752C56.1543 24.488 55.2583 25.432 54.4583 26.584C53.6583 27.704 53.0183 28.888 52.5383 30.136C52.0583 31.352 51.8183 32.456 51.8183 33.448C51.8183 34.248 51.9303 35.048 52.1543 35.848C52.4103 36.648 52.8103 37.32 53.3543 37.864C53.8983 38.376 54.6183 38.632 55.5143 38.632ZM80.0123 42.04C79.2123 42.04 78.6203 41.816 78.2363 41.368C77.8523 40.888 77.6123 40.312 77.5163 39.64C77.4203 38.936 77.3723 38.264 77.3723 37.624C77.3723 36.152 77.4043 34.68 77.4683 33.208C77.5643 31.736 77.6123 30.328 77.6123 28.984C77.6123 27.544 77.4523 26.168 77.1323 24.856C76.8123 23.544 76.6523 22.232 76.6523 20.92V19.048C76.9403 18.376 77.2443 17.928 77.5643 17.704C77.8843 17.448 78.3163 17.32 78.8603 17.32C79.8523 17.32 80.5723 17.64 81.0203 18.28C81.4683 18.888 81.7563 19.624 81.8843 20.488C82.0443 21.32 82.1563 22.088 82.2203 22.792C82.2523 23.144 82.3163 23.832 82.4123 24.856C82.5403 25.88 82.6203 26.84 82.6523 27.736H82.8443L83.0363 27.544C83.6443 26.648 84.2843 25.688 84.9563 24.664C85.6283 23.64 86.3643 22.68 87.1643 21.784C87.9963 20.888 88.9083 20.168 89.9003 19.624C90.8923 19.048 92.0123 18.76 93.2603 18.76C94.8603 18.76 96.2203 19.224 97.3403 20.152C98.4603 21.048 99.4043 22.232 100.172 23.704C100.94 25.144 101.564 26.712 102.044 28.408C102.524 30.104 102.908 31.752 103.196 33.352C103.484 34.952 103.74 36.328 103.964 37.48V38.68C103.964 39.384 103.772 40.088 103.388 40.792C103.004 41.464 102.396 41.8 101.564 41.8C100.7 41.8 100.06 41.576 99.6443 41.128C99.2603 40.68 99.0043 40.104 98.8763 39.4C98.8123 39.112 98.7323 38.648 98.6363 38.008C98.5403 37.336 98.4283 36.616 98.3003 35.848C98.1723 35.048 98.0603 34.312 97.9643 33.64C97.8683 32.936 97.7883 32.424 97.7243 32.104C97.6283 31.464 97.4043 30.712 97.0523 29.848C96.7323 28.952 96.4283 28.184 96.1403 27.544C95.8523 26.872 95.4843 26.168 95.0363 25.432C94.5883 24.696 93.9323 24.328 93.0683 24.328C92.3003 24.328 91.5963 24.6 90.9563 25.144C90.3483 25.688 89.8043 26.328 89.3243 27.064C88.8763 27.8 88.4763 28.456 88.1243 29.032C87.3243 30.312 86.6043 31.592 85.9643 32.872C85.3243 34.152 84.6363 35.544 83.9003 37.048C83.6123 37.656 83.3403 38.36 83.0843 39.16C82.8283 39.928 82.4763 40.6 82.0283 41.176C81.5803 41.752 80.9083 42.04 80.0123 42.04ZM114.804 43.72C113.204 43.304 111.86 42.6 110.772 41.608C109.716 40.584 108.916 39.384 108.372 38.008C107.86 36.632 107.604 35.192 107.604 33.688C107.604 31.608 108.052 29.608 108.948 27.688C109.844 25.736 111.044 24.008 112.548 22.504C114.084 20.968 115.812 19.752 117.732 18.856C119.684 17.96 121.7 17.512 123.78 17.512C124.516 17.512 125.22 17.624 125.892 17.848C126.596 18.04 127.3 18.152 128.004 18.184L128.196 17.56C128.228 16.984 128.276 16.264 128.34 15.4C128.404 14.536 128.484 13.64 128.58 12.712C128.708 11.752 128.836 10.84 128.964 9.976C129.124 9.112 129.3 8.424 129.492 7.912C129.748 7.176 130.116 6.552 130.596 6.04C131.076 5.496 131.716 5.224 132.516 5.224C133.316 5.224 133.828 5.48 134.052 5.992C134.308 6.504 134.436 7.144 134.436 7.912V9.112C133.988 12.792 133.636 16.424 133.38 20.008C133.156 23.56 133.044 27.112 133.044 30.664C133.044 32.296 133.124 33.896 133.284 35.464C133.444 37 133.524 38.616 133.524 40.312C133.524 40.92 133.428 41.528 133.236 42.136C133.076 42.712 132.596 43 131.796 43C130.964 43 130.324 42.776 129.876 42.328C129.428 41.848 129.108 41.256 128.916 40.552C128.724 39.848 128.564 39.176 128.436 38.536C128.372 38.056 128.308 37.816 128.244 37.816H128.052C126.388 39.64 124.676 41.08 122.916 42.136C121.188 43.192 119.188 43.72 116.916 43.72H114.804ZM116.628 38.824C117.876 38.824 119.076 38.488 120.228 37.816C121.38 37.144 122.404 36.264 123.3 35.176C124.228 34.088 124.948 32.92 125.46 31.672C126.004 30.392 126.276 29.176 126.276 28.024C126.276 27.736 126.212 27.304 126.084 26.728C125.956 26.152 125.796 25.544 125.604 24.904C125.412 24.264 125.204 23.736 124.98 23.32C124.788 22.872 124.612 22.648 124.452 22.648C122.916 22.648 121.46 22.968 120.084 23.608C118.708 24.216 117.476 25.048 116.388 26.104C115.332 27.16 114.484 28.36 113.844 29.704C113.236 31.048 112.932 32.456 112.932 33.928V35.848C113.188 36.776 113.62 37.512 114.228 38.056C114.836 38.568 115.636 38.824 116.628 38.824ZM147.128 42.52C145.752 42.52 144.6 42.232 143.672 41.656C142.776 41.048 142.072 40.264 141.56 39.304C141.048 38.344 140.68 37.304 140.456 36.184C140.264 35.032 140.168 33.896 140.168 32.776V30.424C140.168 30.328 140.216 29.96 140.312 29.32C140.408 28.648 140.504 27.928 140.6 27.16C140.728 26.392 140.824 25.816 140.888 25.432C140.984 24.984 141.096 24.424 141.224 23.752C141.384 23.048 141.576 22.36 141.8 21.688C142.056 20.984 142.376 20.408 142.76 19.96C143.176 19.48 143.672 19.24 144.248 19.24C145.112 19.24 145.768 19.496 146.216 20.008C146.696 20.52 146.936 21.144 146.936 21.88C146.936 22.488 146.84 23.08 146.648 23.656C146.488 24.232 146.344 24.824 146.216 25.432C145.992 26.648 145.768 27.864 145.544 29.08C145.352 30.296 145.256 31.528 145.256 32.776C145.256 33.224 145.288 33.8 145.352 34.504C145.416 35.208 145.592 35.832 145.88 36.376C146.168 36.92 146.664 37.192 147.368 37.192C147.912 37.192 148.552 36.84 149.288 36.136C150.056 35.432 150.856 34.52 151.688 33.4C152.552 32.28 153.416 31.064 154.28 29.752C155.144 28.408 155.944 27.112 156.68 25.864C157.448 24.584 158.104 23.464 158.648 22.504C159.192 21.512 159.576 20.824 159.8 20.44C160.056 20.088 160.328 19.8 160.616 19.576C160.904 19.352 161.272 19.24 161.72 19.24C163.224 19.24 164.12 19.944 164.408 21.352V23.08C164.408 24.488 164.36 25.896 164.264 27.304C164.2 28.68 164.168 30.024 164.168 31.336V34.168C164.264 34.68 164.472 35.144 164.792 35.56C165.112 35.976 165.4 36.392 165.656 36.808C165.944 37.192 166.088 37.656 166.088 38.2C166.088 38.936 165.864 39.56 165.416 40.072C164.968 40.584 164.376 40.84 163.64 40.84C162.68 40.84 161.912 40.52 161.336 39.88C160.76 39.208 160.312 38.424 159.992 37.528C159.8 36.952 159.576 36.216 159.32 35.32C159.096 34.392 158.872 33.48 158.648 32.584C158.168 33.416 157.624 34.248 157.016 35.08C156.44 35.88 155.832 36.664 155.192 37.432C154.168 38.712 152.968 39.88 151.592 40.936C150.216 41.992 148.728 42.52 147.128 42.52ZM175.127 42.52C174.423 42.52 173.799 42.296 173.255 41.848C172.743 41.368 172.487 40.776 172.487 40.072C172.487 39.016 172.519 37.992 172.583 37C172.679 36.008 172.727 35 172.727 33.976V30.808C172.727 29.496 172.679 28.2 172.583 26.92C172.519 25.608 172.311 24.312 171.959 23.032C171.831 22.648 171.719 22.248 171.623 21.832C171.559 21.384 171.527 20.936 171.527 20.488C171.527 19.848 171.687 19.208 172.007 18.568C172.327 17.896 172.903 17.56 173.735 17.56C174.407 17.56 174.951 17.816 175.367 18.328C175.783 18.808 176.103 19.416 176.327 20.152C176.551 20.856 176.711 21.576 176.807 22.312C176.935 23.016 177.047 23.608 177.143 24.088C177.207 24.504 177.303 24.952 177.431 25.432C177.559 25.912 177.623 26.376 177.623 26.824C177.623 26.856 177.655 26.952 177.719 27.112C177.783 27.272 177.847 27.432 177.911 27.592C178.327 26.856 178.791 26.056 179.303 25.192C179.847 24.296 180.439 23.464 181.079 22.696C181.751 21.896 182.487 21.24 183.287 20.728C184.119 20.216 185.031 19.96 186.023 19.96C187.047 19.96 187.815 20.216 188.327 20.728C188.871 21.208 189.303 21.816 189.623 22.552C189.943 23.256 190.263 23.96 190.583 24.664C190.711 24.984 190.791 25.32 190.823 25.672C190.855 25.992 190.935 26.328 191.063 26.68L191.591 25.912C192.231 25.016 192.951 24.04 193.751 22.984C194.583 21.896 195.511 20.968 196.535 20.2C197.559 19.4 198.711 19 199.991 19C201.015 19 201.879 19.304 202.583 19.912C203.319 20.488 203.911 21.24 204.359 22.168C204.839 23.096 205.191 24.056 205.415 25.048C205.639 26.04 205.751 26.952 205.751 27.784V37.96C205.751 38.44 205.671 38.968 205.511 39.544C205.383 40.088 205.143 40.568 204.791 40.984C204.439 41.368 203.943 41.56 203.303 41.56C202.567 41.56 201.975 41.304 201.527 40.792C201.079 40.28 200.855 39.736 200.855 39.16V30.424C200.855 30.328 200.839 30.12 200.807 29.8C200.775 29.48 200.727 29.144 200.663 28.792C200.631 28.44 200.615 28.184 200.615 28.024C200.615 27.768 200.583 27.368 200.519 26.824C200.455 26.28 200.327 25.768 200.135 25.288C199.943 24.808 199.655 24.568 199.271 24.568H198.839C197.879 25.4 197.159 26.2 196.679 26.968C196.199 27.704 195.831 28.44 195.575 29.176C195.319 29.912 195.079 30.696 194.855 31.528C194.631 32.328 194.311 33.208 193.895 34.168C193.671 35 193.303 35.784 192.791 36.52C192.311 37.224 191.639 37.576 190.775 37.576C189.943 37.576 189.303 37.352 188.855 36.904C188.439 36.424 188.119 35.848 187.895 35.176C187.703 34.504 187.543 33.864 187.415 33.256C187.351 32.968 187.239 32.488 187.079 31.816C186.919 31.144 186.743 30.408 186.551 29.608C186.391 28.808 186.231 28.056 186.071 27.352C185.911 26.616 185.799 26.072 185.735 25.72C185.543 25.432 185.351 25.288 185.159 25.288C184.871 25.288 184.567 25.496 184.247 25.912C183.927 26.328 183.687 26.728 183.527 27.112C183.335 27.4 183.063 27.912 182.711 28.648C182.359 29.352 182.023 30.04 181.703 30.712C181.415 31.384 181.223 31.832 181.127 32.056C181.063 32.248 180.871 32.712 180.551 33.448C180.263 34.184 179.927 35.032 179.543 35.992C179.159 36.92 178.807 37.768 178.487 38.536C178.167 39.304 177.959 39.816 177.863 40.072C177.543 40.68 177.207 41.24 176.855 41.752C176.535 42.264 175.959 42.52 175.127 42.52Z" fill="#4CAF50"/>
<path d="M235.015 43.24C234.215 43.24 233.591 43.032 233.143 42.616C232.727 42.2 232.391 41.592 232.135 40.792V38.2C232.135 35.448 232.279 32.696 232.567 29.944C232.887 27.192 233.047 24.44 233.047 21.688C233.047 21.048 233.031 20.36 232.999 19.624C232.999 18.888 232.919 18.072 232.759 17.176C231.991 16.984 231.335 16.696 230.791 16.312C230.247 15.928 229.975 15.336 229.975 14.536C229.975 13.672 230.295 12.984 230.935 12.472C231.575 11.928 232.391 11.528 233.383 11.272C234.375 10.984 235.415 10.792 236.503 10.696C237.623 10.568 238.663 10.504 239.623 10.504C240.583 10.472 241.335 10.456 241.879 10.456C243.991 10.456 246.039 10.696 248.023 11.176C250.039 11.624 251.799 12.456 253.303 13.672C254.839 14.888 255.927 16.664 256.567 19V20.968C256.567 21.224 256.567 21.496 256.567 21.784C256.599 22.072 256.615 22.344 256.615 22.6C256.615 22.824 256.599 23.064 256.567 23.32C256.535 23.576 256.471 23.816 256.375 24.04C255.767 25.448 254.903 26.568 253.783 27.4C252.695 28.2 251.511 28.904 250.231 29.512C250.007 29.576 249.671 29.688 249.223 29.848C248.775 29.976 248.551 30.152 248.551 30.376V30.616C249.319 31.192 250.039 31.832 250.711 32.536C251.415 33.24 252.103 33.928 252.775 34.6C253.511 35.304 254.167 36.12 254.743 37.048C255.351 37.944 255.655 38.808 255.655 39.64C255.655 40.472 255.415 41.128 254.935 41.608C254.455 42.056 253.799 42.28 252.967 42.28C252.583 42.28 252.183 42.2 251.767 42.04C251.351 41.592 250.967 41.192 250.615 40.84C250.295 40.456 249.959 40.024 249.607 39.544C249.255 39 248.791 38.408 248.215 37.768C247.671 37.096 247.095 36.472 246.487 35.896C245.911 35.288 245.383 34.808 244.903 34.456C244.583 34.136 244.087 33.768 243.415 33.352C242.775 32.904 242.103 32.44 241.399 31.96C240.727 31.48 240.151 30.968 239.671 30.424C239.191 29.88 238.951 29.32 238.951 28.744C238.951 28.136 239.255 27.64 239.863 27.256C240.471 26.872 241.239 26.552 242.167 26.296C243.127 26.008 244.135 25.72 245.191 25.432C246.279 25.144 247.287 24.808 248.215 24.424C249.175 24.04 249.959 23.56 250.567 22.984C251.175 22.376 251.479 21.624 251.479 20.728C251.479 19.544 251.095 18.632 250.327 17.992C249.591 17.352 248.663 16.904 247.543 16.648C246.455 16.36 245.351 16.2 244.231 16.168C243.111 16.104 242.167 16.072 241.399 16.072H239.047L238.855 16.264L237.655 37.72C237.623 38.168 237.591 38.712 237.559 39.352C237.527 39.96 237.431 40.568 237.271 41.176C237.143 41.752 236.903 42.248 236.551 42.664C236.199 43.048 235.687 43.24 235.015 43.24ZM267.131 13.432C266.171 13.432 265.339 13.128 264.635 12.52C263.931 11.912 263.579 11.016 263.579 9.832C263.579 8.648 263.995 7.816 264.827 7.336C265.659 6.856 266.507 6.616 267.371 6.616C268.363 6.616 269.195 6.92 269.867 7.528C270.571 8.136 270.923 9.048 270.923 10.264C270.923 11.416 270.507 12.232 269.675 12.712C268.875 13.192 268.027 13.432 267.131 13.432ZM265.211 42.28C264.603 42.28 264.139 41.96 263.819 41.32C263.499 40.68 263.259 40.04 263.099 39.4V33.208C263.099 33.048 263.131 32.632 263.195 31.96C263.291 31.256 263.387 30.44 263.483 29.512C263.611 28.552 263.723 27.64 263.819 26.776C263.947 25.88 264.043 25.176 264.107 24.664C264.203 24.024 264.315 23.32 264.443 22.552C264.603 21.784 264.875 21.112 265.259 20.536C265.643 19.96 266.187 19.672 266.891 19.672C267.659 19.672 268.203 19.864 268.523 20.248C268.875 20.6 269.083 21.048 269.147 21.592C269.211 22.136 269.243 22.696 269.243 23.272V24.952C269.243 25.016 269.227 25.16 269.195 25.384C269.163 25.576 269.115 25.8 269.051 26.056C268.827 27.176 268.651 28.008 268.523 28.552C268.427 29.064 268.347 29.512 268.283 29.896C268.251 30.248 268.235 30.744 268.235 31.384C268.235 31.768 268.235 32.248 268.235 32.824C268.267 33.4 268.283 34.152 268.283 35.08C268.283 35.496 268.299 35.912 268.331 36.328C268.363 36.712 268.379 37.128 268.379 37.576C268.379 38.056 268.331 38.568 268.235 39.112C268.107 39.912 267.819 40.648 267.371 41.32C266.923 41.96 266.203 42.28 265.211 42.28ZM278.205 42.52C277.501 42.52 276.877 42.296 276.333 41.848C275.821 41.368 275.565 40.776 275.565 40.072C275.565 39.016 275.597 37.992 275.661 37C275.757 36.008 275.805 35 275.805 33.976V30.808C275.805 29.496 275.757 28.2 275.661 26.92C275.597 25.608 275.389 24.312 275.037 23.032C274.909 22.648 274.797 22.248 274.701 21.832C274.637 21.384 274.605 20.936 274.605 20.488C274.605 19.848 274.765 19.208 275.085 18.568C275.405 17.896 275.981 17.56 276.813 17.56C277.485 17.56 278.029 17.816 278.445 18.328C278.861 18.808 279.181 19.416 279.405 20.152C279.629 20.856 279.789 21.576 279.885 22.312C280.013 23.016 280.125 23.608 280.221 24.088C280.285 24.504 280.381 24.952 280.509 25.432C280.637 25.912 280.701 26.376 280.701 26.824C280.701 26.856 280.733 26.952 280.797 27.112C280.861 27.272 280.925 27.432 280.989 27.592C281.405 26.856 281.869 26.056 282.381 25.192C282.925 24.296 283.517 23.464 284.157 22.696C284.829 21.896 285.565 21.24 286.365 20.728C287.197 20.216 288.109 19.96 289.101 19.96C290.125 19.96 290.893 20.216 291.405 20.728C291.949 21.208 292.381 21.816 292.701 22.552C293.021 23.256 293.341 23.96 293.661 24.664C293.789 24.984 293.869 25.32 293.901 25.672C293.933 25.992 294.013 26.328 294.141 26.68L294.669 25.912C295.309 25.016 296.029 24.04 296.829 22.984C297.661 21.896 298.589 20.968 299.613 20.2C300.637 19.4 301.789 19 303.069 19C304.093 19 304.957 19.304 305.661 19.912C306.397 20.488 306.989 21.24 307.437 22.168C307.917 23.096 308.269 24.056 308.493 25.048C308.717 26.04 308.829 26.952 308.829 27.784V37.96C308.829 38.44 308.749 38.968 308.589 39.544C308.461 40.088 308.221 40.568 307.869 40.984C307.517 41.368 307.021 41.56 306.381 41.56C305.645 41.56 305.053 41.304 304.605 40.792C304.157 40.28 303.933 39.736 303.933 39.16V30.424C303.933 30.328 303.917 30.12 303.885 29.8C303.853 29.48 303.805 29.144 303.741 28.792C303.709 28.44 303.693 28.184 303.693 28.024C303.693 27.768 303.661 27.368 303.597 26.824C303.533 26.28 303.405 25.768 303.213 25.288C303.021 24.808 302.733 24.568 302.349 24.568H301.917C300.957 25.4 300.237 26.2 299.757 26.968C299.277 27.704 298.909 28.44 298.653 29.176C298.397 29.912 298.157 30.696 297.933 31.528C297.709 32.328 297.389 33.208 296.973 34.168C296.749 35 296.381 35.784 295.869 36.52C295.389 37.224 294.717 37.576 293.853 37.576C293.021 37.576 292.381 37.352 291.933 36.904C291.517 36.424 291.197 35.848 290.973 35.176C290.781 34.504 290.621 33.864 290.493 33.256C290.429 32.968 290.317 32.488 290.157 31.816C289.997 31.144 289.821 30.408 289.629 29.608C289.469 28.808 289.309 28.056 289.149 27.352C288.989 26.616 288.877 26.072 288.813 25.72C288.621 25.432 288.429 25.288 288.237 25.288C287.949 25.288 287.645 25.496 287.325 25.912C287.005 26.328 286.765 26.728 286.605 27.112C286.413 27.4 286.141 27.912 285.789 28.648C285.437 29.352 285.101 30.04 284.781 30.712C284.493 31.384 284.301 31.832 284.205 32.056C284.141 32.248 283.949 32.712 283.629 33.448C283.341 34.184 283.005 35.032 282.621 35.992C282.237 36.92 281.885 37.768 281.565 38.536C281.245 39.304 281.037 39.816 280.941 40.072C280.621 40.68 280.285 41.24 279.933 41.752C279.613 42.264 279.037 42.52 278.205 42.52ZM324.767 42.52C324.159 42.52 323.679 42.52 323.327 42.52C323.007 42.488 322.607 42.408 322.127 42.28C321.903 42.152 321.599 42.008 321.215 41.848C320.831 41.656 320.463 41.48 320.111 41.32C319.759 41.16 319.503 41.08 319.343 41.08C319.119 41.08 318.767 41.288 318.287 41.704C317.839 42.088 317.327 42.28 316.751 42.28C315.919 42.28 315.343 41.992 315.023 41.416C314.703 40.808 314.543 40.12 314.543 39.352C314.543 38.648 314.575 38.024 314.639 37.48C314.703 36.904 314.831 36.264 315.023 35.56C315.503 32.04 315.871 28.424 316.127 24.712C316.415 20.968 316.559 17.256 316.559 13.576C316.559 12.648 316.559 11.736 316.559 10.84C316.559 9.944 316.527 9.048 316.463 8.152C316.431 7.512 316.623 7.064 317.039 6.808C317.455 6.552 317.919 6.424 318.431 6.424H318.863C319.567 6.424 320.159 6.6 320.639 6.952C321.119 7.304 321.423 7.928 321.551 8.824V11.416C321.551 13.272 321.519 15.128 321.455 16.984C321.391 18.84 321.343 20.824 321.311 22.936H321.455C322.767 21.432 324.223 20.152 325.823 19.096C327.423 18.04 329.199 17.512 331.151 17.512C332.655 17.512 334.111 17.864 335.519 18.568C336.959 19.24 338.143 20.2 339.071 21.448C339.999 22.664 340.463 24.072 340.463 25.672C340.463 27.816 340.063 29.896 339.263 31.912C338.463 33.896 337.343 35.688 335.903 37.288C334.463 38.888 332.799 40.168 330.911 41.128C329.023 42.056 326.975 42.52 324.767 42.52ZM324.767 37.384C326.015 37.384 327.279 37.08 328.559 36.472C329.839 35.864 331.007 35.048 332.063 34.024C333.119 33 333.967 31.864 334.607 30.616C335.279 29.368 335.615 28.104 335.615 26.824C335.615 25.8 335.247 24.856 334.511 23.992C333.807 23.096 332.911 22.648 331.823 22.648C330.671 22.648 329.615 22.92 328.655 23.464C327.727 24.008 326.863 24.712 326.063 25.576C325.295 26.408 324.591 27.32 323.951 28.312C323.311 29.304 322.719 30.232 322.175 31.096C321.951 31.608 321.663 32.184 321.311 32.824C320.991 33.464 320.831 34.072 320.831 34.648C320.831 35.224 321.055 35.72 321.503 36.136C321.951 36.552 322.479 36.872 323.087 37.096C323.727 37.288 324.287 37.384 324.767 37.384ZM353.557 43.48C352.085 43.48 350.709 43.144 349.429 42.472C348.149 41.8 347.077 40.904 346.213 39.784C345.349 38.632 344.789 37.336 344.533 35.896V33.448C344.533 31.656 344.853 29.848 345.493 28.024C346.133 26.2 347.045 24.52 348.229 22.984C349.413 21.416 350.821 20.168 352.453 19.24C354.085 18.28 355.877 17.8 357.829 17.8C358.629 17.8 359.317 17.944 359.893 18.232C360.501 18.52 361.045 18.824 361.525 19.144C362.037 19.432 362.533 19.608 363.013 19.672C363.269 18.36 363.621 17.496 364.069 17.08C364.517 16.632 365.125 16.408 365.893 16.408C366.821 16.408 367.445 16.712 367.765 17.32C368.117 17.896 368.293 18.632 368.293 19.528C368.293 21.288 368.245 23.016 368.149 24.712C368.085 26.408 368.053 28.152 368.053 29.944C368.053 31.352 368.133 32.808 368.293 34.312C368.453 35.816 368.533 37.272 368.533 38.68V39.688C368.533 40.392 368.389 41.048 368.101 41.656C367.845 42.232 367.253 42.52 366.325 42.52C365.461 42.52 364.837 42.264 364.453 41.752C364.101 41.208 363.861 40.568 363.733 39.832C363.637 39.064 363.541 38.376 363.445 37.768L363.253 37.576C362.165 38.664 361.189 39.656 360.325 40.552C359.493 41.448 358.565 42.168 357.541 42.712C356.517 43.224 355.189 43.48 353.557 43.48ZM353.077 38.632C354.197 38.632 355.253 38.296 356.245 37.624C357.269 36.92 358.181 36.024 358.981 34.936C359.781 33.816 360.405 32.648 360.853 31.432C361.301 30.216 361.525 29.08 361.525 28.024C361.525 27.224 361.413 26.424 361.189 25.624C360.965 24.792 360.581 24.088 360.037 23.512C359.525 22.936 358.789 22.648 357.829 22.648C356.773 22.648 355.733 23.016 354.709 23.752C353.717 24.488 352.821 25.432 352.021 26.584C351.221 27.704 350.581 28.888 350.101 30.136C349.621 31.352 349.381 32.456 349.381 33.448C349.381 34.248 349.493 35.048 349.717 35.848C349.973 36.648 350.373 37.32 350.917 37.864C351.461 38.376 352.181 38.632 353.077 38.632Z" fill="white"/>
<path d="M268.847 3.53135C270.107 3.53135 271.262 3.98635 272.312 4.89635C273.292 5.80635 273.782 7.13635 273.782 8.88635C273.782 11.1964 273.152 12.9464 271.892 14.1364C270.562 15.3264 269.127 15.9214 267.587 15.9214C266.257 15.9214 265.067 15.4314 264.017 14.4514C262.967 13.4714 262.477 12.0014 262.547 10.0414C262.687 7.87135 263.422 6.22635 264.752 5.10635C266.012 4.05635 267.377 3.53135 268.847 3.53135Z" fill="#FFD54F"/>
<path d="M56.0546 84.24C55.7666 84.24 55.5506 84.144 55.4066 83.952C55.2626 83.76 55.1666 83.536 55.1186 83.28C55.0706 83.008 55.0226 82.768 54.9746 82.56V80.784C54.9746 79.888 55.0146 78.984 55.0946 78.072C55.1746 77.144 55.2146 76.24 55.2146 75.36C55.2146 74.944 55.1746 74.544 55.0946 74.16C55.0146 73.776 54.9746 73.384 54.9746 72.984V72.336C55.1026 72.096 55.2706 71.92 55.4786 71.808C55.7026 71.696 55.9346 71.64 56.1746 71.64C56.5266 71.64 56.7906 71.744 56.9666 71.952C57.1426 72.144 57.2626 72.376 57.3266 72.648C57.4066 72.92 57.4786 73.168 57.5426 73.392C57.6066 73.6 57.7106 73.72 57.8546 73.752C58.3186 73.448 58.7586 73.152 59.1746 72.864C59.6066 72.576 60.0546 72.344 60.5186 72.168C60.9986 71.976 61.5266 71.88 62.1026 71.88C62.3906 71.88 62.6946 71.944 63.0146 72.072C63.3506 72.2 63.6386 72.384 63.8786 72.624C64.1186 72.848 64.2386 73.128 64.2386 73.464C64.2386 73.88 64.0706 74.184 63.7346 74.376C63.4146 74.568 63.1106 74.664 62.8226 74.664C62.6306 74.664 62.4466 74.624 62.2706 74.544C62.0946 74.464 61.9106 74.424 61.7186 74.424C61.1586 74.424 60.6306 74.568 60.1346 74.856C59.6546 75.128 59.2306 75.456 58.8626 75.84C58.4946 76.224 58.1986 76.584 57.9746 76.92C57.9106 77.064 57.8626 77.304 57.8306 77.64C57.7986 77.976 57.7746 78.36 57.7586 78.792C57.7426 79.208 57.7266 79.616 57.7106 80.016C57.7106 80.416 57.7026 80.76 57.6866 81.048C57.6706 81.576 57.6146 82.088 57.5186 82.584C57.4386 83.064 57.2866 83.464 57.0626 83.784C56.8386 84.088 56.5026 84.24 56.0546 84.24ZM67.2452 69.216C66.7652 69.216 66.3492 69.064 65.9972 68.76C65.6452 68.456 65.4692 68.008 65.4692 67.416C65.4692 66.824 65.6772 66.408 66.0932 66.168C66.5092 65.928 66.9332 65.808 67.3652 65.808C67.8612 65.808 68.2772 65.96 68.6132 66.264C68.9652 66.568 69.1412 67.024 69.1412 67.632C69.1412 68.208 68.9332 68.616 68.5172 68.856C68.1172 69.096 67.6932 69.216 67.2452 69.216ZM66.2852 83.64C65.9812 83.64 65.7492 83.48 65.5892 83.16C65.4292 82.84 65.3092 82.52 65.2292 82.2V79.104C65.2292 79.024 65.2452 78.816 65.2772 78.48C65.3252 78.128 65.3732 77.72 65.4212 77.256C65.4852 76.776 65.5412 76.32 65.5892 75.888C65.6532 75.44 65.7012 75.088 65.7332 74.832C65.7812 74.512 65.8372 74.16 65.9012 73.776C65.9812 73.392 66.1172 73.056 66.3092 72.768C66.5012 72.48 66.7732 72.336 67.1252 72.336C67.5092 72.336 67.7812 72.432 67.9412 72.624C68.1172 72.8 68.2212 73.024 68.2532 73.296C68.2852 73.568 68.3012 73.848 68.3012 74.136V74.976C68.3012 75.008 68.2932 75.08 68.2772 75.192C68.2612 75.288 68.2372 75.4 68.2052 75.528C68.0932 76.088 68.0052 76.504 67.9412 76.776C67.8932 77.032 67.8532 77.256 67.8212 77.448C67.8052 77.624 67.7972 77.872 67.7972 78.192C67.7972 78.384 67.7972 78.624 67.7972 78.912C67.8132 79.2 67.8212 79.576 67.8212 80.04C67.8212 80.248 67.8292 80.456 67.8452 80.664C67.8612 80.856 67.8692 81.064 67.8692 81.288C67.8692 81.528 67.8452 81.784 67.7972 82.056C67.7332 82.456 67.5892 82.824 67.3652 83.16C67.1412 83.48 66.7812 83.64 66.2852 83.64ZM72.7824 83.76C72.4304 83.76 72.1184 83.648 71.8464 83.424C71.5904 83.184 71.4624 82.888 71.4624 82.536C71.4624 82.008 71.4784 81.496 71.5104 81C71.5584 80.504 71.5824 80 71.5824 79.488V77.904C71.5824 77.248 71.5584 76.6 71.5104 75.96C71.4784 75.304 71.3744 74.656 71.1984 74.016C71.1344 73.824 71.0784 73.624 71.0304 73.416C70.9984 73.192 70.9824 72.968 70.9824 72.744C70.9824 72.424 71.0624 72.104 71.2224 71.784C71.3824 71.448 71.6704 71.28 72.0864 71.28C72.4224 71.28 72.6944 71.408 72.9024 71.664C73.1104 71.904 73.2704 72.208 73.3824 72.576C73.4944 72.928 73.5744 73.288 73.6224 73.656C73.6864 74.008 73.7424 74.304 73.7904 74.544C73.8224 74.752 73.8704 74.976 73.9344 75.216C73.9984 75.456 74.0304 75.688 74.0304 75.912C74.0304 75.928 74.0464 75.976 74.0784 76.056C74.1104 76.136 74.1424 76.216 74.1744 76.296C74.3824 75.928 74.6144 75.528 74.8704 75.096C75.1424 74.648 75.4384 74.232 75.7584 73.848C76.0944 73.448 76.4624 73.12 76.8624 72.864C77.2784 72.608 77.7344 72.48 78.2304 72.48C78.7424 72.48 79.1264 72.608 79.3824 72.864C79.6544 73.104 79.8704 73.408 80.0304 73.776C80.1904 74.128 80.3504 74.48 80.5104 74.832C80.5744 74.992 80.6144 75.16 80.6304 75.336C80.6464 75.496 80.6864 75.664 80.7504 75.84L81.0144 75.456C81.3344 75.008 81.6944 74.52 82.0944 73.992C82.5104 73.448 82.9744 72.984 83.4864 72.6C83.9984 72.2 84.5744 72 85.2144 72C85.7264 72 86.1584 72.152 86.5104 72.456C86.8784 72.744 87.1744 73.12 87.3984 73.584C87.6384 74.048 87.8144 74.528 87.9264 75.024C88.0384 75.52 88.0944 75.976 88.0944 76.392V81.48C88.0944 81.72 88.0544 81.984 87.9744 82.272C87.9104 82.544 87.7904 82.784 87.6144 82.992C87.4384 83.184 87.1904 83.28 86.8704 83.28C86.5024 83.28 86.2064 83.152 85.9824 82.896C85.7584 82.64 85.6464 82.368 85.6464 82.08V77.712C85.6464 77.664 85.6384 77.56 85.6224 77.4C85.6064 77.24 85.5824 77.072 85.5504 76.896C85.5344 76.72 85.5264 76.592 85.5264 76.512C85.5264 76.384 85.5104 76.184 85.4784 75.912C85.4464 75.64 85.3824 75.384 85.2864 75.144C85.1904 74.904 85.0464 74.784 84.8544 74.784H84.6384C84.1584 75.2 83.7984 75.6 83.5584 75.984C83.3184 76.352 83.1344 76.72 83.0064 77.088C82.8784 77.456 82.7584 77.848 82.6464 78.264C82.5344 78.664 82.3744 79.104 82.1664 79.584C82.0544 80 81.8704 80.392 81.6144 80.76C81.3744 81.112 81.0384 81.288 80.6064 81.288C80.1904 81.288 79.8704 81.176 79.6464 80.952C79.4384 80.712 79.2784 80.424 79.1664 80.088C79.0704 79.752 78.9904 79.432 78.9264 79.128C78.8944 78.984 78.8384 78.744 78.7584 78.408C78.6784 78.072 78.5904 77.704 78.4944 77.304C78.4144 76.904 78.3344 76.528 78.2544 76.176C78.1744 75.808 78.1184 75.536 78.0864 75.36C77.9904 75.216 77.8944 75.144 77.7984 75.144C77.6544 75.144 77.5024 75.248 77.3424 75.456C77.1824 75.664 77.0624 75.864 76.9824 76.056C76.8864 76.2 76.7504 76.456 76.5744 76.824C76.3984 77.176 76.2304 77.52 76.0704 77.856C75.9264 78.192 75.8304 78.416 75.7824 78.528C75.7504 78.624 75.6544 78.856 75.4944 79.224C75.3504 79.592 75.1824 80.016 74.9904 80.496C74.7984 80.96 74.6224 81.384 74.4624 81.768C74.3024 82.152 74.1984 82.408 74.1504 82.536C73.9904 82.84 73.8224 83.12 73.6464 83.376C73.4864 83.632 73.1984 83.76 72.7824 83.76ZM96.0632 83.76C95.7592 83.76 95.5192 83.76 95.3432 83.76C95.1832 83.744 94.9832 83.704 94.7432 83.64C94.6312 83.576 94.4792 83.504 94.2872 83.424C94.0952 83.328 93.9112 83.24 93.7352 83.16C93.5592 83.08 93.4312 83.04 93.3512 83.04C93.2392 83.04 93.0632 83.144 92.8232 83.352C92.5992 83.544 92.3432 83.64 92.0552 83.64C91.6392 83.64 91.3512 83.496 91.1912 83.208C91.0312 82.904 90.9512 82.56 90.9512 82.176C90.9512 81.824 90.9672 81.512 90.9992 81.24C91.0312 80.952 91.0952 80.632 91.1912 80.28C91.4312 78.52 91.6152 76.712 91.7432 74.856C91.8872 72.984 91.9592 71.128 91.9592 69.288C91.9592 68.824 91.9592 68.368 91.9592 67.92C91.9592 67.472 91.9432 67.024 91.9112 66.576C91.8952 66.256 91.9912 66.032 92.1992 65.904C92.4072 65.776 92.6392 65.712 92.8952 65.712H93.1112C93.4632 65.712 93.7592 65.8 93.9992 65.976C94.2392 66.152 94.3912 66.464 94.4552 66.912V68.208C94.4552 69.136 94.4392 70.064 94.4072 70.992C94.3752 71.92 94.3512 72.912 94.3352 73.968H94.4072C95.0632 73.216 95.7912 72.576 96.5912 72.048C97.3912 71.52 98.2792 71.256 99.2552 71.256C100.007 71.256 100.735 71.432 101.439 71.784C102.159 72.12 102.751 72.6 103.215 73.224C103.679 73.832 103.911 74.536 103.911 75.336C103.911 76.408 103.711 77.448 103.311 78.456C102.911 79.448 102.351 80.344 101.631 81.144C100.911 81.944 100.079 82.584 99.1352 83.064C98.1912 83.528 97.1672 83.76 96.0632 83.76ZM96.0632 81.192C96.6872 81.192 97.3192 81.04 97.9592 80.736C98.5992 80.432 99.1832 80.024 99.7112 79.512C100.239 79 100.663 78.432 100.983 77.808C101.319 77.184 101.487 76.552 101.487 75.912C101.487 75.4 101.303 74.928 100.935 74.496C100.583 74.048 100.135 73.824 99.5912 73.824C99.0152 73.824 98.4872 73.96 98.0072 74.232C97.5432 74.504 97.1112 74.856 96.7112 75.288C96.3272 75.704 95.9752 76.16 95.6552 76.656C95.3352 77.152 95.0392 77.616 94.7672 78.048C94.6552 78.304 94.5112 78.592 94.3352 78.912C94.1752 79.232 94.0952 79.536 94.0952 79.824C94.0952 80.112 94.2072 80.36 94.4312 80.568C94.6552 80.776 94.9192 80.936 95.2232 81.048C95.5432 81.144 95.8232 81.192 96.0632 81.192ZM110.458 84.24C109.722 84.24 109.034 84.072 108.394 83.736C107.754 83.4 107.218 82.952 106.786 82.392C106.354 81.816 106.074 81.168 105.946 80.448V79.224C105.946 78.328 106.106 77.424 106.426 76.512C106.746 75.6 107.202 74.76 107.794 73.992C108.386 73.208 109.09 72.584 109.906 72.12C110.722 71.64 111.618 71.4 112.594 71.4C112.994 71.4 113.338 71.472 113.626 71.616C113.93 71.76 114.202 71.912 114.442 72.072C114.698 72.216 114.946 72.304 115.186 72.336C115.314 71.68 115.49 71.248 115.714 71.04C115.938 70.816 116.242 70.704 116.626 70.704C117.09 70.704 117.402 70.856 117.562 71.16C117.738 71.448 117.826 71.816 117.826 72.264C117.826 73.144 117.802 74.008 117.754 74.856C117.722 75.704 117.706 76.576 117.706 77.472C117.706 78.176 117.746 78.904 117.826 79.656C117.906 80.408 117.946 81.136 117.946 81.84V82.344C117.946 82.696 117.874 83.024 117.73 83.328C117.602 83.616 117.306 83.76 116.842 83.76C116.41 83.76 116.098 83.632 115.906 83.376C115.73 83.104 115.61 82.784 115.546 82.416C115.498 82.032 115.45 81.688 115.402 81.384L115.306 81.288C114.762 81.832 114.274 82.328 113.842 82.776C113.426 83.224 112.962 83.584 112.45 83.856C111.938 84.112 111.274 84.24 110.458 84.24ZM110.218 81.816C110.778 81.816 111.306 81.648 111.802 81.312C112.314 80.96 112.77 80.512 113.17 79.968C113.57 79.408 113.882 78.824 114.106 78.216C114.33 77.608 114.442 77.04 114.442 76.512C114.442 76.112 114.386 75.712 114.274 75.312C114.162 74.896 113.97 74.544 113.698 74.256C113.442 73.968 113.074 73.824 112.594 73.824C112.066 73.824 111.546 74.008 111.034 74.376C110.538 74.744 110.09 75.216 109.69 75.792C109.29 76.352 108.97 76.944 108.73 77.568C108.49 78.176 108.37 78.728 108.37 79.224C108.37 79.624 108.426 80.024 108.538 80.424C108.666 80.824 108.866 81.16 109.138 81.432C109.41 81.688 109.77 81.816 110.218 81.816ZM131.962 83.76C131.61 83.76 131.298 83.648 131.026 83.424C130.77 83.184 130.642 82.888 130.642 82.536C130.642 82.008 130.658 81.496 130.69 81C130.738 80.504 130.762 80 130.762 79.488V77.904C130.762 77.248 130.738 76.6 130.69 75.96C130.658 75.304 130.554 74.656 130.378 74.016C130.314 73.824 130.258 73.624 130.21 73.416C130.178 73.192 130.162 72.968 130.162 72.744C130.162 72.424 130.242 72.104 130.402 71.784C130.562 71.448 130.85 71.28 131.266 71.28C131.602 71.28 131.874 71.408 132.082 71.664C132.29 71.904 132.45 72.208 132.562 72.576C132.674 72.928 132.754 73.288 132.802 73.656C132.866 74.008 132.922 74.304 132.97 74.544C133.002 74.752 133.05 74.976 133.114 75.216C133.178 75.456 133.21 75.688 133.21 75.912C133.21 75.928 133.226 75.976 133.258 76.056C133.29 76.136 133.322 76.216 133.354 76.296C133.562 75.928 133.794 75.528 134.05 75.096C134.322 74.648 134.618 74.232 134.938 73.848C135.274 73.448 135.642 73.12 136.042 72.864C136.458 72.608 136.914 72.48 137.41 72.48C137.922 72.48 138.306 72.608 138.562 72.864C138.834 73.104 139.05 73.408 139.21 73.776C139.37 74.128 139.53 74.48 139.69 74.832C139.754 74.992 139.794 75.16 139.81 75.336C139.826 75.496 139.866 75.664 139.93 75.84L140.194 75.456C140.514 75.008 140.874 74.52 141.274 73.992C141.69 73.448 142.154 72.984 142.666 72.6C143.178 72.2 143.754 72 144.394 72C144.906 72 145.338 72.152 145.69 72.456C146.058 72.744 146.354 73.12 146.578 73.584C146.818 74.048 146.994 74.528 147.106 75.024C147.218 75.52 147.274 75.976 147.274 76.392V81.48C147.274 81.72 147.234 81.984 147.154 82.272C147.09 82.544 146.97 82.784 146.794 82.992C146.618 83.184 146.37 83.28 146.05 83.28C145.682 83.28 145.386 83.152 145.162 82.896C144.938 82.64 144.826 82.368 144.826 82.08V77.712C144.826 77.664 144.818 77.56 144.802 77.4C144.786 77.24 144.762 77.072 144.73 76.896C144.714 76.72 144.706 76.592 144.706 76.512C144.706 76.384 144.69 76.184 144.658 75.912C144.626 75.64 144.562 75.384 144.466 75.144C144.37 74.904 144.226 74.784 144.034 74.784H143.818C143.338 75.2 142.978 75.6 142.738 75.984C142.498 76.352 142.314 76.72 142.186 77.088C142.058 77.456 141.938 77.848 141.826 78.264C141.714 78.664 141.554 79.104 141.346 79.584C141.234 80 141.05 80.392 140.794 80.76C140.554 81.112 140.218 81.288 139.786 81.288C139.37 81.288 139.05 81.176 138.826 80.952C138.618 80.712 138.458 80.424 138.346 80.088C138.25 79.752 138.17 79.432 138.106 79.128C138.074 78.984 138.018 78.744 137.938 78.408C137.858 78.072 137.77 77.704 137.674 77.304C137.594 76.904 137.514 76.528 137.434 76.176C137.354 75.808 137.298 75.536 137.266 75.36C137.17 75.216 137.074 75.144 136.978 75.144C136.834 75.144 136.682 75.248 136.522 75.456C136.362 75.664 136.242 75.864 136.162 76.056C136.066 76.2 135.93 76.456 135.754 76.824C135.578 77.176 135.41 77.52 135.25 77.856C135.106 78.192 135.01 78.416 134.962 78.528C134.93 78.624 134.834 78.856 134.674 79.224C134.53 79.592 134.362 80.016 134.17 80.496C133.978 80.96 133.802 81.384 133.642 81.768C133.482 82.152 133.378 82.408 133.33 82.536C133.17 82.84 133.002 83.12 132.826 83.376C132.666 83.632 132.378 83.76 131.962 83.76ZM152.675 69.216C152.195 69.216 151.779 69.064 151.427 68.76C151.075 68.456 150.899 68.008 150.899 67.416C150.899 66.824 151.107 66.408 151.523 66.168C151.939 65.928 152.363 65.808 152.795 65.808C153.291 65.808 153.707 65.96 154.043 66.264C154.395 66.568 154.571 67.024 154.571 67.632C154.571 68.208 154.363 68.616 153.947 68.856C153.547 69.096 153.123 69.216 152.675 69.216ZM151.715 83.64C151.411 83.64 151.179 83.48 151.019 83.16C150.859 82.84 150.739 82.52 150.659 82.2V79.104C150.659 79.024 150.675 78.816 150.707 78.48C150.755 78.128 150.803 77.72 150.851 77.256C150.915 76.776 150.971 76.32 151.019 75.888C151.083 75.44 151.131 75.088 151.163 74.832C151.211 74.512 151.267 74.16 151.331 73.776C151.411 73.392 151.547 73.056 151.739 72.768C151.931 72.48 152.203 72.336 152.555 72.336C152.939 72.336 153.211 72.432 153.371 72.624C153.547 72.8 153.651 73.024 153.683 73.296C153.715 73.568 153.731 73.848 153.731 74.136V74.976C153.731 75.008 153.723 75.08 153.707 75.192C153.691 75.288 153.667 75.4 153.635 75.528C153.523 76.088 153.435 76.504 153.371 76.776C153.323 77.032 153.283 77.256 153.251 77.448C153.235 77.624 153.227 77.872 153.227 78.192C153.227 78.384 153.227 78.624 153.227 78.912C153.243 79.2 153.251 79.576 153.251 80.04C153.251 80.248 153.259 80.456 153.275 80.664C153.291 80.856 153.299 81.064 153.299 81.288C153.299 81.528 153.275 81.784 153.227 82.056C153.163 82.456 153.019 82.824 152.795 83.16C152.571 83.48 152.211 83.64 151.715 83.64ZM158.476 84.12C158.108 84.12 157.828 84 157.636 83.76C157.46 83.504 157.34 83.192 157.276 82.824C157.228 82.456 157.204 82.08 157.204 81.696C157.204 81.504 157.204 81.32 157.204 81.144C157.22 80.952 157.228 80.776 157.228 80.616C157.228 80.232 157.236 79.64 157.252 78.84C157.268 78.04 157.292 77.128 157.324 76.104C157.356 75.064 157.396 73.984 157.444 72.864C157.492 71.744 157.556 70.664 157.636 69.624C157.732 68.584 157.836 67.672 157.948 66.888C158.06 66.168 158.26 65.592 158.548 65.16C158.852 64.728 159.156 64.512 159.46 64.512C159.732 64.512 159.964 64.728 160.156 65.16C160.348 65.592 160.42 66.304 160.372 67.296C160.068 69.136 159.844 70.912 159.7 72.624C159.556 74.336 159.484 76.104 159.484 77.928C159.484 78.696 159.524 79.464 159.604 80.232C159.684 81 159.724 81.768 159.724 82.536C159.724 83.032 159.62 83.424 159.412 83.712C159.204 83.984 158.892 84.12 158.476 84.12ZM165.214 69.216C164.734 69.216 164.318 69.064 163.966 68.76C163.614 68.456 163.438 68.008 163.438 67.416C163.438 66.824 163.646 66.408 164.062 66.168C164.478 65.928 164.902 65.808 165.334 65.808C165.83 65.808 166.246 65.96 166.582 66.264C166.934 66.568 167.11 67.024 167.11 67.632C167.11 68.208 166.902 68.616 166.486 68.856C166.086 69.096 165.662 69.216 165.214 69.216ZM164.254 83.64C163.95 83.64 163.718 83.48 163.558 83.16C163.398 82.84 163.278 82.52 163.198 82.2V79.104C163.198 79.024 163.214 78.816 163.246 78.48C163.294 78.128 163.342 77.72 163.39 77.256C163.454 76.776 163.51 76.32 163.558 75.888C163.622 75.44 163.67 75.088 163.702 74.832C163.75 74.512 163.806 74.16 163.87 73.776C163.95 73.392 164.086 73.056 164.278 72.768C164.47 72.48 164.742 72.336 165.094 72.336C165.478 72.336 165.75 72.432 165.91 72.624C166.086 72.8 166.19 73.024 166.222 73.296C166.254 73.568 166.27 73.848 166.27 74.136V74.976C166.27 75.008 166.262 75.08 166.246 75.192C166.23 75.288 166.206 75.4 166.174 75.528C166.062 76.088 165.974 76.504 165.91 76.776C165.862 77.032 165.822 77.256 165.79 77.448C165.774 77.624 165.766 77.872 165.766 78.192C165.766 78.384 165.766 78.624 165.766 78.912C165.782 79.2 165.79 79.576 165.79 80.04C165.79 80.248 165.798 80.456 165.814 80.664C165.83 80.856 165.838 81.064 165.838 81.288C165.838 81.528 165.814 81.784 165.766 82.056C165.702 82.456 165.558 82.824 165.334 83.16C165.11 83.48 164.75 83.64 164.254 83.64ZM170.175 84.24C169.823 84.24 169.527 84.112 169.287 83.856C169.063 83.6 168.951 83.312 168.951 82.992V82.536L169.791 73.776V68.352C169.791 68.016 169.807 67.632 169.839 67.2C169.871 66.768 169.983 66.392 170.175 66.072C170.383 65.752 170.735 65.592 171.231 65.592C171.679 65.592 171.991 65.744 172.167 66.048C172.359 66.352 172.471 66.712 172.503 67.128C172.551 67.544 172.575 67.912 172.575 68.232C172.575 69.16 172.535 70.112 172.455 71.088C172.391 72.048 172.351 73.096 172.335 74.232H172.623C172.655 74.232 172.799 74.192 173.055 74.112C173.311 74.016 173.615 73.912 173.967 73.8C174.319 73.672 174.663 73.544 174.999 73.416C175.351 73.272 175.631 73.152 175.839 73.056C176.127 72.912 176.447 72.752 176.799 72.576C177.151 72.384 177.511 72.216 177.879 72.072C178.247 71.928 178.591 71.856 178.911 71.856C179.279 71.856 179.567 71.992 179.775 72.264C179.999 72.52 180.111 72.832 180.111 73.2C180.111 73.632 179.951 73.936 179.631 74.112C179.311 74.272 178.991 74.416 178.671 74.544C178.511 74.624 178.223 74.752 177.807 74.928C177.407 75.104 176.951 75.296 176.439 75.504C175.927 75.696 175.431 75.888 174.951 76.08C174.471 76.256 174.063 76.408 173.727 76.536V76.608L173.847 76.728C173.959 76.84 174.071 76.936 174.183 77.016C174.311 77.096 174.431 77.192 174.543 77.304C174.783 77.448 175.143 77.68 175.623 78C176.103 78.32 176.615 78.664 177.159 79.032C177.719 79.4 178.231 79.744 178.695 80.064C179.175 80.368 179.519 80.584 179.727 80.712C179.935 80.872 180.159 81.04 180.399 81.216C180.639 81.376 180.847 81.568 181.023 81.792C181.215 82 181.311 82.248 181.311 82.536C181.311 82.92 181.199 83.24 180.975 83.496C180.767 83.752 180.511 83.88 180.207 83.88C179.823 83.88 179.439 83.768 179.055 83.544C178.687 83.32 178.327 83.056 177.975 82.752C177.639 82.448 177.319 82.192 177.015 81.984C176.855 81.872 176.551 81.672 176.103 81.384C175.671 81.096 175.183 80.776 174.639 80.424C174.111 80.072 173.607 79.736 173.127 79.416C172.663 79.096 172.303 78.848 172.047 78.672H171.951L171.855 78.888L171.375 83.136C171.311 83.456 171.159 83.72 170.919 83.928C170.695 84.136 170.447 84.24 170.175 84.24ZM194.035 84.24C193.683 84.24 193.387 84.112 193.147 83.856C192.923 83.6 192.811 83.312 192.811 82.992V82.536L193.651 73.776V68.352C193.651 68.016 193.667 67.632 193.699 67.2C193.731 66.768 193.843 66.392 194.035 66.072C194.243 65.752 194.595 65.592 195.091 65.592C195.539 65.592 195.851 65.744 196.027 66.048C196.219 66.352 196.331 66.712 196.363 67.128C196.411 67.544 196.435 67.912 196.435 68.232C196.435 69.16 196.395 70.112 196.315 71.088C196.251 72.048 196.211 73.096 196.195 74.232H196.483C196.515 74.232 196.659 74.192 196.915 74.112C197.171 74.016 197.475 73.912 197.827 73.8C198.179 73.672 198.523 73.544 198.859 73.416C199.211 73.272 199.491 73.152 199.699 73.056C199.987 72.912 200.307 72.752 200.659 72.576C201.011 72.384 201.371 72.216 201.739 72.072C202.107 71.928 202.451 71.856 202.771 71.856C203.139 71.856 203.427 71.992 203.635 72.264C203.859 72.52 203.971 72.832 203.971 73.2C203.971 73.632 203.811 73.936 203.491 74.112C203.171 74.272 202.851 74.416 202.531 74.544C202.371 74.624 202.083 74.752 201.667 74.928C201.267 75.104 200.811 75.296 200.299 75.504C199.787 75.696 199.291 75.888 198.811 76.08C198.331 76.256 197.923 76.408 197.587 76.536V76.608L197.707 76.728C197.819 76.84 197.931 76.936 198.043 77.016C198.171 77.096 198.291 77.192 198.403 77.304C198.643 77.448 199.003 77.68 199.483 78C199.963 78.32 200.475 78.664 201.019 79.032C201.579 79.4 202.091 79.744 202.555 80.064C203.035 80.368 203.379 80.584 203.587 80.712C203.795 80.872 204.019 81.04 204.259 81.216C204.499 81.376 204.707 81.568 204.883 81.792C205.075 82 205.171 82.248 205.171 82.536C205.171 82.92 205.059 83.24 204.835 83.496C204.627 83.752 204.371 83.88 204.067 83.88C203.683 83.88 203.299 83.768 202.915 83.544C202.547 83.32 202.187 83.056 201.835 82.752C201.499 82.448 201.179 82.192 200.875 81.984C200.715 81.872 200.411 81.672 199.963 81.384C199.531 81.096 199.043 80.776 198.499 80.424C197.971 80.072 197.467 79.736 196.987 79.416C196.523 79.096 196.163 78.848 195.907 78.672H195.811L195.715 78.888L195.235 83.136C195.171 83.456 195.019 83.72 194.779 83.928C194.555 84.136 194.307 84.24 194.035 84.24ZM209.839 69.216C209.359 69.216 208.943 69.064 208.591 68.76C208.239 68.456 208.063 68.008 208.063 67.416C208.063 66.824 208.271 66.408 208.687 66.168C209.103 65.928 209.527 65.808 209.959 65.808C210.455 65.808 210.871 65.96 211.207 66.264C211.559 66.568 211.735 67.024 211.735 67.632C211.735 68.208 211.527 68.616 211.111 68.856C210.711 69.096 210.287 69.216 209.839 69.216ZM208.879 83.64C208.575 83.64 208.343 83.48 208.183 83.16C208.023 82.84 207.903 82.52 207.823 82.2V79.104C207.823 79.024 207.839 78.816 207.871 78.48C207.919 78.128 207.967 77.72 208.015 77.256C208.079 76.776 208.135 76.32 208.183 75.888C208.247 75.44 208.295 75.088 208.327 74.832C208.375 74.512 208.431 74.16 208.495 73.776C208.575 73.392 208.711 73.056 208.903 72.768C209.095 72.48 209.367 72.336 209.719 72.336C210.103 72.336 210.375 72.432 210.535 72.624C210.711 72.8 210.815 73.024 210.847 73.296C210.879 73.568 210.895 73.848 210.895 74.136V74.976C210.895 75.008 210.887 75.08 210.871 75.192C210.855 75.288 210.831 75.4 210.799 75.528C210.687 76.088 210.599 76.504 210.535 76.776C210.487 77.032 210.447 77.256 210.415 77.448C210.399 77.624 210.391 77.872 210.391 78.192C210.391 78.384 210.391 78.624 210.391 78.912C210.407 79.2 210.415 79.576 210.415 80.04C210.415 80.248 210.423 80.456 210.439 80.664C210.455 80.856 210.463 81.064 210.463 81.288C210.463 81.528 210.439 81.784 210.391 82.056C210.327 82.456 210.183 82.824 209.959 83.16C209.735 83.48 209.375 83.64 208.879 83.64ZM217.512 84.48C217.016 84.48 216.648 84.328 216.408 84.024C216.168 83.72 216.008 83.352 215.928 82.92C215.864 82.472 215.832 82.064 215.832 81.696V80.784C215.832 79.776 215.848 78.76 215.88 77.736C215.928 76.712 215.96 75.608 215.976 74.424C215.576 74.44 215.232 74.464 214.944 74.496C214.672 74.528 214.392 74.544 214.104 74.544C213.368 74.544 213 74.184 213 73.464C213 73.192 213.048 72.936 213.144 72.696C213.24 72.44 213.44 72.28 213.744 72.216L215.856 71.736C216.128 71.672 216.304 71.504 216.384 71.232C216.48 70.944 216.528 70.616 216.528 70.248C216.544 69.864 216.568 69.488 216.6 69.12C216.648 68.752 216.768 68.448 216.96 68.208C217.168 67.968 217.512 67.848 217.992 67.848C218.328 67.848 218.576 67.944 218.736 68.136C218.912 68.312 219.032 68.528 219.096 68.784C219.16 69.04 219.192 69.288 219.192 69.528C219.192 69.56 219.184 69.672 219.168 69.864C219.152 70.04 219.128 70.216 219.096 70.392C219.08 70.568 219.072 70.68 219.072 70.728V71.496H222C222.352 71.496 222.624 71.664 222.816 72C223.008 72.32 223.104 72.648 223.104 72.984C223.104 73.048 223.08 73.168 223.032 73.344C222.984 73.52 222.896 73.688 222.768 73.848C222.64 73.992 222.464 74.064 222.24 74.064H219.168C219.152 74.064 219.12 74.08 219.072 74.112C219.024 74.128 218.968 74.176 218.904 74.256L218.856 74.328C218.776 74.76 218.72 75.112 218.688 75.384C218.656 75.64 218.632 75.88 218.616 76.104C218.616 76.312 218.616 76.568 218.616 76.872C218.616 77.752 218.632 78.632 218.664 79.512C218.712 80.392 218.736 81.32 218.736 82.296C218.736 82.616 218.712 82.944 218.664 83.28C218.616 83.616 218.504 83.896 218.328 84.12C218.152 84.36 217.88 84.48 217.512 84.48ZM229.521 84.24C228.785 84.24 228.097 84.072 227.457 83.736C226.817 83.4 226.281 82.952 225.849 82.392C225.417 81.816 225.137 81.168 225.009 80.448V79.224C225.009 78.328 225.169 77.424 225.489 76.512C225.809 75.6 226.265 74.76 226.857 73.992C227.449 73.208 228.153 72.584 228.969 72.12C229.785 71.64 230.681 71.4 231.657 71.4C232.057 71.4 232.401 71.472 232.689 71.616C232.993 71.76 233.265 71.912 233.505 72.072C233.761 72.216 234.009 72.304 234.249 72.336C234.377 71.68 234.553 71.248 234.777 71.04C235.001 70.816 235.305 70.704 235.689 70.704C236.153 70.704 236.465 70.856 236.625 71.16C236.801 71.448 236.889 71.816 236.889 72.264C236.889 73.144 236.865 74.008 236.817 74.856C236.785 75.704 236.769 76.576 236.769 77.472C236.769 78.176 236.809 78.904 236.889 79.656C236.969 80.408 237.009 81.136 237.009 81.84V82.344C237.009 82.696 236.937 83.024 236.793 83.328C236.665 83.616 236.369 83.76 235.905 83.76C235.473 83.76 235.161 83.632 234.969 83.376C234.793 83.104 234.673 82.784 234.609 82.416C234.561 82.032 234.513 81.688 234.465 81.384L234.369 81.288C233.825 81.832 233.337 82.328 232.905 82.776C232.489 83.224 232.025 83.584 231.513 83.856C231.001 84.112 230.337 84.24 229.521 84.24ZM229.281 81.816C229.841 81.816 230.369 81.648 230.865 81.312C231.377 80.96 231.833 80.512 232.233 79.968C232.633 79.408 232.945 78.824 233.169 78.216C233.393 77.608 233.505 77.04 233.505 76.512C233.505 76.112 233.449 75.712 233.337 75.312C233.225 74.896 233.033 74.544 232.761 74.256C232.505 73.968 232.137 73.824 231.657 73.824C231.129 73.824 230.609 74.008 230.097 74.376C229.601 74.744 229.153 75.216 228.753 75.792C228.353 76.352 228.033 76.944 227.793 77.568C227.553 78.176 227.433 78.728 227.433 79.224C227.433 79.624 227.489 80.024 227.601 80.424C227.729 80.824 227.929 81.16 228.201 81.432C228.473 81.688 228.833 81.816 229.281 81.816ZM253.785 84.36C253.337 84.36 252.825 84.32 252.249 84.24C251.673 84.176 251.113 84.048 250.569 83.856C250.025 83.664 249.569 83.376 249.201 82.992C248.849 82.608 248.673 82.104 248.673 81.48C248.673 81.064 248.777 80.704 248.985 80.4C249.193 80.08 249.529 79.92 249.993 79.92C250.281 79.92 250.505 79.992 250.665 80.136C250.825 80.28 250.961 80.456 251.073 80.664C251.201 80.872 251.345 81.088 251.505 81.312C251.681 81.52 251.913 81.696 252.201 81.84C252.505 81.984 252.913 82.056 253.425 82.056C253.793 82.056 254.193 82.016 254.625 81.936C255.073 81.84 255.457 81.672 255.777 81.432C256.097 81.192 256.257 80.864 256.257 80.448C256.257 80.08 256.105 79.792 255.801 79.584C255.497 79.36 255.105 79.168 254.625 79.008C254.145 78.848 253.641 78.688 253.113 78.528C252.585 78.352 252.081 78.136 251.601 77.88C251.121 77.624 250.729 77.288 250.425 76.872C250.121 76.44 249.969 75.888 249.969 75.216C249.969 74.592 250.121 74.056 250.425 73.608C250.729 73.16 251.121 72.792 251.601 72.504C252.097 72.2 252.625 71.984 253.185 71.856C253.761 71.712 254.313 71.64 254.841 71.64C255.145 71.64 255.497 71.68 255.897 71.76C256.297 71.824 256.689 71.936 257.073 72.096C257.457 72.256 257.777 72.48 258.033 72.768C258.289 73.04 258.417 73.384 258.417 73.8C258.417 74.536 258.049 74.904 257.313 74.904H257.001C256.521 74.632 256.113 74.424 255.777 74.28C255.441 74.136 255.057 74.064 254.625 74.064C254.433 74.064 254.161 74.088 253.809 74.136C253.473 74.168 253.169 74.256 252.897 74.4C252.625 74.544 252.489 74.776 252.489 75.096C252.489 75.368 252.641 75.592 252.945 75.768C253.249 75.944 253.641 76.112 254.121 76.272C254.601 76.432 255.105 76.608 255.633 76.8C256.161 76.992 256.665 77.24 257.145 77.544C257.625 77.832 258.017 78.2 258.321 78.648C258.625 79.096 258.777 79.656 258.777 80.328C258.777 81.304 258.529 82.088 258.033 82.68C257.553 83.272 256.929 83.704 256.161 83.976C255.409 84.232 254.617 84.36 253.785 84.36ZM267.487 84.36C266.335 84.36 265.271 84.184 264.295 83.832C263.335 83.464 262.559 82.888 261.967 82.104C261.375 81.304 261.079 80.272 261.079 79.008C261.079 78.048 261.231 77.112 261.535 76.2C261.855 75.288 262.311 74.464 262.903 73.728C263.495 72.976 264.207 72.384 265.039 71.952C265.871 71.504 266.807 71.28 267.847 71.28C268.551 71.28 269.207 71.424 269.815 71.712C270.439 71.984 270.935 72.392 271.303 72.936C271.687 73.464 271.879 74.112 271.879 74.88C271.879 75.616 271.727 76.32 271.423 76.992C271.119 77.664 270.703 78.264 270.175 78.792C269.647 79.32 269.047 79.736 268.375 80.04C267.719 80.328 267.031 80.472 266.311 80.472C266.199 80.472 265.951 80.448 265.567 80.4C265.183 80.336 264.879 80.272 264.655 80.208C264.495 80.176 264.367 80.112 264.271 80.016C264.239 80 264.183 79.976 264.103 79.944C264.023 79.896 263.967 79.872 263.935 79.872C264.047 80.336 264.279 80.728 264.631 81.048C264.999 81.352 265.415 81.576 265.879 81.72C266.359 81.864 266.815 81.936 267.247 81.936C267.551 81.936 267.855 81.92 268.159 81.888C268.479 81.84 268.815 81.816 269.167 81.816C269.519 81.816 269.823 81.912 270.079 82.104C270.335 82.296 270.463 82.608 270.463 83.04C270.463 83.392 270.351 83.664 270.127 83.856C269.919 84.048 269.647 84.176 269.311 84.24C268.991 84.304 268.663 84.336 268.327 84.336C268.007 84.352 267.727 84.36 267.487 84.36ZM266.311 77.688C266.791 77.688 267.263 77.6 267.727 77.424C268.207 77.232 268.599 76.952 268.903 76.584C269.223 76.216 269.383 75.76 269.383 75.216C269.383 74.752 269.239 74.384 268.951 74.112C268.679 73.84 268.311 73.704 267.847 73.704C267.431 73.704 266.991 73.816 266.527 74.04C266.063 74.264 265.623 74.552 265.207 74.904C264.807 75.256 264.479 75.64 264.223 76.056C263.967 76.456 263.839 76.848 263.839 77.232V77.328C264.255 77.392 264.671 77.472 265.087 77.568C265.503 77.648 265.911 77.688 266.311 77.688ZM276.384 83.76C276.032 83.76 275.72 83.648 275.448 83.424C275.192 83.184 275.064 82.888 275.064 82.536C275.064 82.008 275.08 81.496 275.112 81C275.16 80.504 275.184 80 275.184 79.488V77.904C275.184 77.248 275.16 76.6 275.112 75.96C275.08 75.304 274.976 74.656 274.8 74.016C274.736 73.824 274.68 73.624 274.632 73.416C274.6 73.192 274.584 72.968 274.584 72.744C274.584 72.424 274.664 72.104 274.824 71.784C274.984 71.448 275.272 71.28 275.688 71.28C276.024 71.28 276.296 71.408 276.504 71.664C276.712 71.904 276.872 72.208 276.984 72.576C277.096 72.928 277.176 73.288 277.224 73.656C277.288 74.008 277.344 74.304 277.392 74.544C277.424 74.752 277.472 74.976 277.536 75.216C277.6 75.456 277.632 75.688 277.632 75.912C277.632 75.928 277.648 75.976 277.68 76.056C277.712 76.136 277.744 76.216 277.776 76.296C277.984 75.928 278.216 75.528 278.472 75.096C278.744 74.648 279.04 74.232 279.36 73.848C279.696 73.448 280.064 73.12 280.464 72.864C280.88 72.608 281.336 72.48 281.832 72.48C282.344 72.48 282.728 72.608 282.984 72.864C283.256 73.104 283.472 73.408 283.632 73.776C283.792 74.128 283.952 74.48 284.112 74.832C284.176 74.992 284.216 75.16 284.232 75.336C284.248 75.496 284.288 75.664 284.352 75.84L284.616 75.456C284.936 75.008 285.296 74.52 285.696 73.992C286.112 73.448 286.576 72.984 287.088 72.6C287.6 72.2 288.176 72 288.816 72C289.328 72 289.76 72.152 290.112 72.456C290.48 72.744 290.776 73.12 291 73.584C291.24 74.048 291.416 74.528 291.528 75.024C291.64 75.52 291.696 75.976 291.696 76.392V81.48C291.696 81.72 291.656 81.984 291.576 82.272C291.512 82.544 291.392 82.784 291.216 82.992C291.04 83.184 290.792 83.28 290.472 83.28C290.104 83.28 289.808 83.152 289.584 82.896C289.36 82.64 289.248 82.368 289.248 82.08V77.712C289.248 77.664 289.24 77.56 289.224 77.4C289.208 77.24 289.184 77.072 289.152 76.896C289.136 76.72 289.128 76.592 289.128 76.512C289.128 76.384 289.112 76.184 289.08 75.912C289.048 75.64 288.984 75.384 288.888 75.144C288.792 74.904 288.648 74.784 288.456 74.784H288.24C287.76 75.2 287.4 75.6 287.16 75.984C286.92 76.352 286.736 76.72 286.608 77.088C286.48 77.456 286.36 77.848 286.248 78.264C286.136 78.664 285.976 79.104 285.768 79.584C285.656 80 285.472 80.392 285.216 80.76C284.976 81.112 284.64 81.288 284.208 81.288C283.792 81.288 283.472 81.176 283.248 80.952C283.04 80.712 282.88 80.424 282.768 80.088C282.672 79.752 282.592 79.432 282.528 79.128C282.496 78.984 282.44 78.744 282.36 78.408C282.28 78.072 282.192 77.704 282.096 77.304C282.016 76.904 281.936 76.528 281.856 76.176C281.776 75.808 281.72 75.536 281.688 75.36C281.592 75.216 281.496 75.144 281.4 75.144C281.256 75.144 281.104 75.248 280.944 75.456C280.784 75.664 280.664 75.864 280.584 76.056C280.488 76.2 280.352 76.456 280.176 76.824C280 77.176 279.832 77.52 279.672 77.856C279.528 78.192 279.432 78.416 279.384 78.528C279.352 78.624 279.256 78.856 279.096 79.224C278.952 79.592 278.784 80.016 278.592 80.496C278.4 80.96 278.224 81.384 278.064 81.768C277.904 82.152 277.8 82.408 277.752 82.536C277.592 82.84 277.424 83.12 277.248 83.376C277.088 83.632 276.8 83.76 276.384 83.76ZM298.033 83.76C297.345 83.76 296.769 83.616 296.305 83.328C295.857 83.024 295.505 82.632 295.249 82.152C294.993 81.672 294.809 81.152 294.697 80.592C294.601 80.016 294.553 79.448 294.553 78.888V77.712C294.553 77.664 294.577 77.48 294.625 77.16C294.673 76.824 294.721 76.464 294.769 76.08C294.833 75.696 294.881 75.408 294.913 75.216C294.961 74.992 295.017 74.712 295.081 74.376C295.161 74.024 295.257 73.68 295.369 73.344C295.497 72.992 295.657 72.704 295.849 72.48C296.057 72.24 296.305 72.12 296.593 72.12C297.025 72.12 297.353 72.248 297.577 72.504C297.817 72.76 297.937 73.072 297.937 73.44C297.937 73.744 297.889 74.04 297.793 74.328C297.713 74.616 297.641 74.912 297.577 75.216C297.465 75.824 297.353 76.432 297.241 77.04C297.145 77.648 297.097 78.264 297.097 78.888C297.097 79.112 297.113 79.4 297.145 79.752C297.177 80.104 297.265 80.416 297.409 80.688C297.553 80.96 297.801 81.096 298.153 81.096C298.425 81.096 298.745 80.92 299.113 80.568C299.497 80.216 299.897 79.76 300.313 79.2C300.745 78.64 301.177 78.032 301.609 77.376C302.041 76.704 302.441 76.056 302.809 75.432C303.193 74.792 303.521 74.232 303.793 73.752C304.065 73.256 304.257 72.912 304.369 72.72C304.497 72.544 304.633 72.4 304.777 72.288C304.921 72.176 305.105 72.12 305.329 72.12C306.081 72.12 306.529 72.472 306.673 73.176V74.04C306.673 74.744 306.649 75.448 306.601 76.152C306.569 76.84 306.553 77.512 306.553 78.168V79.584C306.601 79.84 306.705 80.072 306.865 80.28C307.025 80.488 307.169 80.696 307.297 80.904C307.441 81.096 307.513 81.328 307.513 81.6C307.513 81.968 307.401 82.28 307.177 82.536C306.953 82.792 306.657 82.92 306.289 82.92C305.809 82.92 305.425 82.76 305.137 82.44C304.849 82.104 304.625 81.712 304.465 81.264C304.369 80.976 304.257 80.608 304.129 80.16C304.017 79.696 303.905 79.24 303.793 78.792C303.553 79.208 303.281 79.624 302.977 80.04C302.689 80.44 302.385 80.832 302.065 81.216C301.553 81.856 300.953 82.44 300.265 82.968C299.577 83.496 298.833 83.76 298.033 83.76ZM314.528 84.24C313.792 84.24 313.104 84.072 312.464 83.736C311.824 83.4 311.288 82.952 310.856 82.392C310.424 81.816 310.144 81.168 310.016 80.448V79.224C310.016 78.328 310.176 77.424 310.496 76.512C310.816 75.6 311.272 74.76 311.864 73.992C312.456 73.208 313.16 72.584 313.976 72.12C314.792 71.64 315.688 71.4 316.664 71.4C317.064 71.4 317.408 71.472 317.696 71.616C318 71.76 318.272 71.912 318.512 72.072C318.768 72.216 319.016 72.304 319.256 72.336C319.384 71.68 319.56 71.248 319.784 71.04C320.008 70.816 320.312 70.704 320.696 70.704C321.16 70.704 321.472 70.856 321.632 71.16C321.808 71.448 321.896 71.816 321.896 72.264C321.896 73.144 321.872 74.008 321.824 74.856C321.792 75.704 321.776 76.576 321.776 77.472C321.776 78.176 321.816 78.904 321.896 79.656C321.976 80.408 322.016 81.136 322.016 81.84V82.344C322.016 82.696 321.944 83.024 321.8 83.328C321.672 83.616 321.376 83.76 320.912 83.76C320.48 83.76 320.168 83.632 319.976 83.376C319.8 83.104 319.68 82.784 319.616 82.416C319.568 82.032 319.52 81.688 319.472 81.384L319.376 81.288C318.832 81.832 318.344 82.328 317.912 82.776C317.496 83.224 317.032 83.584 316.52 83.856C316.008 84.112 315.344 84.24 314.528 84.24ZM314.288 81.816C314.848 81.816 315.376 81.648 315.872 81.312C316.384 80.96 316.84 80.512 317.24 79.968C317.64 79.408 317.952 78.824 318.176 78.216C318.4 77.608 318.512 77.04 318.512 76.512C318.512 76.112 318.456 75.712 318.344 75.312C318.232 74.896 318.04 74.544 317.768 74.256C317.512 73.968 317.144 73.824 316.664 73.824C316.136 73.824 315.616 74.008 315.104 74.376C314.608 74.744 314.16 75.216 313.76 75.792C313.36 76.352 313.04 76.944 312.8 77.568C312.56 78.176 312.44 78.728 312.44 79.224C312.44 79.624 312.496 80.024 312.608 80.424C312.736 80.824 312.936 81.16 313.208 81.432C313.48 81.688 313.84 81.816 314.288 81.816Z" fill="white"/>
<path d="M86.7397 108.64H89.6437L89.6197 110.176C90.0357 109.552 90.4917 109.104 90.9877 108.832C91.4997 108.544 92.0677 108.4 92.6917 108.4C93.6037 108.4 94.3477 108.584 94.9237 108.952C95.5157 109.304 95.9637 109.872 96.2677 110.656H96.2917C96.7077 109.92 97.2197 109.36 97.8277 108.976C98.4357 108.592 99.1637 108.4 100.012 108.4C100.572 108.4 101.108 108.48 101.62 108.64C102.148 108.8 102.62 109.064 103.036 109.432C103.452 109.8 103.78 110.304 104.02 110.944C104.276 111.584 104.404 112.392 104.404 113.368V121H101.5V113.536C101.5 112.544 101.332 111.824 100.996 111.376C100.66 110.928 100.1 110.704 99.3157 110.704C98.5157 110.704 97.9317 110.96 97.5637 111.472C97.1957 111.984 97.0117 112.792 97.0117 113.896V121H94.1077V113.536C94.1077 112.88 94.0357 112.344 93.8917 111.928C93.7637 111.512 93.5477 111.208 93.2437 111.016C92.9397 110.808 92.5317 110.704 92.0197 110.704C91.1717 110.704 90.5557 110.96 90.1717 111.472C89.8037 111.984 89.6197 112.792 89.6197 113.896L89.6437 121H86.7397V108.64ZM118.995 121H117.291C116.587 121 116.043 120.76 115.659 120.28C115.275 119.8 115.067 119.16 115.035 118.36L115.611 118.408C115.323 119.256 114.843 119.944 114.171 120.472C113.499 120.984 112.603 121.24 111.483 121.24C110.587 121.24 109.795 121.104 109.107 120.832C108.435 120.56 107.907 120.144 107.523 119.584C107.155 119.008 106.971 118.288 106.971 117.424C106.971 116.656 107.115 116.024 107.403 115.528C107.707 115.016 108.107 114.616 108.603 114.328C109.099 114.04 109.643 113.84 110.235 113.728C110.827 113.6 111.419 113.536 112.011 113.536H115.059V112.72C115.059 112 114.875 111.472 114.507 111.136C114.155 110.784 113.571 110.608 112.755 110.608C111.939 110.608 111.355 110.752 111.003 111.04C110.651 111.312 110.427 111.744 110.331 112.336H107.427C107.491 111.488 107.763 110.776 108.243 110.2C108.739 109.608 109.379 109.16 110.163 108.856C110.963 108.552 111.851 108.4 112.827 108.4C113.371 108.4 113.931 108.464 114.507 108.592C115.099 108.704 115.651 108.928 116.163 109.264C116.675 109.6 117.091 110.064 117.411 110.656C117.731 111.232 117.891 111.984 117.891 112.912V118.672H118.995V121ZM109.779 117.328C109.779 117.904 109.947 118.328 110.283 118.6C110.619 118.872 111.139 119.008 111.843 119.008C112.851 119.008 113.635 118.768 114.195 118.288C114.771 117.808 115.059 117.168 115.059 116.368V115.552H112.035C111.267 115.552 110.699 115.704 110.331 116.008C109.963 116.312 109.779 116.752 109.779 117.328ZM124.167 121H121.263V108.64H124.167L124.143 110.2C124.511 109.608 124.959 109.16 125.487 108.856C126.015 108.552 126.687 108.4 127.503 108.4C128.879 108.4 129.983 108.784 130.815 109.552C131.647 110.304 132.063 111.576 132.063 113.368V121H129.159V113.392C129.159 112.432 128.959 111.752 128.559 111.352C128.175 110.936 127.599 110.728 126.831 110.728C126.255 110.728 125.767 110.832 125.367 111.04C124.967 111.248 124.663 111.576 124.455 112.024C124.263 112.456 124.167 113.024 124.167 113.728V121ZM143.867 103.768H146.771V121H143.867V103.768ZM139.931 121.24C138.347 121.24 137.067 120.704 136.091 119.632C135.131 118.544 134.651 116.944 134.651 114.832C134.651 113.344 134.883 112.128 135.347 111.184C135.811 110.224 136.443 109.52 137.243 109.072C138.043 108.624 138.939 108.4 139.931 108.4C141.131 108.4 142.099 108.688 142.835 109.264C143.571 109.824 144.099 110.592 144.419 111.568C144.755 112.528 144.923 113.616 144.923 114.832C144.923 116.048 144.755 117.144 144.419 118.12C144.099 119.08 143.571 119.84 142.835 120.4C142.099 120.96 141.131 121.24 139.931 121.24ZM140.771 118.936C141.827 118.936 142.603 118.592 143.099 117.904C143.611 117.2 143.867 116.176 143.867 114.832C143.867 113.472 143.611 112.448 143.099 111.76C142.603 111.056 141.827 110.704 140.771 110.704C139.667 110.704 138.851 111.056 138.323 111.76C137.811 112.448 137.555 113.472 137.555 114.832C137.555 116.176 137.811 117.2 138.323 117.904C138.851 118.592 139.667 118.936 140.771 118.936ZM158.032 108.64H160.936V121H158.032L158.056 119.44C157.688 120.016 157.24 120.464 156.712 120.784C156.184 121.088 155.512 121.24 154.696 121.24C153.32 121.24 152.216 120.856 151.384 120.088C150.552 119.32 150.136 118.04 150.136 116.248V108.64H153.04V116.248C153.04 117.192 153.232 117.872 153.616 118.288C154 118.704 154.576 118.912 155.344 118.912C155.952 118.912 156.448 118.808 156.832 118.6C157.232 118.392 157.528 118.072 157.72 117.64C157.928 117.192 158.032 116.616 158.032 115.912V108.64ZM164.365 108.64H167.269L167.245 110.176C167.661 109.552 168.117 109.104 168.613 108.832C169.125 108.544 169.693 108.4 170.317 108.4C171.229 108.4 171.973 108.584 172.549 108.952C173.141 109.304 173.589 109.872 173.893 110.656H173.917C174.333 109.92 174.845 109.36 175.453 108.976C176.061 108.592 176.789 108.4 177.637 108.4C178.197 108.4 178.733 108.48 179.245 108.64C179.773 108.8 180.245 109.064 180.661 109.432C181.077 109.8 181.405 110.304 181.645 110.944C181.901 111.584 182.029 112.392 182.029 113.368V121H179.125V113.536C179.125 112.544 178.957 111.824 178.621 111.376C178.285 110.928 177.725 110.704 176.941 110.704C176.141 110.704 175.557 110.96 175.189 111.472C174.821 111.984 174.637 112.792 174.637 113.896V121H171.733V113.536C171.733 112.88 171.661 112.344 171.517 111.928C171.389 111.512 171.173 111.208 170.869 111.016C170.565 110.808 170.157 110.704 169.645 110.704C168.797 110.704 168.181 110.96 167.797 111.472C167.429 111.984 167.245 112.792 167.245 113.896L167.269 121H164.365V108.64ZM188.269 121H185.365V108.64H188.269L188.245 110.464C188.597 109.84 189.029 109.384 189.541 109.096C190.053 108.792 190.693 108.64 191.461 108.64H192.421V110.968H190.885C190.005 110.968 189.349 111.2 188.917 111.664C188.485 112.128 188.269 112.872 188.269 113.896V121ZM196.917 108.64V121H194.013V108.64H196.917ZM193.917 103.768H196.989V106.816H193.917V103.768ZM200.248 108.64H203.152L203.128 110.176C203.544 109.552 204 109.104 204.496 108.832C205.008 108.544 205.576 108.4 206.2 108.4C207.112 108.4 207.856 108.584 208.432 108.952C209.024 109.304 209.472 109.872 209.776 110.656H209.8C210.216 109.92 210.728 109.36 211.336 108.976C211.944 108.592 212.672 108.4 213.52 108.4C214.08 108.4 214.616 108.48 215.128 108.64C215.656 108.8 216.128 109.064 216.544 109.432C216.96 109.8 217.288 110.304 217.528 110.944C217.784 111.584 217.912 112.392 217.912 113.368V121H215.008V113.536C215.008 112.544 214.84 111.824 214.504 111.376C214.168 110.928 213.608 110.704 212.824 110.704C212.024 110.704 211.44 110.96 211.072 111.472C210.704 111.984 210.52 112.792 210.52 113.896V121H207.616V113.536C207.616 112.88 207.544 112.344 207.4 111.928C207.272 111.512 207.056 111.208 206.752 111.016C206.448 110.808 206.04 110.704 205.528 110.704C204.68 110.704 204.064 110.96 203.68 111.472C203.312 111.984 203.128 112.792 203.128 113.896L203.152 121H200.248V108.64ZM224.152 103.768V121H221.248V103.768H224.152ZM228.088 121.24C226.888 121.24 225.92 120.96 225.184 120.4C224.448 119.84 223.912 119.08 223.576 118.12C223.256 117.144 223.096 116.048 223.096 114.832C223.096 113.616 223.256 112.528 223.576 111.568C223.912 110.592 224.448 109.824 225.184 109.264C225.92 108.688 226.888 108.4 228.088 108.4C229.08 108.4 229.976 108.624 230.776 109.072C231.576 109.52 232.208 110.224 232.672 111.184C233.136 112.128 233.368 113.344 233.368 114.832C233.368 116.944 232.888 118.544 231.928 119.632C230.968 120.704 229.688 121.24 228.088 121.24ZM227.248 118.936C228.352 118.936 229.16 118.592 229.672 117.904C230.2 117.2 230.464 116.176 230.464 114.832C230.464 113.472 230.2 112.448 229.672 111.76C229.16 111.056 228.352 110.704 227.248 110.704C226.192 110.704 225.408 111.056 224.896 111.76C224.4 112.448 224.152 113.472 224.152 114.832C224.152 116.176 224.4 117.2 224.896 117.904C225.408 118.592 226.192 118.936 227.248 118.936ZM247.245 121H245.541C244.837 121 244.293 120.76 243.909 120.28C243.525 119.8 243.317 119.16 243.285 118.36L243.861 118.408C243.573 119.256 243.093 119.944 242.421 120.472C241.749 120.984 240.853 121.24 239.733 121.24C238.837 121.24 238.045 121.104 237.357 120.832C236.685 120.56 236.157 120.144 235.773 119.584C235.405 119.008 235.221 118.288 235.221 117.424C235.221 116.656 235.365 116.024 235.653 115.528C235.957 115.016 236.357 114.616 236.853 114.328C237.349 114.04 237.893 113.84 238.485 113.728C239.077 113.6 239.669 113.536 240.261 113.536H243.309V112.72C243.309 112 243.125 111.472 242.757 111.136C242.405 110.784 241.821 110.608 241.005 110.608C240.189 110.608 239.605 110.752 239.253 111.04C238.901 111.312 238.677 111.744 238.581 112.336H235.677C235.741 111.488 236.013 110.776 236.493 110.2C236.989 109.608 237.629 109.16 238.413 108.856C239.213 108.552 240.101 108.4 241.077 108.4C241.621 108.4 242.181 108.464 242.757 108.592C243.349 108.704 243.901 108.928 244.413 109.264C244.925 109.6 245.341 110.064 245.661 110.656C245.981 111.232 246.141 111.984 246.141 112.912V118.672H247.245V121ZM238.029 117.328C238.029 117.904 238.197 118.328 238.533 118.6C238.869 118.872 239.389 119.008 240.093 119.008C241.101 119.008 241.885 118.768 242.445 118.288C243.021 117.808 243.309 117.168 243.309 116.368V115.552H240.285C239.517 115.552 238.949 115.704 238.581 116.008C238.213 116.312 238.029 116.752 238.029 117.328ZM249.585 117.736H252.873V121H249.585V117.736ZM261.731 121.24C259.843 121.24 258.355 120.688 257.267 119.584C256.179 118.48 255.635 116.896 255.635 114.832C255.635 112.768 256.179 111.184 257.267 110.08C258.371 108.96 259.859 108.4 261.731 108.4C262.995 108.4 264.083 108.648 264.995 109.144C265.907 109.64 266.611 110.368 267.107 111.328C267.619 112.272 267.875 113.44 267.875 114.832C267.875 116.896 267.323 118.48 266.219 119.584C265.115 120.688 263.619 121.24 261.731 121.24ZM261.755 118.912C262.859 118.912 263.667 118.568 264.179 117.88C264.707 117.192 264.971 116.176 264.971 114.832C264.971 113.488 264.707 112.472 264.179 111.784C263.667 111.08 262.859 110.728 261.755 110.728C260.651 110.728 259.835 111.08 259.307 111.784C258.795 112.472 258.539 113.488 258.539 114.832C258.539 116.176 258.795 117.192 259.307 117.88C259.835 118.568 260.651 118.912 261.755 118.912ZM273.441 121H270.537V108.64H273.441L273.417 110.464C273.769 109.84 274.201 109.384 274.713 109.096C275.225 108.792 275.865 108.64 276.633 108.64H277.593V110.968H276.057C275.177 110.968 274.521 111.2 274.089 111.664C273.657 112.128 273.441 112.872 273.441 113.896V121ZM283.415 120.784C281.831 120.784 280.551 120.256 279.575 119.2C278.615 118.128 278.135 116.6 278.135 114.616C278.135 113.192 278.367 112.024 278.831 111.112C279.295 110.2 279.927 109.52 280.727 109.072C281.527 108.624 282.423 108.4 283.415 108.4C284.615 108.4 285.575 108.68 286.295 109.24C287.031 109.8 287.567 110.552 287.903 111.496C288.239 112.424 288.407 113.464 288.407 114.616C288.407 115.752 288.239 116.792 287.903 117.736C287.567 118.664 287.031 119.408 286.295 119.968C285.575 120.512 284.615 120.784 283.415 120.784ZM284.255 118.48C285.311 118.48 286.095 118.144 286.607 117.472C287.119 116.8 287.375 115.84 287.375 114.592C287.375 113.344 287.119 112.384 286.607 111.712C286.095 111.04 285.311 110.704 284.255 110.704C283.151 110.704 282.335 111.04 281.807 111.712C281.295 112.384 281.039 113.344 281.039 114.592C281.039 115.84 281.295 116.8 281.807 117.472C282.335 118.144 283.151 118.48 284.255 118.48ZM287.423 108.64H290.279V120.544H287.375V111.136L287.423 110.968V108.64ZM290.279 120.304C290.327 122.256 289.887 123.736 288.959 124.744C288.047 125.768 286.599 126.28 284.615 126.28C283.271 126.28 282.191 126.112 281.375 125.776C280.559 125.44 279.959 124.968 279.575 124.36C279.191 123.752 278.975 123.04 278.927 122.224H281.879C281.927 122.608 282.023 122.928 282.167 123.184C282.311 123.456 282.567 123.648 282.935 123.76C283.319 123.888 283.879 123.952 284.615 123.952C285.383 123.952 285.967 123.824 286.367 123.568C286.767 123.328 287.039 122.944 287.183 122.416C287.327 121.888 287.391 121.184 287.375 120.304H290.279Z" fill="white"/>
</svg>
