<svg width="253" height="72" viewBox="0 0 253 72" fill="none" xmlns="http://www.w3.org/2000/svg">
<path d="M14.0097 64.12C13.8657 64.12 13.7577 64.072 13.6857 63.976C13.6137 63.88 13.5657 63.768 13.5417 63.64C13.5177 63.504 13.4937 63.384 13.4697 63.28V62.392C13.4697 61.944 13.4897 61.492 13.5297 61.036C13.5697 60.572 13.5897 60.12 13.5897 59.68C13.5897 59.472 13.5697 59.272 13.5297 59.08C13.4897 58.888 13.4697 58.692 13.4697 58.492V58.168C13.5337 58.048 13.6177 57.96 13.7217 57.904C13.8337 57.848 13.9497 57.82 14.0697 57.82C14.2457 57.82 14.3777 57.872 14.4657 57.976C14.5537 58.072 14.6137 58.188 14.6457 58.324C14.6857 58.46 14.7217 58.584 14.7537 58.696C14.7857 58.8 14.8377 58.86 14.9097 58.876C15.1417 58.724 15.3617 58.576 15.5697 58.432C15.7857 58.288 16.0097 58.172 16.2417 58.084C16.4817 57.988 16.7457 57.94 17.0337 57.94C17.1777 57.94 17.3297 57.972 17.4897 58.036C17.6577 58.1 17.8017 58.192 17.9217 58.312C18.0417 58.424 18.1017 58.564 18.1017 58.732C18.1017 58.94 18.0177 59.092 17.8497 59.188C17.6897 59.284 17.5377 59.332 17.3937 59.332C17.2977 59.332 17.2057 59.312 17.1177 59.272C17.0297 59.232 16.9377 59.212 16.8417 59.212C16.5617 59.212 16.2977 59.284 16.0497 59.428C15.8097 59.564 15.5977 59.728 15.4137 59.92C15.2297 60.112 15.0817 60.292 14.9697 60.46C14.9377 60.532 14.9137 60.652 14.8977 60.82C14.8817 60.988 14.8697 61.18 14.8617 61.396C14.8537 61.604 14.8457 61.808 14.8377 62.008C14.8377 62.208 14.8337 62.38 14.8257 62.524C14.8177 62.788 14.7897 63.044 14.7417 63.292C14.7017 63.532 14.6257 63.732 14.5137 63.892C14.4017 64.044 14.2337 64.12 14.0097 64.12ZM20.481 64.12C20.113 64.12 19.769 64.036 19.449 63.868C19.129 63.7 18.861 63.476 18.645 63.196C18.429 62.908 18.289 62.584 18.225 62.224V61.612C18.225 61.164 18.305 60.712 18.465 60.256C18.625 59.8 18.853 59.38 19.149 58.996C19.445 58.604 19.797 58.292 20.205 58.06C20.613 57.82 21.061 57.7 21.549 57.7C21.749 57.7 21.921 57.736 22.065 57.808C22.217 57.88 22.353 57.956 22.473 58.036C22.601 58.108 22.725 58.152 22.845 58.168C22.909 57.84 22.997 57.624 23.109 57.52C23.221 57.408 23.373 57.352 23.565 57.352C23.797 57.352 23.953 57.428 24.033 57.58C24.121 57.724 24.165 57.908 24.165 58.132C24.165 58.572 24.153 59.004 24.129 59.428C24.113 59.852 24.105 60.288 24.105 60.736C24.105 61.088 24.125 61.452 24.165 61.828C24.205 62.204 24.225 62.568 24.225 62.92V63.172C24.225 63.348 24.189 63.512 24.117 63.664C24.053 63.808 23.905 63.88 23.673 63.88C23.457 63.88 23.301 63.816 23.205 63.688C23.117 63.552 23.057 63.392 23.025 63.208C23.001 63.016 22.977 62.844 22.953 62.692L22.905 62.644C22.633 62.916 22.389 63.164 22.173 63.388C21.965 63.612 21.733 63.792 21.477 63.928C21.221 64.056 20.889 64.12 20.481 64.12ZM20.361 62.908C20.641 62.908 20.905 62.824 21.153 62.656C21.409 62.48 21.637 62.256 21.837 61.984C22.037 61.704 22.193 61.412 22.305 61.108C22.417 60.804 22.473 60.52 22.473 60.256C22.473 60.056 22.445 59.856 22.389 59.656C22.333 59.448 22.237 59.272 22.101 59.128C21.973 58.984 21.789 58.912 21.549 58.912C21.285 58.912 21.025 59.004 20.769 59.188C20.521 59.372 20.297 59.608 20.097 59.896C19.897 60.176 19.737 60.472 19.617 60.784C19.497 61.088 19.437 61.364 19.437 61.612C19.437 61.812 19.465 62.012 19.521 62.212C19.585 62.412 19.685 62.58 19.821 62.716C19.957 62.844 20.137 62.908 20.361 62.908ZM27.7335 64.06C27.4375 64.06 27.1775 63.952 26.9535 63.736C26.7295 63.512 26.5375 63.236 26.3775 62.908C26.2255 62.58 26.1015 62.252 26.0055 61.924C25.9175 61.588 25.8575 61.308 25.8255 61.084C25.8175 60.996 25.8015 60.872 25.7775 60.712C25.7615 60.544 25.7415 60.376 25.7175 60.208C25.6935 60.032 25.6735 59.876 25.6575 59.74C25.6495 59.604 25.6455 59.524 25.6455 59.5V59.14C25.6455 58.972 25.6575 58.8 25.6815 58.624C25.7055 58.448 25.7655 58.3 25.8615 58.18C25.9655 58.06 26.1375 58 26.3775 58C26.5135 58 26.6375 58.036 26.7495 58.108C26.8695 58.18 26.9295 58.288 26.9295 58.432C26.9295 58.928 26.9415 59.396 26.9655 59.836C26.9895 60.268 27.0495 60.692 27.1455 61.108C27.2415 61.524 27.4015 61.964 27.6255 62.428H27.7215C27.8815 62.044 28.0255 61.656 28.1535 61.264C28.2815 60.864 28.4135 60.468 28.5495 60.076C28.6055 59.916 28.6855 59.756 28.7895 59.596C28.9015 59.428 29.0375 59.288 29.1975 59.176C29.3655 59.064 29.5495 59.008 29.7495 59.008C29.9575 59.008 30.1415 59.076 30.3015 59.212C30.4695 59.348 30.6175 59.524 30.7455 59.74C30.8735 59.956 30.9855 60.184 31.0815 60.424C31.1775 60.664 31.2615 60.888 31.3335 61.096C31.4055 61.304 31.4695 61.472 31.5255 61.6H31.5375C31.5535 61.632 31.5695 61.672 31.5855 61.72C31.6095 61.76 31.6335 61.8 31.6575 61.84C31.8095 61.4 31.9615 60.96 32.1135 60.52C32.2735 60.08 32.4375 59.648 32.6055 59.224C32.6535 59.096 32.7295 58.944 32.8335 58.768C32.9455 58.584 33.0695 58.42 33.2055 58.276C33.3495 58.132 33.4975 58.06 33.6495 58.06C33.8095 58.06 33.9415 58.116 34.0455 58.228C34.1495 58.332 34.2015 58.46 34.2015 58.612C34.2015 58.684 34.1975 58.752 34.1895 58.816C34.1895 58.88 34.1735 58.948 34.1415 59.02C34.0855 59.172 34.0135 59.388 33.9255 59.668C33.8455 59.94 33.7495 60.244 33.6375 60.58C33.5255 60.908 33.4015 61.244 33.2655 61.588C33.1295 61.924 32.9775 62.236 32.8095 62.524C32.6495 62.804 32.4735 63.032 32.2815 63.208C32.0975 63.376 31.9015 63.46 31.6935 63.46C31.4615 63.46 31.2455 63.368 31.0455 63.184C30.8535 62.992 30.6775 62.76 30.5175 62.488C30.3655 62.208 30.2335 61.932 30.1215 61.66C30.0095 61.38 29.9175 61.156 29.8455 60.988C29.8375 60.972 29.8295 60.956 29.8215 60.94C29.8135 60.916 29.8015 60.892 29.7855 60.868H29.7615L29.7135 60.928C29.6735 61.056 29.6175 61.244 29.5455 61.492C29.4735 61.74 29.3815 62.012 29.2695 62.308C29.1655 62.596 29.0415 62.876 28.8975 63.148C28.7535 63.412 28.5855 63.632 28.3935 63.808C28.2015 63.976 27.9815 64.06 27.7335 64.06ZM37.6607 64.12C37.2927 64.12 36.9487 64.036 36.6287 63.868C36.3087 63.7 36.0407 63.476 35.8247 63.196C35.6087 62.908 35.4687 62.584 35.4047 62.224V61.612C35.4047 61.164 35.4847 60.712 35.6447 60.256C35.8047 59.8 36.0327 59.38 36.3287 58.996C36.6247 58.604 36.9767 58.292 37.3847 58.06C37.7927 57.82 38.2407 57.7 38.7287 57.7C38.9287 57.7 39.1007 57.736 39.2447 57.808C39.3967 57.88 39.5327 57.956 39.6527 58.036C39.7807 58.108 39.9047 58.152 40.0247 58.168C40.0887 57.84 40.1767 57.624 40.2887 57.52C40.4007 57.408 40.5527 57.352 40.7447 57.352C40.9767 57.352 41.1327 57.428 41.2127 57.58C41.3007 57.724 41.3447 57.908 41.3447 58.132C41.3447 58.572 41.3327 59.004 41.3087 59.428C41.2927 59.852 41.2847 60.288 41.2847 60.736C41.2847 61.088 41.3047 61.452 41.3447 61.828C41.3847 62.204 41.4047 62.568 41.4047 62.92V63.172C41.4047 63.348 41.3687 63.512 41.2967 63.664C41.2327 63.808 41.0847 63.88 40.8527 63.88C40.6367 63.88 40.4807 63.816 40.3847 63.688C40.2967 63.552 40.2367 63.392 40.2047 63.208C40.1807 63.016 40.1567 62.844 40.1327 62.692L40.0847 62.644C39.8127 62.916 39.5687 63.164 39.3527 63.388C39.1447 63.612 38.9127 63.792 38.6567 63.928C38.4007 64.056 38.0687 64.12 37.6607 64.12ZM37.5407 62.908C37.8207 62.908 38.0847 62.824 38.3327 62.656C38.5887 62.48 38.8167 62.256 39.0167 61.984C39.2167 61.704 39.3727 61.412 39.4847 61.108C39.5967 60.804 39.6527 60.52 39.6527 60.256C39.6527 60.056 39.6247 59.856 39.5687 59.656C39.5127 59.448 39.4167 59.272 39.2807 59.128C39.1527 58.984 38.9687 58.912 38.7287 58.912C38.4647 58.912 38.2047 59.004 37.9487 59.188C37.7007 59.372 37.4767 59.608 37.2767 59.896C37.0767 60.176 36.9167 60.472 36.7967 60.784C36.6767 61.088 36.6167 61.364 36.6167 61.612C36.6167 61.812 36.6447 62.012 36.7007 62.212C36.7647 62.412 36.8647 62.58 37.0007 62.716C37.1367 62.844 37.3167 62.908 37.5407 62.908ZM44.7932 64.24C44.5452 64.24 44.3612 64.164 44.2412 64.012C44.1212 63.86 44.0412 63.676 44.0012 63.46C43.9692 63.236 43.9532 63.032 43.9532 62.848V62.392C43.9532 61.888 43.9612 61.38 43.9772 60.868C44.0012 60.356 44.0172 59.804 44.0252 59.212C43.8252 59.22 43.6532 59.232 43.5092 59.248C43.3732 59.264 43.2332 59.272 43.0892 59.272C42.7212 59.272 42.5372 59.092 42.5372 58.732C42.5372 58.596 42.5612 58.468 42.6092 58.348C42.6572 58.22 42.7572 58.14 42.9092 58.108L43.9652 57.868C44.1012 57.836 44.1892 57.752 44.2292 57.616C44.2772 57.472 44.3012 57.308 44.3012 57.124C44.3092 56.932 44.3212 56.744 44.3372 56.56C44.3612 56.376 44.4212 56.224 44.5172 56.104C44.6212 55.984 44.7932 55.924 45.0332 55.924C45.2012 55.924 45.3252 55.972 45.4052 56.068C45.4932 56.156 45.5532 56.264 45.5852 56.392C45.6172 56.52 45.6332 56.644 45.6332 56.764C45.6332 56.78 45.6292 56.836 45.6212 56.932C45.6132 57.02 45.6012 57.108 45.5852 57.196C45.5772 57.284 45.5732 57.34 45.5732 57.364V57.748H47.0372C47.2132 57.748 47.3492 57.832 47.4452 58C47.5412 58.16 47.5892 58.324 47.5892 58.492C47.5892 58.524 47.5772 58.584 47.5532 58.672C47.5292 58.76 47.4852 58.844 47.4212 58.924C47.3572 58.996 47.2692 59.032 47.1572 59.032H45.6212C45.6132 59.032 45.5972 59.04 45.5732 59.056C45.5492 59.064 45.5212 59.088 45.4892 59.128L45.4652 59.164C45.4252 59.38 45.3972 59.556 45.3812 59.692C45.3652 59.82 45.3532 59.94 45.3452 60.052C45.3452 60.156 45.3452 60.284 45.3452 60.436C45.3452 60.876 45.3532 61.316 45.3692 61.756C45.3932 62.196 45.4052 62.66 45.4052 63.148C45.4052 63.308 45.3932 63.472 45.3692 63.64C45.3452 63.808 45.2892 63.948 45.2012 64.06C45.1132 64.18 44.9772 64.24 44.7932 64.24ZM55.6169 64.18C55.3929 64.18 55.1369 64.16 54.8489 64.12C54.5609 64.088 54.2809 64.024 54.0089 63.928C53.7369 63.832 53.5089 63.688 53.3249 63.496C53.1489 63.304 53.0609 63.052 53.0609 62.74C53.0609 62.532 53.1129 62.352 53.2169 62.2C53.3209 62.04 53.4889 61.96 53.7209 61.96C53.8649 61.96 53.9769 61.996 54.0569 62.068C54.1369 62.14 54.2049 62.228 54.2609 62.332C54.3249 62.436 54.3969 62.544 54.4769 62.656C54.5649 62.76 54.6809 62.848 54.8249 62.92C54.9769 62.992 55.1809 63.028 55.4369 63.028C55.6209 63.028 55.8209 63.008 56.0369 62.968C56.2609 62.92 56.4529 62.836 56.6129 62.716C56.7729 62.596 56.8529 62.432 56.8529 62.224C56.8529 62.04 56.7769 61.896 56.6249 61.792C56.4729 61.68 56.2769 61.584 56.0369 61.504C55.7969 61.424 55.5449 61.344 55.2809 61.264C55.0169 61.176 54.7649 61.068 54.5249 60.94C54.2849 60.812 54.0889 60.644 53.9369 60.436C53.7849 60.22 53.7089 59.944 53.7089 59.608C53.7089 59.296 53.7849 59.028 53.9369 58.804C54.0889 58.58 54.2849 58.396 54.5249 58.252C54.7729 58.1 55.0369 57.992 55.3169 57.928C55.6049 57.856 55.8809 57.82 56.1449 57.82C56.2969 57.82 56.4729 57.84 56.6729 57.88C56.8729 57.912 57.0689 57.968 57.2609 58.048C57.4529 58.128 57.6129 58.24 57.7409 58.384C57.8689 58.52 57.9329 58.692 57.9329 58.9C57.9329 59.268 57.7489 59.452 57.3809 59.452H57.2249C56.9849 59.316 56.7809 59.212 56.6129 59.14C56.4449 59.068 56.2529 59.032 56.0369 59.032C55.9409 59.032 55.8049 59.044 55.6289 59.068C55.4609 59.084 55.3089 59.128 55.1729 59.2C55.0369 59.272 54.9689 59.388 54.9689 59.548C54.9689 59.684 55.0449 59.796 55.1969 59.884C55.3489 59.972 55.5449 60.056 55.7849 60.136C56.0249 60.216 56.2769 60.304 56.5409 60.4C56.8049 60.496 57.0569 60.62 57.2969 60.772C57.5369 60.916 57.7329 61.1 57.8849 61.324C58.0369 61.548 58.1129 61.828 58.1129 62.164C58.1129 62.652 57.9889 63.044 57.7409 63.34C57.5009 63.636 57.1889 63.852 56.8049 63.988C56.4289 64.116 56.0329 64.18 55.6169 64.18ZM61.5201 64.12C61.1521 64.12 60.8081 64.036 60.4881 63.868C60.1681 63.7 59.9001 63.476 59.6841 63.196C59.4681 62.908 59.3281 62.584 59.2641 62.224V61.612C59.2641 61.164 59.3441 60.712 59.5041 60.256C59.6641 59.8 59.8921 59.38 60.1881 58.996C60.4841 58.604 60.8361 58.292 61.2441 58.06C61.6521 57.82 62.1001 57.7 62.5881 57.7C62.7881 57.7 62.9601 57.736 63.1041 57.808C63.2561 57.88 63.3921 57.956 63.5121 58.036C63.6401 58.108 63.7641 58.152 63.8841 58.168C63.9481 57.84 64.0361 57.624 64.1481 57.52C64.2601 57.408 64.4121 57.352 64.6041 57.352C64.8361 57.352 64.9921 57.428 65.0721 57.58C65.1601 57.724 65.2041 57.908 65.2041 58.132C65.2041 58.572 65.1921 59.004 65.1681 59.428C65.1521 59.852 65.1441 60.288 65.1441 60.736C65.1441 61.088 65.1641 61.452 65.2041 61.828C65.2441 62.204 65.2641 62.568 65.2641 62.92V63.172C65.2641 63.348 65.2281 63.512 65.1561 63.664C65.0921 63.808 64.9441 63.88 64.7121 63.88C64.4961 63.88 64.3401 63.816 64.2441 63.688C64.1561 63.552 64.0961 63.392 64.0641 63.208C64.0401 63.016 64.0161 62.844 63.9921 62.692L63.9441 62.644C63.6721 62.916 63.4281 63.164 63.2121 63.388C63.0041 63.612 62.7721 63.792 62.5161 63.928C62.2601 64.056 61.9281 64.12 61.5201 64.12ZM61.4001 62.908C61.6801 62.908 61.9441 62.824 62.1921 62.656C62.4481 62.48 62.6761 62.256 62.8761 61.984C63.0761 61.704 63.2321 61.412 63.3441 61.108C63.4561 60.804 63.5121 60.52 63.5121 60.256C63.5121 60.056 63.4841 59.856 63.4281 59.656C63.3721 59.448 63.2761 59.272 63.1401 59.128C63.0121 58.984 62.8281 58.912 62.5881 58.912C62.3241 58.912 62.0641 59.004 61.8081 59.188C61.5601 59.372 61.3361 59.608 61.1361 59.896C60.9361 60.176 60.7761 60.472 60.6561 60.784C60.5361 61.088 60.4761 61.364 60.4761 61.612C60.4761 61.812 60.5041 62.012 60.5601 62.212C60.6241 62.412 60.7241 62.58 60.8601 62.716C60.9961 62.844 61.1761 62.908 61.4001 62.908ZM68.6526 64.24C68.4046 64.24 68.2206 64.164 68.1006 64.012C67.9806 63.86 67.9006 63.676 67.8606 63.46C67.8286 63.236 67.8126 63.032 67.8126 62.848V62.392C67.8126 61.888 67.8206 61.38 67.8366 60.868C67.8606 60.356 67.8766 59.804 67.8846 59.212C67.6846 59.22 67.5126 59.232 67.3686 59.248C67.2326 59.264 67.0926 59.272 66.9486 59.272C66.5806 59.272 66.3966 59.092 66.3966 58.732C66.3966 58.596 66.4206 58.468 66.4686 58.348C66.5166 58.22 66.6166 58.14 66.7686 58.108L67.8246 57.868C67.9606 57.836 68.0486 57.752 68.0886 57.616C68.1366 57.472 68.1606 57.308 68.1606 57.124C68.1686 56.932 68.1806 56.744 68.1966 56.56C68.2206 56.376 68.2806 56.224 68.3766 56.104C68.4806 55.984 68.6526 55.924 68.8926 55.924C69.0606 55.924 69.1846 55.972 69.2646 56.068C69.3526 56.156 69.4126 56.264 69.4446 56.392C69.4766 56.52 69.4926 56.644 69.4926 56.764C69.4926 56.78 69.4886 56.836 69.4806 56.932C69.4726 57.02 69.4606 57.108 69.4446 57.196C69.4366 57.284 69.4326 57.34 69.4326 57.364V57.748H70.8966C71.0726 57.748 71.2086 57.832 71.3046 58C71.4006 58.16 71.4486 58.324 71.4486 58.492C71.4486 58.524 71.4366 58.584 71.4126 58.672C71.3886 58.76 71.3446 58.844 71.2806 58.924C71.2166 58.996 71.1286 59.032 71.0166 59.032H69.4806C69.4726 59.032 69.4566 59.04 69.4326 59.056C69.4086 59.064 69.3806 59.088 69.3486 59.128L69.3246 59.164C69.2846 59.38 69.2566 59.556 69.2406 59.692C69.2246 59.82 69.2126 59.94 69.2046 60.052C69.2046 60.156 69.2046 60.284 69.2046 60.436C69.2046 60.876 69.2126 61.316 69.2286 61.756C69.2526 62.196 69.2646 62.66 69.2646 63.148C69.2646 63.308 69.2526 63.472 69.2286 63.64C69.2046 63.808 69.1486 63.948 69.0606 64.06C68.9726 64.18 68.8366 64.24 68.6526 64.24ZM74.5968 64.06C74.3008 64.06 74.0408 63.952 73.8168 63.736C73.5928 63.512 73.4008 63.236 73.2408 62.908C73.0888 62.58 72.9648 62.252 72.8688 61.924C72.7808 61.588 72.7208 61.308 72.6888 61.084C72.6808 60.996 72.6648 60.872 72.6408 60.712C72.6248 60.544 72.6048 60.376 72.5808 60.208C72.5568 60.032 72.5368 59.876 72.5208 59.74C72.5128 59.604 72.5088 59.524 72.5088 59.5V59.14C72.5088 58.972 72.5208 58.8 72.5448 58.624C72.5688 58.448 72.6288 58.3 72.7248 58.18C72.8288 58.06 73.0008 58 73.2408 58C73.3768 58 73.5008 58.036 73.6128 58.108C73.7328 58.18 73.7928 58.288 73.7928 58.432C73.7928 58.928 73.8048 59.396 73.8288 59.836C73.8528 60.268 73.9128 60.692 74.0088 61.108C74.1048 61.524 74.2648 61.964 74.4888 62.428H74.5848C74.7448 62.044 74.8888 61.656 75.0168 61.264C75.1448 60.864 75.2768 60.468 75.4128 60.076C75.4688 59.916 75.5488 59.756 75.6528 59.596C75.7648 59.428 75.9008 59.288 76.0608 59.176C76.2288 59.064 76.4128 59.008 76.6128 59.008C76.8208 59.008 77.0048 59.076 77.1648 59.212C77.3328 59.348 77.4808 59.524 77.6088 59.74C77.7368 59.956 77.8488 60.184 77.9448 60.424C78.0408 60.664 78.1248 60.888 78.1968 61.096C78.2688 61.304 78.3328 61.472 78.3888 61.6H78.4008C78.4168 61.632 78.4328 61.672 78.4488 61.72C78.4728 61.76 78.4968 61.8 78.5208 61.84C78.6728 61.4 78.8248 60.96 78.9768 60.52C79.1368 60.08 79.3008 59.648 79.4688 59.224C79.5168 59.096 79.5928 58.944 79.6968 58.768C79.8088 58.584 79.9328 58.42 80.0688 58.276C80.2128 58.132 80.3608 58.06 80.5128 58.06C80.6728 58.06 80.8048 58.116 80.9088 58.228C81.0128 58.332 81.0648 58.46 81.0648 58.612C81.0648 58.684 81.0608 58.752 81.0528 58.816C81.0528 58.88 81.0368 58.948 81.0048 59.02C80.9488 59.172 80.8768 59.388 80.7888 59.668C80.7088 59.94 80.6128 60.244 80.5008 60.58C80.3888 60.908 80.2648 61.244 80.1288 61.588C79.9928 61.924 79.8408 62.236 79.6728 62.524C79.5128 62.804 79.3368 63.032 79.1448 63.208C78.9608 63.376 78.7648 63.46 78.5568 63.46C78.3248 63.46 78.1088 63.368 77.9088 63.184C77.7168 62.992 77.5408 62.76 77.3808 62.488C77.2288 62.208 77.0968 61.932 76.9848 61.66C76.8728 61.38 76.7808 61.156 76.7088 60.988C76.7008 60.972 76.6928 60.956 76.6848 60.94C76.6768 60.916 76.6648 60.892 76.6488 60.868H76.6248L76.5768 60.928C76.5368 61.056 76.4808 61.244 76.4088 61.492C76.3368 61.74 76.2448 62.012 76.1328 62.308C76.0288 62.596 75.9048 62.876 75.7608 63.148C75.6168 63.412 75.4488 63.632 75.2568 63.808C75.0648 63.976 74.8448 64.06 74.5968 64.06ZM84.524 64.12C84.156 64.12 83.812 64.036 83.492 63.868C83.172 63.7 82.904 63.476 82.688 63.196C82.472 62.908 82.332 62.584 82.268 62.224V61.612C82.268 61.164 82.348 60.712 82.508 60.256C82.668 59.8 82.896 59.38 83.192 58.996C83.488 58.604 83.84 58.292 84.248 58.06C84.656 57.82 85.104 57.7 85.592 57.7C85.792 57.7 85.964 57.736 86.108 57.808C86.26 57.88 86.396 57.956 86.516 58.036C86.644 58.108 86.768 58.152 86.888 58.168C86.952 57.84 87.04 57.624 87.152 57.52C87.264 57.408 87.416 57.352 87.608 57.352C87.84 57.352 87.996 57.428 88.076 57.58C88.164 57.724 88.208 57.908 88.208 58.132C88.208 58.572 88.196 59.004 88.172 59.428C88.156 59.852 88.148 60.288 88.148 60.736C88.148 61.088 88.168 61.452 88.208 61.828C88.248 62.204 88.268 62.568 88.268 62.92V63.172C88.268 63.348 88.232 63.512 88.16 63.664C88.096 63.808 87.948 63.88 87.716 63.88C87.5 63.88 87.344 63.816 87.248 63.688C87.16 63.552 87.1 63.392 87.068 63.208C87.044 63.016 87.02 62.844 86.996 62.692L86.948 62.644C86.676 62.916 86.432 63.164 86.216 63.388C86.008 63.612 85.776 63.792 85.52 63.928C85.264 64.056 84.932 64.12 84.524 64.12ZM84.404 62.908C84.684 62.908 84.948 62.824 85.196 62.656C85.452 62.48 85.68 62.256 85.88 61.984C86.08 61.704 86.236 61.412 86.348 61.108C86.46 60.804 86.516 60.52 86.516 60.256C86.516 60.056 86.488 59.856 86.432 59.656C86.376 59.448 86.28 59.272 86.144 59.128C86.016 58.984 85.832 58.912 85.592 58.912C85.328 58.912 85.068 59.004 84.812 59.188C84.564 59.372 84.34 59.608 84.14 59.896C83.94 60.176 83.78 60.472 83.66 60.784C83.54 61.088 83.48 61.364 83.48 61.612C83.48 61.812 83.508 62.012 83.564 62.212C83.628 62.412 83.728 62.58 83.864 62.716C84 62.844 84.18 62.908 84.404 62.908ZM90.5285 63.76C90.3285 63.76 90.1805 63.704 90.0845 63.592C89.9885 63.472 89.9285 63.328 89.9045 63.16C89.8805 62.984 89.8685 62.816 89.8685 62.656C89.8685 62.288 89.8765 61.92 89.8925 61.552C89.9165 61.184 89.9285 60.832 89.9285 60.496C89.9285 60.136 89.8885 59.792 89.8085 59.464C89.7285 59.136 89.6885 58.808 89.6885 58.48V58.012C89.7605 57.844 89.8365 57.732 89.9165 57.676C89.9965 57.612 90.1045 57.58 90.2405 57.58C90.4885 57.58 90.6685 57.66 90.7805 57.82C90.8925 57.972 90.9645 58.156 90.9965 58.372C91.0365 58.58 91.0645 58.772 91.0805 58.948C91.0885 59.036 91.1045 59.208 91.1285 59.464C91.1605 59.72 91.1805 59.96 91.1885 60.184H91.2365L91.2845 60.136C91.4365 59.912 91.5965 59.672 91.7645 59.416C91.9325 59.16 92.1165 58.92 92.3165 58.696C92.5245 58.472 92.7525 58.292 93.0005 58.156C93.2485 58.012 93.5285 57.94 93.8405 57.94C94.2405 57.94 94.5805 58.056 94.8605 58.288C95.1405 58.512 95.3765 58.808 95.5685 59.176C95.7605 59.536 95.9165 59.928 96.0365 60.352C96.1565 60.776 96.2525 61.188 96.3245 61.588C96.3965 61.988 96.4605 62.332 96.5165 62.62V62.92C96.5165 63.096 96.4685 63.272 96.3725 63.448C96.2765 63.616 96.1245 63.7 95.9165 63.7C95.7005 63.7 95.5405 63.644 95.4365 63.532C95.3405 63.42 95.2765 63.276 95.2445 63.1C95.2285 63.028 95.2085 62.912 95.1845 62.752C95.1605 62.584 95.1325 62.404 95.1005 62.212C95.0685 62.012 95.0405 61.828 95.0165 61.66C94.9925 61.484 94.9725 61.356 94.9565 61.276C94.9325 61.116 94.8765 60.928 94.7885 60.712C94.7085 60.488 94.6325 60.296 94.5605 60.136C94.4885 59.968 94.3965 59.792 94.2845 59.608C94.1725 59.424 94.0085 59.332 93.7925 59.332C93.6005 59.332 93.4245 59.4 93.2645 59.536C93.1125 59.672 92.9765 59.832 92.8565 60.016C92.7445 60.2 92.6445 60.364 92.5565 60.508C92.3565 60.828 92.1765 61.148 92.0165 61.468C91.8565 61.788 91.6845 62.136 91.5005 62.512C91.4285 62.664 91.3605 62.84 91.2965 63.04C91.2325 63.232 91.1445 63.4 91.0325 63.544C90.9205 63.688 90.7525 63.76 90.5285 63.76ZM99.5144 67.144C99.3704 67.144 99.2624 67.072 99.1904 66.928C99.1184 66.792 99.0824 66.656 99.0824 66.52C99.0824 66.264 99.1384 66.02 99.2504 65.788C99.3624 65.564 99.4624 65.336 99.5504 65.104C99.5904 65 99.6384 64.864 99.6944 64.696C99.7584 64.536 99.8184 64.372 99.8744 64.204C99.9384 64.036 99.9904 63.892 100.03 63.772C100.07 63.652 100.09 63.584 100.09 63.568V63.532C99.6504 63.5 99.2824 63.384 98.9864 63.184C98.6904 62.984 98.4544 62.732 98.2784 62.428C98.1024 62.124 97.9704 61.792 97.8824 61.432C97.7944 61.064 97.7344 60.692 97.7024 60.316C97.6784 59.94 97.6664 59.588 97.6664 59.26C97.6664 59.156 97.6704 59.02 97.6784 58.852C97.6864 58.676 97.7064 58.5 97.7384 58.324C97.7784 58.148 97.8384 58 97.9184 57.88C98.0064 57.76 98.1264 57.7 98.2784 57.7C98.5744 57.7 98.7664 57.808 98.8544 58.024C98.9504 58.24 98.9984 58.476 98.9984 58.732C98.9984 58.908 98.9864 59.072 98.9624 59.224C98.9464 59.376 98.9384 59.544 98.9384 59.728V59.848C98.9384 59.904 98.9504 60.024 98.9744 60.208C98.9984 60.392 99.0224 60.58 99.0464 60.772C99.0784 60.964 99.1024 61.108 99.1184 61.204C99.1584 61.468 99.2384 61.7 99.3584 61.9C99.4784 62.092 99.6464 62.188 99.8624 62.188C100.118 62.188 100.342 62.088 100.534 61.888C100.734 61.688 100.91 61.428 101.062 61.108C101.222 60.788 101.374 60.452 101.518 60.1C101.662 59.74 101.806 59.4 101.95 59.08C102.094 58.76 102.25 58.5 102.418 58.3C102.594 58.1 102.79 58 103.006 58C103.366 58 103.546 58.2 103.546 58.6C103.546 58.872 103.502 59.132 103.414 59.38C103.334 59.628 103.23 59.868 103.102 60.1C102.982 60.332 102.854 60.56 102.718 60.784C102.582 61.008 102.462 61.236 102.358 61.468C102.038 62.148 101.742 62.848 101.47 63.568C101.206 64.28 100.95 64.996 100.702 65.716C100.638 65.9 100.558 66.104 100.462 66.328C100.366 66.552 100.242 66.744 100.09 66.904C99.9464 67.064 99.7544 67.144 99.5144 67.144ZM106.872 64.12C106.504 64.12 106.16 64.036 105.84 63.868C105.52 63.7 105.252 63.476 105.036 63.196C104.82 62.908 104.68 62.584 104.616 62.224V61.612C104.616 61.164 104.696 60.712 104.856 60.256C105.016 59.8 105.244 59.38 105.54 58.996C105.836 58.604 106.188 58.292 106.596 58.06C107.004 57.82 107.452 57.7 107.94 57.7C108.14 57.7 108.312 57.736 108.456 57.808C108.608 57.88 108.744 57.956 108.864 58.036C108.992 58.108 109.116 58.152 109.236 58.168C109.3 57.84 109.388 57.624 109.5 57.52C109.612 57.408 109.764 57.352 109.956 57.352C110.188 57.352 110.344 57.428 110.424 57.58C110.512 57.724 110.556 57.908 110.556 58.132C110.556 58.572 110.544 59.004 110.52 59.428C110.504 59.852 110.496 60.288 110.496 60.736C110.496 61.088 110.516 61.452 110.556 61.828C110.596 62.204 110.616 62.568 110.616 62.92V63.172C110.616 63.348 110.58 63.512 110.508 63.664C110.444 63.808 110.296 63.88 110.064 63.88C109.848 63.88 109.692 63.816 109.596 63.688C109.508 63.552 109.448 63.392 109.416 63.208C109.392 63.016 109.368 62.844 109.344 62.692L109.296 62.644C109.024 62.916 108.78 63.164 108.564 63.388C108.356 63.612 108.124 63.792 107.868 63.928C107.612 64.056 107.28 64.12 106.872 64.12ZM106.752 62.908C107.032 62.908 107.296 62.824 107.544 62.656C107.8 62.48 108.028 62.256 108.228 61.984C108.428 61.704 108.584 61.412 108.696 61.108C108.808 60.804 108.864 60.52 108.864 60.256C108.864 60.056 108.836 59.856 108.78 59.656C108.724 59.448 108.628 59.272 108.492 59.128C108.364 58.984 108.18 58.912 107.94 58.912C107.676 58.912 107.416 59.004 107.16 59.188C106.912 59.372 106.688 59.608 106.488 59.896C106.288 60.176 106.128 60.472 106.008 60.784C105.888 61.088 105.828 61.364 105.828 61.612C105.828 61.812 105.856 62.012 105.912 62.212C105.976 62.412 106.076 62.58 106.212 62.716C106.348 62.844 106.528 62.908 106.752 62.908ZM111.976 65.356C111.864 65.356 111.768 65.316 111.688 65.236C111.608 65.164 111.568 65.064 111.568 64.936C111.568 64.848 111.596 64.764 111.652 64.684C111.708 64.612 111.76 64.54 111.808 64.468C111.96 64.308 112.108 64.148 112.252 63.988C112.404 63.828 112.532 63.652 112.636 63.46C112.7 63.34 112.772 63.212 112.852 63.076C112.94 62.932 113.04 62.808 113.152 62.704C113.264 62.6 113.392 62.548 113.536 62.548C113.672 62.548 113.784 62.6 113.872 62.704C113.96 62.8 114.004 62.928 114.004 63.088C114.004 63.264 113.928 63.48 113.776 63.736C113.632 63.992 113.448 64.244 113.224 64.492C113.008 64.74 112.784 64.944 112.552 65.104C112.328 65.272 112.136 65.356 111.976 65.356ZM120.888 63.94C120.664 63.94 120.496 63.864 120.384 63.712C120.28 63.552 120.228 63.368 120.228 63.16C120.228 62.68 120.256 62.192 120.312 61.696C120.376 61.2 120.408 60.72 120.408 60.256C120.408 59.456 120.376 58.676 120.312 57.916C120.256 57.156 120.228 56.376 120.228 55.576V55.264C120.284 55.136 120.36 55.048 120.456 55C120.56 54.944 120.668 54.916 120.78 54.916C120.964 54.916 121.112 54.98 121.224 55.108C121.344 55.236 121.436 55.392 121.5 55.576C121.564 55.76 121.608 55.944 121.632 56.128C121.664 56.312 121.68 56.464 121.68 56.584V60.568L121.752 60.64L121.764 60.628C121.98 60.412 122.184 60.168 122.376 59.896C122.576 59.624 122.78 59.364 122.988 59.116C123.204 58.86 123.44 58.648 123.696 58.48C123.96 58.312 124.264 58.228 124.608 58.228C124.912 58.228 125.172 58.308 125.388 58.468C125.612 58.628 125.788 58.836 125.916 59.092C126.044 59.348 126.128 59.616 126.168 59.896L126.528 62.44V62.8C126.528 62.928 126.52 63.064 126.504 63.208C126.488 63.344 126.44 63.46 126.36 63.556C126.288 63.652 126.16 63.7 125.976 63.7C125.768 63.7 125.604 63.62 125.484 63.46C125.372 63.292 125.292 63.088 125.244 62.848C125.196 62.608 125.164 62.372 125.148 62.14C125.132 61.908 125.116 61.724 125.1 61.588C125.092 61.532 125.08 61.428 125.064 61.276C125.056 61.124 125.04 60.948 125.016 60.748C124.992 60.548 124.96 60.356 124.92 60.172C124.88 59.98 124.828 59.824 124.764 59.704C124.708 59.576 124.636 59.512 124.548 59.512C124.412 59.512 124.276 59.568 124.14 59.68C124.004 59.792 123.892 59.908 123.804 60.028C123.388 60.572 122.988 61.148 122.604 61.756C122.228 62.356 121.852 62.944 121.476 63.52C121.412 63.624 121.332 63.72 121.236 63.808C121.14 63.896 121.024 63.94 120.888 63.94ZM128.929 56.608C128.689 56.608 128.481 56.532 128.305 56.38C128.129 56.228 128.041 56.004 128.041 55.708C128.041 55.412 128.145 55.204 128.353 55.084C128.561 54.964 128.773 54.904 128.989 54.904C129.237 54.904 129.445 54.98 129.613 55.132C129.789 55.284 129.877 55.512 129.877 55.816C129.877 56.104 129.773 56.308 129.565 56.428C129.365 56.548 129.153 56.608 128.929 56.608ZM128.449 63.82C128.297 63.82 128.181 63.74 128.101 63.58C128.021 63.42 127.961 63.26 127.921 63.1V61.552C127.921 61.512 127.929 61.408 127.945 61.24C127.969 61.064 127.993 60.86 128.017 60.628C128.049 60.388 128.077 60.16 128.101 59.944C128.133 59.72 128.157 59.544 128.173 59.416C128.197 59.256 128.225 59.08 128.257 58.888C128.297 58.696 128.365 58.528 128.461 58.384C128.557 58.24 128.693 58.168 128.869 58.168C129.061 58.168 129.197 58.216 129.277 58.312C129.365 58.4 129.417 58.512 129.433 58.648C129.449 58.784 129.457 58.924 129.457 59.068V59.488C129.457 59.504 129.453 59.54 129.445 59.596C129.437 59.644 129.425 59.7 129.409 59.764C129.353 60.044 129.309 60.252 129.277 60.388C129.253 60.516 129.233 60.628 129.217 60.724C129.209 60.812 129.205 60.936 129.205 61.096C129.205 61.192 129.205 61.312 129.205 61.456C129.213 61.6 129.217 61.788 129.217 62.02C129.217 62.124 129.221 62.228 129.229 62.332C129.237 62.428 129.241 62.532 129.241 62.644C129.241 62.764 129.229 62.892 129.205 63.028C129.173 63.228 129.101 63.412 128.989 63.58C128.877 63.74 128.697 63.82 128.449 63.82ZM132.25 64.18C131.85 64.076 131.514 63.9 131.242 63.652C130.978 63.396 130.778 63.096 130.642 62.752C130.514 62.408 130.45 62.048 130.45 61.672C130.45 61.152 130.562 60.652 130.786 60.172C131.01 59.684 131.31 59.252 131.686 58.876C132.07 58.492 132.502 58.188 132.982 57.964C133.47 57.74 133.974 57.628 134.494 57.628C134.678 57.628 134.854 57.656 135.022 57.712C135.198 57.76 135.374 57.788 135.55 57.796L135.598 57.64C135.606 57.496 135.618 57.316 135.634 57.1C135.65 56.884 135.67 56.66 135.694 56.428C135.726 56.188 135.758 55.96 135.79 55.744C135.83 55.528 135.874 55.356 135.922 55.228C135.986 55.044 136.078 54.888 136.198 54.76C136.318 54.624 136.478 54.556 136.678 54.556C136.878 54.556 137.006 54.62 137.062 54.748C137.126 54.876 137.158 55.036 137.158 55.228V55.528C137.046 56.448 136.958 57.356 136.894 58.252C136.838 59.14 136.81 60.028 136.81 60.916C136.81 61.324 136.83 61.724 136.87 62.116C136.91 62.5 136.93 62.904 136.93 63.328C136.93 63.48 136.906 63.632 136.858 63.784C136.818 63.928 136.698 64 136.498 64C136.29 64 136.13 63.944 136.018 63.832C135.906 63.712 135.826 63.564 135.778 63.388C135.73 63.212 135.69 63.044 135.658 62.884C135.642 62.764 135.626 62.704 135.61 62.704H135.562C135.146 63.16 134.718 63.52 134.278 63.784C133.846 64.048 133.346 64.18 132.778 64.18H132.25ZM132.706 62.956C133.018 62.956 133.318 62.872 133.606 62.704C133.894 62.536 134.15 62.316 134.374 62.044C134.606 61.772 134.786 61.48 134.914 61.168C135.05 60.848 135.118 60.544 135.118 60.256C135.118 60.184 135.102 60.076 135.07 59.932C135.038 59.788 134.998 59.636 134.95 59.476C134.902 59.316 134.85 59.184 134.794 59.08C134.746 58.968 134.702 58.912 134.662 58.912C134.278 58.912 133.914 58.992 133.57 59.152C133.226 59.304 132.918 59.512 132.646 59.776C132.382 60.04 132.17 60.34 132.01 60.676C131.858 61.012 131.782 61.364 131.782 61.732V62.212C131.846 62.444 131.954 62.628 132.106 62.764C132.258 62.892 132.458 62.956 132.706 62.956ZM140.331 63.88C139.987 63.88 139.699 63.808 139.467 63.664C139.243 63.512 139.067 63.316 138.939 63.076C138.811 62.836 138.719 62.576 138.663 62.296C138.615 62.008 138.591 61.724 138.591 61.444V60.856C138.591 60.832 138.603 60.74 138.627 60.58C138.651 60.412 138.675 60.232 138.699 60.04C138.731 59.848 138.755 59.704 138.771 59.608C138.795 59.496 138.823 59.356 138.855 59.188C138.895 59.012 138.943 58.84 138.999 58.672C139.063 58.496 139.143 58.352 139.239 58.24C139.343 58.12 139.467 58.06 139.611 58.06C139.827 58.06 139.991 58.124 140.103 58.252C140.223 58.38 140.283 58.536 140.283 58.72C140.283 58.872 140.259 59.02 140.211 59.164C140.171 59.308 140.135 59.456 140.103 59.608C140.047 59.912 139.991 60.216 139.935 60.52C139.887 60.824 139.863 61.132 139.863 61.444C139.863 61.556 139.871 61.7 139.887 61.876C139.903 62.052 139.947 62.208 140.019 62.344C140.091 62.48 140.215 62.548 140.391 62.548C140.527 62.548 140.687 62.46 140.871 62.284C141.063 62.108 141.263 61.88 141.471 61.6C141.687 61.32 141.903 61.016 142.119 60.688C142.335 60.352 142.535 60.028 142.719 59.716C142.911 59.396 143.075 59.116 143.211 58.876C143.347 58.628 143.443 58.456 143.499 58.36C143.563 58.272 143.631 58.2 143.703 58.144C143.775 58.088 143.867 58.06 143.979 58.06C144.355 58.06 144.579 58.236 144.651 58.588V59.02C144.651 59.372 144.639 59.724 144.615 60.076C144.599 60.42 144.591 60.756 144.591 61.084V61.792C144.615 61.92 144.667 62.036 144.747 62.14C144.827 62.244 144.899 62.348 144.963 62.452C145.035 62.548 145.071 62.664 145.071 62.8C145.071 62.984 145.015 63.14 144.903 63.268C144.791 63.396 144.643 63.46 144.459 63.46C144.219 63.46 144.027 63.38 143.883 63.22C143.739 63.052 143.627 62.856 143.547 62.632C143.499 62.488 143.443 62.304 143.379 62.08C143.323 61.848 143.267 61.62 143.211 61.396C143.091 61.604 142.955 61.812 142.803 62.02C142.659 62.22 142.507 62.416 142.347 62.608C142.091 62.928 141.791 63.22 141.447 63.484C141.103 63.748 140.731 63.88 140.331 63.88ZM147.151 67.384C147.023 67.384 146.919 67.348 146.839 67.276C146.759 67.204 146.683 67.096 146.611 66.952V66.124C146.611 65.348 146.659 64.584 146.755 63.832C146.859 63.08 146.911 62.304 146.911 61.504V60.22C146.855 60.132 146.787 60.064 146.707 60.016C146.635 59.968 146.571 59.912 146.515 59.848C146.459 59.784 146.431 59.688 146.431 59.56C146.431 59.408 146.451 59.288 146.491 59.2C146.539 59.112 146.659 58.968 146.851 58.768V57.544C146.851 57.416 146.923 57.312 147.067 57.232C147.219 57.152 147.347 57.112 147.451 57.112C147.587 57.112 147.691 57.152 147.763 57.232C147.835 57.304 147.891 57.392 147.931 57.496C147.971 57.6 148.007 57.692 148.039 57.772C148.071 57.844 148.115 57.88 148.171 57.88C148.251 57.88 148.335 57.856 148.423 57.808C148.519 57.76 148.607 57.724 148.687 57.7C148.751 57.676 148.835 57.652 148.939 57.628C149.043 57.596 149.143 57.572 149.239 57.556C149.335 57.532 149.391 57.52 149.407 57.52H149.935C150.431 57.52 150.895 57.608 151.327 57.784C151.759 57.952 152.111 58.212 152.383 58.564C152.655 58.916 152.791 59.364 152.791 59.908C152.791 60.388 152.695 60.868 152.503 61.348C152.311 61.82 152.047 62.256 151.711 62.656C151.375 63.048 150.987 63.364 150.547 63.604C150.115 63.836 149.655 63.952 149.167 63.952C149.015 63.952 148.859 63.932 148.699 63.892C148.547 63.852 148.391 63.832 148.231 63.832H148.123C148.115 64.032 148.099 64.256 148.075 64.504C148.059 64.76 148.043 64.992 148.027 65.2C148.011 65.408 148.003 65.556 148.003 65.644C148.003 65.676 147.999 65.704 147.991 65.728L147.979 65.8C147.963 65.912 147.943 66.024 147.919 66.136C147.903 66.256 147.891 66.372 147.883 66.484C147.859 66.604 147.819 66.732 147.763 66.868C147.715 67.012 147.639 67.132 147.535 67.228C147.439 67.332 147.311 67.384 147.151 67.384ZM149.107 62.668C149.435 62.668 149.743 62.588 150.031 62.428C150.319 62.26 150.575 62.044 150.799 61.78C151.023 61.508 151.199 61.216 151.327 60.904C151.455 60.584 151.519 60.272 151.519 59.968C151.519 59.536 151.367 59.224 151.063 59.032C150.767 58.84 150.411 58.744 149.995 58.744C149.843 58.744 149.699 58.752 149.563 58.768C149.427 58.776 149.299 58.808 149.179 58.864C148.739 59.056 148.459 59.272 148.339 59.512C148.219 59.744 148.159 60.016 148.159 60.328C148.159 60.456 148.163 60.596 148.171 60.748C148.179 60.892 148.183 61.044 148.183 61.204V62.152C148.183 62.288 148.235 62.396 148.339 62.476C148.443 62.548 148.567 62.6 148.711 62.632C148.863 62.656 148.995 62.668 149.107 62.668ZM154.472 64.12C154.296 64.12 154.148 64.056 154.028 63.928C153.916 63.8 153.86 63.656 153.86 63.496V63.268L154.28 58.888V56.176C154.28 56.008 154.288 55.816 154.304 55.6C154.32 55.384 154.376 55.196 154.472 55.036C154.576 54.876 154.752 54.796 155 54.796C155.224 54.796 155.38 54.872 155.468 55.024C155.564 55.176 155.62 55.356 155.636 55.564C155.66 55.772 155.672 55.956 155.672 56.116C155.672 56.58 155.652 57.056 155.612 57.544C155.58 58.024 155.56 58.548 155.552 59.116H155.696C155.712 59.116 155.784 59.096 155.912 59.056C156.04 59.008 156.192 58.956 156.368 58.9C156.544 58.836 156.716 58.772 156.884 58.708C157.06 58.636 157.2 58.576 157.304 58.528C157.448 58.456 157.608 58.376 157.784 58.288C157.96 58.192 158.14 58.108 158.324 58.036C158.508 57.964 158.68 57.928 158.84 57.928C159.024 57.928 159.168 57.996 159.272 58.132C159.384 58.26 159.44 58.416 159.44 58.6C159.44 58.816 159.36 58.968 159.2 59.056C159.04 59.136 158.88 59.208 158.72 59.272C158.64 59.312 158.496 59.376 158.288 59.464C158.088 59.552 157.86 59.648 157.604 59.752C157.348 59.848 157.1 59.944 156.86 60.04C156.62 60.128 156.416 60.204 156.248 60.268V60.304L156.308 60.364C156.364 60.42 156.42 60.468 156.476 60.508C156.54 60.548 156.6 60.596 156.656 60.652C156.776 60.724 156.956 60.84 157.196 61C157.436 61.16 157.692 61.332 157.964 61.516C158.244 61.7 158.5 61.872 158.732 62.032C158.972 62.184 159.144 62.292 159.248 62.356C159.352 62.436 159.464 62.52 159.584 62.608C159.704 62.688 159.808 62.784 159.896 62.896C159.992 63 160.04 63.124 160.04 63.268C160.04 63.46 159.984 63.62 159.872 63.748C159.768 63.876 159.64 63.94 159.488 63.94C159.296 63.94 159.104 63.884 158.912 63.772C158.728 63.66 158.548 63.528 158.372 63.376C158.204 63.224 158.044 63.096 157.892 62.992C157.812 62.936 157.66 62.836 157.436 62.692C157.22 62.548 156.976 62.388 156.704 62.212C156.44 62.036 156.188 61.868 155.948 61.708C155.716 61.548 155.536 61.424 155.408 61.336H155.36L155.312 61.444L155.072 63.568C155.04 63.728 154.964 63.86 154.844 63.964C154.732 64.068 154.608 64.12 154.472 64.12ZM163.251 64.12C162.883 64.12 162.539 64.036 162.219 63.868C161.899 63.7 161.631 63.476 161.415 63.196C161.199 62.908 161.059 62.584 160.995 62.224V61.612C160.995 61.164 161.075 60.712 161.235 60.256C161.395 59.8 161.623 59.38 161.919 58.996C162.215 58.604 162.567 58.292 162.975 58.06C163.383 57.82 163.831 57.7 164.319 57.7C164.519 57.7 164.691 57.736 164.835 57.808C164.987 57.88 165.123 57.956 165.243 58.036C165.371 58.108 165.495 58.152 165.615 58.168C165.679 57.84 165.767 57.624 165.879 57.52C165.991 57.408 166.143 57.352 166.335 57.352C166.567 57.352 166.723 57.428 166.803 57.58C166.891 57.724 166.935 57.908 166.935 58.132C166.935 58.572 166.923 59.004 166.899 59.428C166.883 59.852 166.875 60.288 166.875 60.736C166.875 61.088 166.895 61.452 166.935 61.828C166.975 62.204 166.995 62.568 166.995 62.92V63.172C166.995 63.348 166.959 63.512 166.887 63.664C166.823 63.808 166.675 63.88 166.443 63.88C166.227 63.88 166.071 63.816 165.975 63.688C165.887 63.552 165.827 63.392 165.795 63.208C165.771 63.016 165.747 62.844 165.723 62.692L165.675 62.644C165.403 62.916 165.159 63.164 164.943 63.388C164.735 63.612 164.503 63.792 164.247 63.928C163.991 64.056 163.659 64.12 163.251 64.12ZM163.131 62.908C163.411 62.908 163.675 62.824 163.923 62.656C164.179 62.48 164.407 62.256 164.607 61.984C164.807 61.704 164.963 61.412 165.075 61.108C165.187 60.804 165.243 60.52 165.243 60.256C165.243 60.056 165.215 59.856 165.159 59.656C165.103 59.448 165.007 59.272 164.871 59.128C164.743 58.984 164.559 58.912 164.319 58.912C164.055 58.912 163.795 59.004 163.539 59.188C163.291 59.372 163.067 59.608 162.867 59.896C162.667 60.176 162.507 60.472 162.387 60.784C162.267 61.088 162.207 61.364 162.207 61.612C162.207 61.812 162.235 62.012 162.291 62.212C162.355 62.412 162.455 62.58 162.591 62.716C162.727 62.844 162.907 62.908 163.131 62.908ZM169.255 63.76C169.055 63.76 168.907 63.704 168.811 63.592C168.715 63.472 168.655 63.328 168.631 63.16C168.607 62.984 168.595 62.816 168.595 62.656C168.595 62.288 168.603 61.92 168.619 61.552C168.643 61.184 168.655 60.832 168.655 60.496C168.655 60.136 168.615 59.792 168.535 59.464C168.455 59.136 168.415 58.808 168.415 58.48V58.012C168.487 57.844 168.563 57.732 168.643 57.676C168.723 57.612 168.831 57.58 168.967 57.58C169.215 57.58 169.395 57.66 169.507 57.82C169.619 57.972 169.691 58.156 169.723 58.372C169.763 58.58 169.791 58.772 169.807 58.948C169.815 59.036 169.831 59.208 169.855 59.464C169.887 59.72 169.907 59.96 169.915 60.184H169.963L170.011 60.136C170.163 59.912 170.323 59.672 170.491 59.416C170.659 59.16 170.843 58.92 171.043 58.696C171.251 58.472 171.479 58.292 171.727 58.156C171.975 58.012 172.255 57.94 172.567 57.94C172.967 57.94 173.307 58.056 173.587 58.288C173.867 58.512 174.103 58.808 174.295 59.176C174.487 59.536 174.643 59.928 174.763 60.352C174.883 60.776 174.979 61.188 175.051 61.588C175.123 61.988 175.187 62.332 175.243 62.62V62.92C175.243 63.096 175.195 63.272 175.099 63.448C175.003 63.616 174.851 63.7 174.643 63.7C174.427 63.7 174.267 63.644 174.163 63.532C174.067 63.42 174.003 63.276 173.971 63.1C173.955 63.028 173.935 62.912 173.911 62.752C173.887 62.584 173.859 62.404 173.827 62.212C173.795 62.012 173.767 61.828 173.743 61.66C173.719 61.484 173.699 61.356 173.683 61.276C173.659 61.116 173.603 60.928 173.515 60.712C173.435 60.488 173.359 60.296 173.287 60.136C173.215 59.968 173.123 59.792 173.011 59.608C172.899 59.424 172.735 59.332 172.519 59.332C172.327 59.332 172.151 59.4 171.991 59.536C171.839 59.672 171.703 59.832 171.583 60.016C171.471 60.2 171.371 60.364 171.283 60.508C171.083 60.828 170.903 61.148 170.743 61.468C170.583 61.788 170.411 62.136 170.227 62.512C170.155 62.664 170.087 62.84 170.023 63.04C169.959 63.232 169.871 63.4 169.759 63.544C169.647 63.688 169.479 63.76 169.255 63.76ZM181.728 64.12C181.584 64.12 181.476 64.072 181.404 63.976C181.332 63.88 181.284 63.768 181.26 63.64C181.236 63.504 181.212 63.384 181.188 63.28V62.392C181.188 61.944 181.208 61.492 181.248 61.036C181.288 60.572 181.308 60.12 181.308 59.68C181.308 59.472 181.288 59.272 181.248 59.08C181.208 58.888 181.188 58.692 181.188 58.492V58.168C181.252 58.048 181.336 57.96 181.44 57.904C181.552 57.848 181.668 57.82 181.788 57.82C181.964 57.82 182.096 57.872 182.184 57.976C182.272 58.072 182.332 58.188 182.364 58.324C182.404 58.46 182.44 58.584 182.472 58.696C182.504 58.8 182.556 58.86 182.628 58.876C182.86 58.724 183.08 58.576 183.288 58.432C183.504 58.288 183.728 58.172 183.96 58.084C184.2 57.988 184.464 57.94 184.752 57.94C184.896 57.94 185.048 57.972 185.208 58.036C185.376 58.1 185.52 58.192 185.64 58.312C185.76 58.424 185.82 58.564 185.82 58.732C185.82 58.94 185.736 59.092 185.568 59.188C185.408 59.284 185.256 59.332 185.112 59.332C185.016 59.332 184.924 59.312 184.836 59.272C184.748 59.232 184.656 59.212 184.56 59.212C184.28 59.212 184.016 59.284 183.768 59.428C183.528 59.564 183.316 59.728 183.132 59.92C182.948 60.112 182.8 60.292 182.688 60.46C182.656 60.532 182.632 60.652 182.616 60.82C182.6 60.988 182.588 61.18 182.58 61.396C182.572 61.604 182.564 61.808 182.556 62.008C182.556 62.208 182.552 62.38 182.544 62.524C182.536 62.788 182.508 63.044 182.46 63.292C182.42 63.532 182.344 63.732 182.232 63.892C182.12 64.044 181.952 64.12 181.728 64.12ZM187.324 56.608C187.084 56.608 186.876 56.532 186.7 56.38C186.524 56.228 186.436 56.004 186.436 55.708C186.436 55.412 186.54 55.204 186.748 55.084C186.956 54.964 187.168 54.904 187.384 54.904C187.632 54.904 187.84 54.98 188.008 55.132C188.184 55.284 188.272 55.512 188.272 55.816C188.272 56.104 188.168 56.308 187.96 56.428C187.76 56.548 187.548 56.608 187.324 56.608ZM186.844 63.82C186.692 63.82 186.576 63.74 186.496 63.58C186.416 63.42 186.356 63.26 186.316 63.1V61.552C186.316 61.512 186.324 61.408 186.34 61.24C186.364 61.064 186.388 60.86 186.412 60.628C186.444 60.388 186.472 60.16 186.496 59.944C186.528 59.72 186.552 59.544 186.568 59.416C186.592 59.256 186.62 59.08 186.652 58.888C186.692 58.696 186.76 58.528 186.856 58.384C186.952 58.24 187.088 58.168 187.264 58.168C187.456 58.168 187.592 58.216 187.672 58.312C187.76 58.4 187.812 58.512 187.828 58.648C187.844 58.784 187.852 58.924 187.852 59.068V59.488C187.852 59.504 187.848 59.54 187.84 59.596C187.832 59.644 187.82 59.7 187.804 59.764C187.748 60.044 187.704 60.252 187.672 60.388C187.648 60.516 187.628 60.628 187.612 60.724C187.604 60.812 187.6 60.936 187.6 61.096C187.6 61.192 187.6 61.312 187.6 61.456C187.608 61.6 187.612 61.788 187.612 62.02C187.612 62.124 187.616 62.228 187.624 62.332C187.632 62.428 187.636 62.532 187.636 62.644C187.636 62.764 187.624 62.892 187.6 63.028C187.568 63.228 187.496 63.412 187.384 63.58C187.272 63.74 187.092 63.82 186.844 63.82ZM190.092 63.88C189.916 63.88 189.76 63.824 189.624 63.712C189.496 63.592 189.432 63.444 189.432 63.268C189.432 63.004 189.44 62.748 189.456 62.5C189.48 62.252 189.492 62 189.492 61.744V60.952C189.492 60.624 189.48 60.3 189.456 59.98C189.44 59.652 189.388 59.328 189.3 59.008C189.268 58.912 189.24 58.812 189.216 58.708C189.2 58.596 189.192 58.484 189.192 58.372C189.192 58.212 189.232 58.052 189.312 57.892C189.392 57.724 189.536 57.64 189.744 57.64C189.912 57.64 190.048 57.704 190.152 57.832C190.256 57.952 190.336 58.104 190.392 58.288C190.448 58.464 190.488 58.644 190.512 58.828C190.544 59.004 190.572 59.152 190.596 59.272C190.612 59.376 190.636 59.488 190.668 59.608C190.7 59.728 190.716 59.844 190.716 59.956C190.716 59.964 190.724 59.988 190.74 60.028C190.756 60.068 190.772 60.108 190.788 60.148C190.892 59.964 191.008 59.764 191.136 59.548C191.272 59.324 191.42 59.116 191.58 58.924C191.748 58.724 191.932 58.56 192.132 58.432C192.34 58.304 192.568 58.24 192.816 58.24C193.072 58.24 193.264 58.304 193.392 58.432C193.528 58.552 193.636 58.704 193.716 58.888C193.796 59.064 193.876 59.24 193.956 59.416C193.988 59.496 194.008 59.58 194.016 59.668C194.024 59.748 194.044 59.832 194.076 59.92L194.208 59.728C194.368 59.504 194.548 59.26 194.748 58.996C194.956 58.724 195.188 58.492 195.444 58.3C195.7 58.1 195.988 58 196.308 58C196.564 58 196.78 58.076 196.956 58.228C197.14 58.372 197.288 58.56 197.4 58.792C197.52 59.024 197.608 59.264 197.664 59.512C197.72 59.76 197.748 59.988 197.748 60.196V62.74C197.748 62.86 197.728 62.992 197.688 63.136C197.656 63.272 197.596 63.392 197.508 63.496C197.42 63.592 197.296 63.64 197.136 63.64C196.952 63.64 196.804 63.576 196.692 63.448C196.58 63.32 196.524 63.184 196.524 63.04V60.856C196.524 60.832 196.52 60.78 196.512 60.7C196.504 60.62 196.492 60.536 196.476 60.448C196.468 60.36 196.464 60.296 196.464 60.256C196.464 60.192 196.456 60.092 196.44 59.956C196.424 59.82 196.392 59.692 196.344 59.572C196.296 59.452 196.224 59.392 196.128 59.392H196.02C195.78 59.6 195.6 59.8 195.48 59.992C195.36 60.176 195.268 60.36 195.204 60.544C195.14 60.728 195.08 60.924 195.024 61.132C194.968 61.332 194.888 61.552 194.784 61.792C194.728 62 194.636 62.196 194.508 62.38C194.388 62.556 194.22 62.644 194.004 62.644C193.796 62.644 193.636 62.588 193.524 62.476C193.42 62.356 193.34 62.212 193.284 62.044C193.236 61.876 193.196 61.716 193.164 61.564C193.148 61.492 193.12 61.372 193.08 61.204C193.04 61.036 192.996 60.852 192.948 60.652C192.908 60.452 192.868 60.264 192.828 60.088C192.788 59.904 192.76 59.768 192.744 59.68C192.696 59.608 192.648 59.572 192.6 59.572C192.528 59.572 192.452 59.624 192.372 59.728C192.292 59.832 192.232 59.932 192.192 60.028C192.144 60.1 192.076 60.228 191.988 60.412C191.9 60.588 191.816 60.76 191.736 60.928C191.664 61.096 191.616 61.208 191.592 61.264C191.576 61.312 191.528 61.428 191.448 61.612C191.376 61.796 191.292 62.008 191.196 62.248C191.1 62.48 191.012 62.692 190.932 62.884C190.852 63.076 190.8 63.204 190.776 63.268C190.696 63.42 190.612 63.56 190.524 63.688C190.444 63.816 190.3 63.88 190.092 63.88ZM201.733 63.88C201.581 63.88 201.461 63.88 201.373 63.88C201.293 63.872 201.193 63.852 201.073 63.82C201.017 63.788 200.941 63.752 200.845 63.712C200.749 63.664 200.657 63.62 200.569 63.58C200.481 63.54 200.417 63.52 200.377 63.52C200.321 63.52 200.233 63.572 200.113 63.676C200.001 63.772 199.873 63.82 199.729 63.82C199.521 63.82 199.377 63.748 199.297 63.604C199.217 63.452 199.177 63.28 199.177 63.088C199.177 62.912 199.185 62.756 199.201 62.62C199.217 62.476 199.249 62.316 199.297 62.14C199.417 61.26 199.509 60.356 199.573 59.428C199.645 58.492 199.681 57.564 199.681 56.644C199.681 56.412 199.681 56.184 199.681 55.96C199.681 55.736 199.673 55.512 199.657 55.288C199.649 55.128 199.697 55.016 199.801 54.952C199.905 54.888 200.021 54.856 200.149 54.856H200.257C200.433 54.856 200.581 54.9 200.701 54.988C200.821 55.076 200.897 55.232 200.929 55.456V56.104C200.929 56.568 200.921 57.032 200.905 57.496C200.889 57.96 200.877 58.456 200.869 58.984H200.905C201.233 58.608 201.597 58.288 201.997 58.024C202.397 57.76 202.841 57.628 203.329 57.628C203.705 57.628 204.069 57.716 204.421 57.892C204.781 58.06 205.077 58.3 205.309 58.612C205.541 58.916 205.657 59.268 205.657 59.668C205.657 60.204 205.557 60.724 205.357 61.228C205.157 61.724 204.877 62.172 204.517 62.572C204.157 62.972 203.741 63.292 203.269 63.532C202.797 63.764 202.285 63.88 201.733 63.88ZM201.733 62.596C202.045 62.596 202.361 62.52 202.681 62.368C203.001 62.216 203.293 62.012 203.557 61.756C203.821 61.5 204.033 61.216 204.193 60.904C204.361 60.592 204.445 60.276 204.445 59.956C204.445 59.7 204.353 59.464 204.169 59.248C203.993 59.024 203.769 58.912 203.497 58.912C203.209 58.912 202.945 58.98 202.705 59.116C202.473 59.252 202.257 59.428 202.057 59.644C201.865 59.852 201.689 60.08 201.529 60.328C201.369 60.576 201.221 60.808 201.085 61.024C201.029 61.152 200.957 61.296 200.869 61.456C200.789 61.616 200.749 61.768 200.749 61.912C200.749 62.056 200.805 62.18 200.917 62.284C201.029 62.388 201.161 62.468 201.313 62.524C201.473 62.572 201.613 62.596 201.733 62.596ZM208.93 64.12C208.562 64.12 208.218 64.036 207.898 63.868C207.578 63.7 207.31 63.476 207.094 63.196C206.878 62.908 206.738 62.584 206.674 62.224V61.612C206.674 61.164 206.754 60.712 206.914 60.256C207.074 59.8 207.302 59.38 207.598 58.996C207.894 58.604 208.246 58.292 208.654 58.06C209.062 57.82 209.51 57.7 209.998 57.7C210.198 57.7 210.37 57.736 210.514 57.808C210.666 57.88 210.802 57.956 210.922 58.036C211.05 58.108 211.174 58.152 211.294 58.168C211.358 57.84 211.446 57.624 211.558 57.52C211.67 57.408 211.822 57.352 212.014 57.352C212.246 57.352 212.402 57.428 212.482 57.58C212.57 57.724 212.614 57.908 212.614 58.132C212.614 58.572 212.602 59.004 212.578 59.428C212.562 59.852 212.554 60.288 212.554 60.736C212.554 61.088 212.574 61.452 212.614 61.828C212.654 62.204 212.674 62.568 212.674 62.92V63.172C212.674 63.348 212.638 63.512 212.566 63.664C212.502 63.808 212.354 63.88 212.122 63.88C211.906 63.88 211.75 63.816 211.654 63.688C211.566 63.552 211.506 63.392 211.474 63.208C211.45 63.016 211.426 62.844 211.402 62.692L211.354 62.644C211.082 62.916 210.838 63.164 210.622 63.388C210.414 63.612 210.182 63.792 209.926 63.928C209.67 64.056 209.338 64.12 208.93 64.12ZM208.81 62.908C209.09 62.908 209.354 62.824 209.602 62.656C209.858 62.48 210.086 62.256 210.286 61.984C210.486 61.704 210.642 61.412 210.754 61.108C210.866 60.804 210.922 60.52 210.922 60.256C210.922 60.056 210.894 59.856 210.838 59.656C210.782 59.448 210.686 59.272 210.55 59.128C210.422 58.984 210.238 58.912 209.998 58.912C209.734 58.912 209.474 59.004 209.218 59.188C208.97 59.372 208.746 59.608 208.546 59.896C208.346 60.176 208.186 60.472 208.066 60.784C207.946 61.088 207.886 61.364 207.886 61.612C207.886 61.812 207.914 62.012 207.97 62.212C208.034 62.412 208.134 62.58 208.27 62.716C208.406 62.844 208.586 62.908 208.81 62.908ZM214.935 63.76C214.735 63.76 214.587 63.704 214.491 63.592C214.395 63.472 214.335 63.328 214.311 63.16C214.287 62.984 214.275 62.816 214.275 62.656C214.275 62.288 214.283 61.92 214.299 61.552C214.323 61.184 214.335 60.832 214.335 60.496C214.335 60.136 214.295 59.792 214.215 59.464C214.135 59.136 214.095 58.808 214.095 58.48V58.012C214.167 57.844 214.243 57.732 214.323 57.676C214.403 57.612 214.511 57.58 214.647 57.58C214.895 57.58 215.075 57.66 215.187 57.82C215.299 57.972 215.371 58.156 215.403 58.372C215.443 58.58 215.471 58.772 215.487 58.948C215.495 59.036 215.511 59.208 215.535 59.464C215.567 59.72 215.587 59.96 215.595 60.184H215.643L215.691 60.136C215.843 59.912 216.003 59.672 216.171 59.416C216.339 59.16 216.523 58.92 216.723 58.696C216.931 58.472 217.159 58.292 217.407 58.156C217.655 58.012 217.935 57.94 218.247 57.94C218.647 57.94 218.987 58.056 219.267 58.288C219.547 58.512 219.783 58.808 219.975 59.176C220.167 59.536 220.323 59.928 220.443 60.352C220.563 60.776 220.659 61.188 220.731 61.588C220.803 61.988 220.867 62.332 220.923 62.62V62.92C220.923 63.096 220.875 63.272 220.779 63.448C220.683 63.616 220.531 63.7 220.323 63.7C220.107 63.7 219.947 63.644 219.843 63.532C219.747 63.42 219.683 63.276 219.651 63.1C219.635 63.028 219.615 62.912 219.591 62.752C219.567 62.584 219.539 62.404 219.507 62.212C219.475 62.012 219.447 61.828 219.423 61.66C219.399 61.484 219.379 61.356 219.363 61.276C219.339 61.116 219.283 60.928 219.195 60.712C219.115 60.488 219.039 60.296 218.967 60.136C218.895 59.968 218.803 59.792 218.691 59.608C218.579 59.424 218.415 59.332 218.199 59.332C218.007 59.332 217.831 59.4 217.671 59.536C217.519 59.672 217.383 59.832 217.263 60.016C217.151 60.2 217.051 60.364 216.963 60.508C216.763 60.828 216.583 61.148 216.423 61.468C216.263 61.788 216.091 62.136 215.907 62.512C215.835 62.664 215.767 62.84 215.703 63.04C215.639 63.232 215.551 63.4 215.439 63.544C215.327 63.688 215.159 63.76 214.935 63.76ZM223.921 67.144C223.777 67.144 223.669 67.072 223.597 66.928C223.525 66.792 223.489 66.656 223.489 66.52C223.489 66.264 223.545 66.02 223.657 65.788C223.769 65.564 223.869 65.336 223.957 65.104C223.997 65 224.045 64.864 224.101 64.696C224.165 64.536 224.225 64.372 224.281 64.204C224.345 64.036 224.397 63.892 224.437 63.772C224.477 63.652 224.497 63.584 224.497 63.568V63.532C224.057 63.5 223.689 63.384 223.393 63.184C223.097 62.984 222.861 62.732 222.685 62.428C222.509 62.124 222.377 61.792 222.289 61.432C222.201 61.064 222.141 60.692 222.109 60.316C222.085 59.94 222.073 59.588 222.073 59.26C222.073 59.156 222.077 59.02 222.085 58.852C222.093 58.676 222.113 58.5 222.145 58.324C222.185 58.148 222.245 58 222.325 57.88C222.413 57.76 222.533 57.7 222.685 57.7C222.981 57.7 223.173 57.808 223.261 58.024C223.357 58.24 223.405 58.476 223.405 58.732C223.405 58.908 223.393 59.072 223.369 59.224C223.353 59.376 223.345 59.544 223.345 59.728V59.848C223.345 59.904 223.357 60.024 223.381 60.208C223.405 60.392 223.429 60.58 223.453 60.772C223.485 60.964 223.509 61.108 223.525 61.204C223.565 61.468 223.645 61.7 223.765 61.9C223.885 62.092 224.053 62.188 224.269 62.188C224.525 62.188 224.749 62.088 224.941 61.888C225.141 61.688 225.317 61.428 225.469 61.108C225.629 60.788 225.781 60.452 225.925 60.1C226.069 59.74 226.213 59.4 226.357 59.08C226.501 58.76 226.657 58.5 226.825 58.3C227.001 58.1 227.197 58 227.413 58C227.773 58 227.953 58.2 227.953 58.6C227.953 58.872 227.909 59.132 227.821 59.38C227.741 59.628 227.637 59.868 227.509 60.1C227.389 60.332 227.261 60.56 227.125 60.784C226.989 61.008 226.869 61.236 226.765 61.468C226.445 62.148 226.149 62.848 225.877 63.568C225.613 64.28 225.357 64.996 225.109 65.716C225.045 65.9 224.965 66.104 224.869 66.328C224.773 66.552 224.649 66.744 224.497 66.904C224.353 67.064 224.161 67.144 223.921 67.144ZM231.278 64.12C230.91 64.12 230.566 64.036 230.246 63.868C229.926 63.7 229.658 63.476 229.442 63.196C229.226 62.908 229.086 62.584 229.022 62.224V61.612C229.022 61.164 229.102 60.712 229.262 60.256C229.422 59.8 229.65 59.38 229.946 58.996C230.242 58.604 230.594 58.292 231.002 58.06C231.41 57.82 231.858 57.7 232.346 57.7C232.546 57.7 232.718 57.736 232.862 57.808C233.014 57.88 233.15 57.956 233.27 58.036C233.398 58.108 233.522 58.152 233.642 58.168C233.706 57.84 233.794 57.624 233.906 57.52C234.018 57.408 234.17 57.352 234.362 57.352C234.594 57.352 234.75 57.428 234.83 57.58C234.918 57.724 234.962 57.908 234.962 58.132C234.962 58.572 234.95 59.004 234.926 59.428C234.91 59.852 234.902 60.288 234.902 60.736C234.902 61.088 234.922 61.452 234.962 61.828C235.002 62.204 235.022 62.568 235.022 62.92V63.172C235.022 63.348 234.986 63.512 234.914 63.664C234.85 63.808 234.702 63.88 234.47 63.88C234.254 63.88 234.098 63.816 234.002 63.688C233.914 63.552 233.854 63.392 233.822 63.208C233.798 63.016 233.774 62.844 233.75 62.692L233.702 62.644C233.43 62.916 233.186 63.164 232.97 63.388C232.762 63.612 232.53 63.792 232.274 63.928C232.018 64.056 231.686 64.12 231.278 64.12ZM231.158 62.908C231.438 62.908 231.702 62.824 231.95 62.656C232.206 62.48 232.434 62.256 232.634 61.984C232.834 61.704 232.99 61.412 233.102 61.108C233.214 60.804 233.27 60.52 233.27 60.256C233.27 60.056 233.242 59.856 233.186 59.656C233.13 59.448 233.034 59.272 232.898 59.128C232.77 58.984 232.586 58.912 232.346 58.912C232.082 58.912 231.822 59.004 231.566 59.188C231.318 59.372 231.094 59.608 230.894 59.896C230.694 60.176 230.534 60.472 230.414 60.784C230.294 61.088 230.234 61.364 230.234 61.612C230.234 61.812 230.262 62.012 230.318 62.212C230.382 62.412 230.482 62.58 230.618 62.716C230.754 62.844 230.934 62.908 231.158 62.908ZM238.05 64.012C237.906 64.012 237.774 63.96 237.654 63.856C237.542 63.752 237.486 63.6 237.486 63.4C237.486 63.136 237.558 62.936 237.702 62.8C237.854 62.664 238.018 62.596 238.194 62.596C238.346 62.596 238.482 62.652 238.602 62.764C238.722 62.876 238.778 63.044 238.77 63.268C238.754 63.516 238.67 63.704 238.518 63.832C238.374 63.952 238.218 64.012 238.05 64.012Z" fill="white"/>
<path d="M12.7209 41.8C11.2809 41.8 10.4169 41.064 10.1289 39.592V37.48C10.1289 33.8 10.3209 30.088 10.7049 26.344C11.1209 22.568 11.3289 18.792 11.3289 15.016C11.3289 14.12 11.5689 13.336 12.0489 12.664C12.5609 11.96 13.2809 11.608 14.2089 11.608C14.9769 11.608 15.5209 11.784 15.8409 12.136C16.1929 12.488 16.4009 12.936 16.4649 13.48C16.5609 13.992 16.6089 14.52 16.6089 15.064C16.6089 18.36 16.4649 21.704 16.1769 25.096C15.8889 28.456 15.7129 32.008 15.6489 35.752H17.0409C17.3929 35.688 17.9049 35.608 18.5769 35.512C19.2489 35.384 19.9529 35.256 20.6889 35.128C21.4569 35 22.1769 34.888 22.8489 34.792C23.5209 34.696 24.0329 34.616 24.3849 34.552H25.8249C26.2729 34.552 26.8009 34.568 27.4089 34.6C28.0489 34.6 28.6569 34.68 29.2329 34.84C29.8409 34.968 30.3369 35.224 30.7209 35.608C31.1049 35.96 31.2969 36.504 31.2969 37.24C31.2969 38.104 31.0249 38.76 30.4809 39.208C29.9689 39.656 29.3289 39.96 28.5609 40.12C27.8249 40.28 27.1369 40.36 26.4969 40.36H21.3129C20.9609 40.424 20.4169 40.52 19.6809 40.648C18.9769 40.776 18.2089 40.92 17.3769 41.08C16.5449 41.24 15.7769 41.384 15.0729 41.512C14.3689 41.64 13.8409 41.736 13.4889 41.8H12.7209ZM43.9396 43.48C42.4676 43.48 41.0916 43.144 39.8116 42.472C38.5316 41.8 37.4596 40.904 36.5956 39.784C35.7316 38.632 35.1716 37.336 34.9156 35.896V33.448C34.9156 31.656 35.2356 29.848 35.8756 28.024C36.5156 26.2 37.4276 24.52 38.6116 22.984C39.7956 21.416 41.2036 20.168 42.8356 19.24C44.4676 18.28 46.2596 17.8 48.2116 17.8C49.0116 17.8 49.6996 17.944 50.2756 18.232C50.8836 18.52 51.4276 18.824 51.9076 19.144C52.4196 19.432 52.9156 19.608 53.3956 19.672C53.6516 18.36 54.0036 17.496 54.4516 17.08C54.8996 16.632 55.5076 16.408 56.2756 16.408C57.2036 16.408 57.8276 16.712 58.1476 17.32C58.4996 17.896 58.6756 18.632 58.6756 19.528C58.6756 21.288 58.6276 23.016 58.5316 24.712C58.4676 26.408 58.4356 28.152 58.4356 29.944C58.4356 31.352 58.5156 32.808 58.6756 34.312C58.8356 35.816 58.9156 37.272 58.9156 38.68V39.688C58.9156 40.392 58.7716 41.048 58.4836 41.656C58.2276 42.232 57.6356 42.52 56.7076 42.52C55.8436 42.52 55.2196 42.264 54.8356 41.752C54.4836 41.208 54.2436 40.568 54.1156 39.832C54.0196 39.064 53.9236 38.376 53.8276 37.768L53.6356 37.576C52.5476 38.664 51.5716 39.656 50.7076 40.552C49.8756 41.448 48.9476 42.168 47.9236 42.712C46.8996 43.224 45.5716 43.48 43.9396 43.48ZM43.4596 38.632C44.5796 38.632 45.6356 38.296 46.6276 37.624C47.6516 36.92 48.5636 36.024 49.3636 34.936C50.1636 33.816 50.7876 32.648 51.2356 31.432C51.6836 30.216 51.9076 29.08 51.9076 28.024C51.9076 27.224 51.7956 26.424 51.5716 25.624C51.3476 24.792 50.9636 24.088 50.4196 23.512C49.9076 22.936 49.1716 22.648 48.2116 22.648C47.1556 22.648 46.1156 23.016 45.0916 23.752C44.0996 24.488 43.2036 25.432 42.4036 26.584C41.6036 27.704 40.9636 28.888 40.4836 30.136C40.0036 31.352 39.7636 32.456 39.7636 33.448C39.7636 34.248 39.8756 35.048 40.0996 35.848C40.3556 36.648 40.7556 37.32 41.2996 37.864C41.8436 38.376 42.5636 38.632 43.4596 38.632ZM68.1976 42.52C67.4936 42.52 66.8696 42.296 66.3256 41.848C65.8136 41.368 65.5576 40.776 65.5576 40.072C65.5576 39.016 65.5896 37.992 65.6536 37C65.7496 36.008 65.7976 35 65.7976 33.976V30.808C65.7976 29.496 65.7496 28.2 65.6536 26.92C65.5896 25.608 65.3816 24.312 65.0296 23.032C64.9016 22.648 64.7896 22.248 64.6936 21.832C64.6296 21.384 64.5976 20.936 64.5976 20.488C64.5976 19.848 64.7576 19.208 65.0776 18.568C65.3976 17.896 65.9736 17.56 66.8056 17.56C67.4776 17.56 68.0216 17.816 68.4376 18.328C68.8536 18.808 69.1736 19.416 69.3976 20.152C69.6216 20.856 69.7816 21.576 69.8776 22.312C70.0056 23.016 70.1176 23.608 70.2136 24.088C70.2776 24.504 70.3736 24.952 70.5016 25.432C70.6296 25.912 70.6936 26.376 70.6936 26.824C70.6936 26.856 70.7256 26.952 70.7896 27.112C70.8536 27.272 70.9176 27.432 70.9816 27.592C71.3976 26.856 71.8616 26.056 72.3736 25.192C72.9176 24.296 73.5096 23.464 74.1496 22.696C74.8216 21.896 75.5576 21.24 76.3576 20.728C77.1896 20.216 78.1016 19.96 79.0936 19.96C80.1176 19.96 80.8856 20.216 81.3976 20.728C81.9416 21.208 82.3736 21.816 82.6936 22.552C83.0136 23.256 83.3336 23.96 83.6536 24.664C83.7816 24.984 83.8616 25.32 83.8936 25.672C83.9256 25.992 84.0056 26.328 84.1336 26.68L84.6616 25.912C85.3016 25.016 86.0216 24.04 86.8216 22.984C87.6536 21.896 88.5816 20.968 89.6056 20.2C90.6296 19.4 91.7816 19 93.0616 19C94.0856 19 94.9496 19.304 95.6536 19.912C96.3896 20.488 96.9816 21.24 97.4296 22.168C97.9096 23.096 98.2616 24.056 98.4856 25.048C98.7096 26.04 98.8216 26.952 98.8216 27.784V37.96C98.8216 38.44 98.7416 38.968 98.5816 39.544C98.4536 40.088 98.2136 40.568 97.8616 40.984C97.5096 41.368 97.0136 41.56 96.3736 41.56C95.6376 41.56 95.0456 41.304 94.5976 40.792C94.1496 40.28 93.9256 39.736 93.9256 39.16V30.424C93.9256 30.328 93.9096 30.12 93.8776 29.8C93.8456 29.48 93.7976 29.144 93.7336 28.792C93.7016 28.44 93.6856 28.184 93.6856 28.024C93.6856 27.768 93.6536 27.368 93.5896 26.824C93.5256 26.28 93.3976 25.768 93.2056 25.288C93.0136 24.808 92.7256 24.568 92.3416 24.568H91.9096C90.9496 25.4 90.2296 26.2 89.7496 26.968C89.2696 27.704 88.9016 28.44 88.6456 29.176C88.3896 29.912 88.1496 30.696 87.9256 31.528C87.7016 32.328 87.3816 33.208 86.9656 34.168C86.7416 35 86.3736 35.784 85.8616 36.52C85.3816 37.224 84.7096 37.576 83.8456 37.576C83.0136 37.576 82.3736 37.352 81.9256 36.904C81.5096 36.424 81.1896 35.848 80.9656 35.176C80.7736 34.504 80.6136 33.864 80.4856 33.256C80.4216 32.968 80.3096 32.488 80.1496 31.816C79.9896 31.144 79.8136 30.408 79.6216 29.608C79.4616 28.808 79.3016 28.056 79.1416 27.352C78.9816 26.616 78.8696 26.072 78.8056 25.72C78.6136 25.432 78.4216 25.288 78.2296 25.288C77.9416 25.288 77.6376 25.496 77.3176 25.912C76.9976 26.328 76.7576 26.728 76.5976 27.112C76.4056 27.4 76.1336 27.912 75.7816 28.648C75.4296 29.352 75.0936 30.04 74.7736 30.712C74.4856 31.384 74.2936 31.832 74.1976 32.056C74.1336 32.248 73.9416 32.712 73.6216 33.448C73.3336 34.184 72.9976 35.032 72.6136 35.992C72.2296 36.92 71.8776 37.768 71.5576 38.536C71.2376 39.304 71.0296 39.816 70.9336 40.072C70.6136 40.68 70.2776 41.24 69.9256 41.752C69.6056 42.264 69.0296 42.52 68.1976 42.52Z" fill="white"/>
<path d="M109.335 43.24C108.535 43.24 107.911 43.032 107.463 42.616C107.047 42.2 106.711 41.592 106.455 40.792V38.2C106.455 35.448 106.599 32.696 106.887 29.944C107.207 27.192 107.367 24.44 107.367 21.688C107.367 21.048 107.351 20.36 107.319 19.624C107.319 18.888 107.239 18.072 107.079 17.176C106.311 16.984 105.655 16.696 105.111 16.312C104.567 15.928 104.295 15.336 104.295 14.536C104.295 13.672 104.615 12.984 105.255 12.472C105.895 11.928 106.711 11.528 107.703 11.272C108.695 10.984 109.735 10.792 110.823 10.696C111.943 10.568 112.983 10.504 113.943 10.504C114.903 10.472 115.655 10.456 116.199 10.456C118.311 10.456 120.359 10.696 122.343 11.176C124.359 11.624 126.119 12.456 127.623 13.672C129.159 14.888 130.247 16.664 130.887 19V20.968C130.887 21.224 130.887 21.496 130.887 21.784C130.919 22.072 130.935 22.344 130.935 22.6C130.935 22.824 130.919 23.064 130.887 23.32C130.855 23.576 130.791 23.816 130.695 24.04C130.087 25.448 129.223 26.568 128.103 27.4C127.015 28.2 125.831 28.904 124.551 29.512C124.327 29.576 123.991 29.688 123.543 29.848C123.095 29.976 122.871 30.152 122.871 30.376V30.616C123.639 31.192 124.359 31.832 125.031 32.536C125.735 33.24 126.423 33.928 127.095 34.6C127.831 35.304 128.487 36.12 129.063 37.048C129.671 37.944 129.975 38.808 129.975 39.64C129.975 40.472 129.735 41.128 129.255 41.608C128.775 42.056 128.119 42.28 127.287 42.28C126.903 42.28 126.503 42.2 126.087 42.04C125.671 41.592 125.287 41.192 124.935 40.84C124.615 40.456 124.279 40.024 123.927 39.544C123.575 39 123.111 38.408 122.535 37.768C121.991 37.096 121.415 36.472 120.807 35.896C120.231 35.288 119.703 34.808 119.223 34.456C118.903 34.136 118.407 33.768 117.735 33.352C117.095 32.904 116.423 32.44 115.719 31.96C115.047 31.48 114.471 30.968 113.991 30.424C113.511 29.88 113.271 29.32 113.271 28.744C113.271 28.136 113.575 27.64 114.183 27.256C114.791 26.872 115.559 26.552 116.487 26.296C117.447 26.008 118.455 25.72 119.511 25.432C120.599 25.144 121.607 24.808 122.535 24.424C123.495 24.04 124.279 23.56 124.887 22.984C125.495 22.376 125.799 21.624 125.799 20.728C125.799 19.544 125.415 18.632 124.647 17.992C123.911 17.352 122.983 16.904 121.863 16.648C120.775 16.36 119.671 16.2 118.551 16.168C117.431 16.104 116.487 16.072 115.719 16.072H113.367L113.175 16.264L111.975 37.72C111.943 38.168 111.911 38.712 111.879 39.352C111.847 39.96 111.751 40.568 111.591 41.176C111.463 41.752 111.223 42.248 110.871 42.664C110.519 43.048 110.007 43.24 109.335 43.24ZM141.451 13.432C140.491 13.432 139.659 13.128 138.955 12.52C138.251 11.912 137.899 11.016 137.899 9.832C137.899 8.648 138.315 7.816 139.147 7.336C139.979 6.856 140.827 6.616 141.691 6.616C142.683 6.616 143.515 6.92 144.187 7.528C144.891 8.136 145.243 9.048 145.243 10.264C145.243 11.416 144.827 12.232 143.995 12.712C143.195 13.192 142.347 13.432 141.451 13.432ZM139.531 42.28C138.923 42.28 138.459 41.96 138.139 41.32C137.819 40.68 137.579 40.04 137.419 39.4V33.208C137.419 33.048 137.451 32.632 137.515 31.96C137.611 31.256 137.707 30.44 137.803 29.512C137.931 28.552 138.043 27.64 138.139 26.776C138.267 25.88 138.363 25.176 138.427 24.664C138.523 24.024 138.635 23.32 138.763 22.552C138.923 21.784 139.195 21.112 139.579 20.536C139.963 19.96 140.507 19.672 141.211 19.672C141.979 19.672 142.523 19.864 142.843 20.248C143.195 20.6 143.403 21.048 143.467 21.592C143.531 22.136 143.563 22.696 143.563 23.272V24.952C143.563 25.016 143.547 25.16 143.515 25.384C143.483 25.576 143.435 25.8 143.371 26.056C143.147 27.176 142.971 28.008 142.843 28.552C142.747 29.064 142.667 29.512 142.603 29.896C142.571 30.248 142.555 30.744 142.555 31.384C142.555 31.768 142.555 32.248 142.555 32.824C142.587 33.4 142.603 34.152 142.603 35.08C142.603 35.496 142.619 35.912 142.651 36.328C142.683 36.712 142.699 37.128 142.699 37.576C142.699 38.056 142.651 38.568 142.555 39.112C142.427 39.912 142.139 40.648 141.691 41.32C141.243 41.96 140.523 42.28 139.531 42.28ZM152.526 42.52C151.822 42.52 151.198 42.296 150.654 41.848C150.142 41.368 149.886 40.776 149.886 40.072C149.886 39.016 149.918 37.992 149.982 37C150.078 36.008 150.126 35 150.126 33.976V30.808C150.126 29.496 150.078 28.2 149.982 26.92C149.918 25.608 149.71 24.312 149.358 23.032C149.23 22.648 149.118 22.248 149.022 21.832C148.958 21.384 148.926 20.936 148.926 20.488C148.926 19.848 149.086 19.208 149.406 18.568C149.726 17.896 150.302 17.56 151.134 17.56C151.806 17.56 152.35 17.816 152.766 18.328C153.182 18.808 153.502 19.416 153.726 20.152C153.95 20.856 154.11 21.576 154.206 22.312C154.334 23.016 154.446 23.608 154.542 24.088C154.606 24.504 154.702 24.952 154.83 25.432C154.958 25.912 155.022 26.376 155.022 26.824C155.022 26.856 155.054 26.952 155.118 27.112C155.182 27.272 155.246 27.432 155.31 27.592C155.726 26.856 156.19 26.056 156.702 25.192C157.246 24.296 157.838 23.464 158.478 22.696C159.15 21.896 159.886 21.24 160.686 20.728C161.518 20.216 162.43 19.96 163.422 19.96C164.446 19.96 165.214 20.216 165.726 20.728C166.27 21.208 166.702 21.816 167.022 22.552C167.342 23.256 167.662 23.96 167.982 24.664C168.11 24.984 168.19 25.32 168.222 25.672C168.254 25.992 168.334 26.328 168.462 26.68L168.99 25.912C169.63 25.016 170.35 24.04 171.15 22.984C171.982 21.896 172.91 20.968 173.934 20.2C174.958 19.4 176.11 19 177.39 19C178.414 19 179.278 19.304 179.982 19.912C180.718 20.488 181.31 21.24 181.758 22.168C182.238 23.096 182.59 24.056 182.814 25.048C183.038 26.04 183.15 26.952 183.15 27.784V37.96C183.15 38.44 183.07 38.968 182.91 39.544C182.782 40.088 182.542 40.568 182.19 40.984C181.838 41.368 181.342 41.56 180.702 41.56C179.966 41.56 179.374 41.304 178.926 40.792C178.478 40.28 178.254 39.736 178.254 39.16V30.424C178.254 30.328 178.238 30.12 178.206 29.8C178.174 29.48 178.126 29.144 178.062 28.792C178.03 28.44 178.014 28.184 178.014 28.024C178.014 27.768 177.982 27.368 177.918 26.824C177.854 26.28 177.726 25.768 177.534 25.288C177.342 24.808 177.054 24.568 176.67 24.568H176.238C175.278 25.4 174.558 26.2 174.078 26.968C173.598 27.704 173.23 28.44 172.974 29.176C172.718 29.912 172.478 30.696 172.254 31.528C172.03 32.328 171.71 33.208 171.294 34.168C171.07 35 170.702 35.784 170.19 36.52C169.71 37.224 169.038 37.576 168.174 37.576C167.342 37.576 166.702 37.352 166.254 36.904C165.838 36.424 165.518 35.848 165.294 35.176C165.102 34.504 164.942 33.864 164.814 33.256C164.75 32.968 164.638 32.488 164.478 31.816C164.318 31.144 164.142 30.408 163.95 29.608C163.79 28.808 163.63 28.056 163.47 27.352C163.31 26.616 163.198 26.072 163.134 25.72C162.942 25.432 162.75 25.288 162.558 25.288C162.27 25.288 161.966 25.496 161.646 25.912C161.326 26.328 161.086 26.728 160.926 27.112C160.734 27.4 160.462 27.912 160.11 28.648C159.758 29.352 159.422 30.04 159.102 30.712C158.814 31.384 158.622 31.832 158.526 32.056C158.462 32.248 158.27 32.712 157.95 33.448C157.662 34.184 157.326 35.032 156.942 35.992C156.558 36.92 156.206 37.768 155.886 38.536C155.566 39.304 155.358 39.816 155.262 40.072C154.942 40.68 154.606 41.24 154.254 41.752C153.934 42.264 153.358 42.52 152.526 42.52ZM199.087 42.52C198.479 42.52 197.999 42.52 197.647 42.52C197.327 42.488 196.927 42.408 196.447 42.28C196.223 42.152 195.919 42.008 195.535 41.848C195.151 41.656 194.783 41.48 194.431 41.32C194.079 41.16 193.823 41.08 193.663 41.08C193.439 41.08 193.087 41.288 192.607 41.704C192.159 42.088 191.647 42.28 191.071 42.28C190.239 42.28 189.663 41.992 189.343 41.416C189.023 40.808 188.863 40.12 188.863 39.352C188.863 38.648 188.895 38.024 188.959 37.48C189.023 36.904 189.151 36.264 189.343 35.56C189.823 32.04 190.191 28.424 190.447 24.712C190.735 20.968 190.879 17.256 190.879 13.576C190.879 12.648 190.879 11.736 190.879 10.84C190.879 9.944 190.847 9.048 190.783 8.152C190.751 7.512 190.943 7.064 191.359 6.808C191.775 6.552 192.239 6.424 192.751 6.424H193.183C193.887 6.424 194.479 6.6 194.959 6.952C195.439 7.304 195.743 7.928 195.871 8.824V11.416C195.871 13.272 195.839 15.128 195.775 16.984C195.711 18.84 195.663 20.824 195.631 22.936H195.775C197.087 21.432 198.543 20.152 200.143 19.096C201.743 18.04 203.519 17.512 205.471 17.512C206.975 17.512 208.431 17.864 209.839 18.568C211.279 19.24 212.463 20.2 213.391 21.448C214.319 22.664 214.783 24.072 214.783 25.672C214.783 27.816 214.383 29.896 213.583 31.912C212.783 33.896 211.663 35.688 210.223 37.288C208.783 38.888 207.119 40.168 205.231 41.128C203.343 42.056 201.295 42.52 199.087 42.52ZM199.087 37.384C200.335 37.384 201.599 37.08 202.879 36.472C204.159 35.864 205.327 35.048 206.383 34.024C207.439 33 208.287 31.864 208.927 30.616C209.599 29.368 209.935 28.104 209.935 26.824C209.935 25.8 209.567 24.856 208.831 23.992C208.127 23.096 207.231 22.648 206.143 22.648C204.991 22.648 203.935 22.92 202.975 23.464C202.047 24.008 201.183 24.712 200.383 25.576C199.615 26.408 198.911 27.32 198.271 28.312C197.631 29.304 197.039 30.232 196.495 31.096C196.271 31.608 195.983 32.184 195.631 32.824C195.311 33.464 195.151 34.072 195.151 34.648C195.151 35.224 195.375 35.72 195.823 36.136C196.271 36.552 196.799 36.872 197.407 37.096C198.047 37.288 198.607 37.384 199.087 37.384ZM227.877 43.48C226.405 43.48 225.029 43.144 223.749 42.472C222.469 41.8 221.397 40.904 220.533 39.784C219.669 38.632 219.109 37.336 218.853 35.896V33.448C218.853 31.656 219.173 29.848 219.813 28.024C220.453 26.2 221.365 24.52 222.549 22.984C223.733 21.416 225.141 20.168 226.773 19.24C228.405 18.28 230.197 17.8 232.149 17.8C232.949 17.8 233.637 17.944 234.213 18.232C234.821 18.52 235.365 18.824 235.845 19.144C236.357 19.432 236.853 19.608 237.333 19.672C237.589 18.36 237.941 17.496 238.389 17.08C238.837 16.632 239.445 16.408 240.213 16.408C241.141 16.408 241.765 16.712 242.085 17.32C242.437 17.896 242.613 18.632 242.613 19.528C242.613 21.288 242.565 23.016 242.469 24.712C242.405 26.408 242.373 28.152 242.373 29.944C242.373 31.352 242.453 32.808 242.613 34.312C242.773 35.816 242.853 37.272 242.853 38.68V39.688C242.853 40.392 242.709 41.048 242.421 41.656C242.165 42.232 241.573 42.52 240.645 42.52C239.781 42.52 239.157 42.264 238.773 41.752C238.421 41.208 238.181 40.568 238.053 39.832C237.957 39.064 237.861 38.376 237.765 37.768L237.573 37.576C236.485 38.664 235.509 39.656 234.645 40.552C233.813 41.448 232.885 42.168 231.861 42.712C230.837 43.224 229.509 43.48 227.877 43.48ZM227.397 38.632C228.517 38.632 229.573 38.296 230.565 37.624C231.589 36.92 232.501 36.024 233.301 34.936C234.101 33.816 234.725 32.648 235.173 31.432C235.621 30.216 235.845 29.08 235.845 28.024C235.845 27.224 235.733 26.424 235.509 25.624C235.285 24.792 234.901 24.088 234.357 23.512C233.845 22.936 233.109 22.648 232.149 22.648C231.093 22.648 230.053 23.016 229.029 23.752C228.037 24.488 227.141 25.432 226.341 26.584C225.541 27.704 224.901 28.888 224.421 30.136C223.941 31.352 223.701 32.456 223.701 33.448C223.701 34.248 223.813 35.048 224.037 35.848C224.293 36.648 224.693 37.32 225.237 37.864C225.781 38.376 226.501 38.632 227.397 38.632Z" fill="#4CAF50"/>
<path d="M142.847 2.53123C144.107 2.53123 145.262 2.98623 146.312 3.89623C147.292 4.80623 147.782 6.13623 147.782 7.88623C147.782 10.1962 147.152 11.9462 145.892 13.1362C144.562 14.3262 143.127 14.9212 141.587 14.9212C140.257 14.9212 139.067 14.4312 138.017 13.4512C136.967 12.4712 136.477 11.0012 136.547 9.04123C136.687 6.87123 137.422 5.22623 138.752 4.10623C140.012 3.05623 141.377 2.53123 142.847 2.53123Z" fill="#FFD54F"/>
</svg>
