<svg width="377" height="60" viewBox="0 0 377 60" fill="none" xmlns="http://www.w3.org/2000/svg">
<path d="M10.6572 42.76C9.76119 42.76 9.13719 42.504 8.78519 41.992C8.46519 41.48 8.28919 40.872 8.25719 40.168C8.22519 39.432 8.20919 38.776 8.20919 38.2C8.20919 34.2 8.68919 30.264 9.64919 26.392C10.6092 22.52 11.6972 18.728 12.9132 15.016C13.2652 13.928 13.7452 13.064 14.3532 12.424C14.9612 11.752 15.8572 11.416 17.0412 11.416C17.9372 11.416 18.7052 11.704 19.3452 12.28C19.9852 12.856 20.5292 13.576 20.9772 14.44C21.4572 15.272 21.8252 16.088 22.0812 16.888L25.1052 26.056L25.2972 26.248C25.3932 26.152 25.4732 26.056 25.5372 25.96C25.6012 25.864 25.6492 25.752 25.6812 25.624C25.8412 25.176 26.0812 24.504 26.4012 23.608C26.7532 22.68 27.1212 21.704 27.5052 20.68C27.9212 19.624 28.2892 18.664 28.6092 17.8C28.9292 16.904 29.1532 16.296 29.2812 15.976C29.6012 15.176 29.9532 14.408 30.3372 13.672C30.7532 12.936 31.2812 12.344 31.9212 11.896C32.5612 11.416 33.3612 11.176 34.3212 11.176C35.2812 11.176 36.0972 11.496 36.7692 12.136C37.4412 12.744 37.9852 13.512 38.4012 14.44C38.8172 15.336 39.1372 16.232 39.3612 17.128C40.1932 20.2 40.8332 23.336 41.2812 26.536C41.7292 29.704 41.9532 32.872 41.9532 36.04V37.96C41.6652 38.728 41.3132 39.208 40.8972 39.4C40.4812 39.592 39.9532 39.688 39.3132 39.688C38.5772 39.688 38.0012 39.496 37.5852 39.112C37.2012 38.696 36.8972 38.184 36.6732 37.576C36.4812 36.968 36.3532 36.344 36.2892 35.704C36.2252 35.032 36.1612 34.44 36.0972 33.928C35.8732 31.592 35.6492 29.256 35.4252 26.92C35.2012 24.552 34.8172 22.168 34.2732 19.768L34.0332 19.336H33.8892C33.6652 20.008 33.3772 20.84 33.0252 21.832C32.6732 22.792 32.3052 23.784 31.9212 24.808C31.5692 25.832 31.2492 26.744 30.9612 27.544C30.6732 28.344 30.4652 28.904 30.3372 29.224C30.1772 29.704 29.9212 30.312 29.5692 31.048C29.2492 31.784 28.8492 32.536 28.3692 33.304C27.8892 34.04 27.3612 34.664 26.7852 35.176C26.2412 35.656 25.6652 35.896 25.0572 35.896C24.2892 35.896 23.5852 35.528 22.9452 34.792C22.3052 34.024 21.7132 33.048 21.1692 31.864C20.6252 30.648 20.1132 29.352 19.6332 27.976C19.1852 26.6 18.7692 25.272 18.3852 23.992C18.0332 22.712 17.7132 21.64 17.4252 20.776C17.4252 20.616 17.2972 20.408 17.0412 20.152C16.8812 20.376 16.7692 20.568 16.7052 20.728C16.6732 20.888 16.6572 21.048 16.6572 21.208C16.3692 22.488 16.0652 23.768 15.7452 25.048C15.4572 26.296 15.2172 27.576 15.0252 28.888C14.9292 29.464 14.8332 30.024 14.7372 30.568C14.6732 31.08 14.6092 31.496 14.5452 31.816C14.5452 32.104 14.4972 32.552 14.4012 33.16C14.3372 33.768 14.2572 34.424 14.1612 35.128C14.0972 35.8 14.0172 36.424 13.9212 37C13.8572 37.576 13.8252 37.976 13.8252 38.2C13.7612 38.84 13.6172 39.528 13.3932 40.264C13.1692 40.968 12.8332 41.56 12.3852 42.04C11.9692 42.52 11.3932 42.76 10.6572 42.76ZM55.9943 43.48C54.5223 43.48 53.1463 43.144 51.8663 42.472C50.5863 41.8 49.5143 40.904 48.6503 39.784C47.7863 38.632 47.2263 37.336 46.9703 35.896V33.448C46.9703 31.656 47.2903 29.848 47.9303 28.024C48.5703 26.2 49.4823 24.52 50.6663 22.984C51.8503 21.416 53.2583 20.168 54.8903 19.24C56.5223 18.28 58.3143 17.8 60.2663 17.8C61.0663 17.8 61.7543 17.944 62.3303 18.232C62.9383 18.52 63.4823 18.824 63.9623 19.144C64.4743 19.432 64.9703 19.608 65.4503 19.672C65.7063 18.36 66.0583 17.496 66.5063 17.08C66.9543 16.632 67.5623 16.408 68.3303 16.408C69.2583 16.408 69.8823 16.712 70.2023 17.32C70.5543 17.896 70.7303 18.632 70.7303 19.528C70.7303 21.288 70.6823 23.016 70.5863 24.712C70.5223 26.408 70.4903 28.152 70.4903 29.944C70.4903 31.352 70.5703 32.808 70.7303 34.312C70.8903 35.816 70.9703 37.272 70.9703 38.68V39.688C70.9703 40.392 70.8263 41.048 70.5383 41.656C70.2823 42.232 69.6903 42.52 68.7623 42.52C67.8983 42.52 67.2743 42.264 66.8903 41.752C66.5383 41.208 66.2983 40.568 66.1703 39.832C66.0743 39.064 65.9783 38.376 65.8823 37.768L65.6903 37.576C64.6023 38.664 63.6263 39.656 62.7623 40.552C61.9303 41.448 61.0023 42.168 59.9783 42.712C58.9543 43.224 57.6263 43.48 55.9943 43.48ZM55.5143 38.632C56.6343 38.632 57.6903 38.296 58.6823 37.624C59.7063 36.92 60.6183 36.024 61.4183 34.936C62.2183 33.816 62.8423 32.648 63.2903 31.432C63.7383 30.216 63.9623 29.08 63.9623 28.024C63.9623 27.224 63.8503 26.424 63.6263 25.624C63.4023 24.792 63.0183 24.088 62.4743 23.512C61.9623 22.936 61.2263 22.648 60.2663 22.648C59.2103 22.648 58.1703 23.016 57.1463 23.752C56.1543 24.488 55.2583 25.432 54.4583 26.584C53.6583 27.704 53.0183 28.888 52.5383 30.136C52.0583 31.352 51.8183 32.456 51.8183 33.448C51.8183 34.248 51.9303 35.048 52.1543 35.848C52.4103 36.648 52.8103 37.32 53.3543 37.864C53.8983 38.376 54.6183 38.632 55.5143 38.632ZM80.0123 42.04C79.2123 42.04 78.6203 41.816 78.2363 41.368C77.8523 40.888 77.6123 40.312 77.5163 39.64C77.4203 38.936 77.3723 38.264 77.3723 37.624C77.3723 36.152 77.4043 34.68 77.4683 33.208C77.5643 31.736 77.6123 30.328 77.6123 28.984C77.6123 27.544 77.4523 26.168 77.1323 24.856C76.8123 23.544 76.6523 22.232 76.6523 20.92V19.048C76.9403 18.376 77.2443 17.928 77.5643 17.704C77.8843 17.448 78.3163 17.32 78.8603 17.32C79.8523 17.32 80.5723 17.64 81.0203 18.28C81.4683 18.888 81.7563 19.624 81.8843 20.488C82.0443 21.32 82.1563 22.088 82.2203 22.792C82.2523 23.144 82.3163 23.832 82.4123 24.856C82.5403 25.88 82.6203 26.84 82.6523 27.736H82.8443L83.0363 27.544C83.6443 26.648 84.2843 25.688 84.9563 24.664C85.6283 23.64 86.3643 22.68 87.1643 21.784C87.9963 20.888 88.9083 20.168 89.9003 19.624C90.8923 19.048 92.0123 18.76 93.2603 18.76C94.8603 18.76 96.2203 19.224 97.3403 20.152C98.4603 21.048 99.4043 22.232 100.172 23.704C100.94 25.144 101.564 26.712 102.044 28.408C102.524 30.104 102.908 31.752 103.196 33.352C103.484 34.952 103.74 36.328 103.964 37.48V38.68C103.964 39.384 103.772 40.088 103.388 40.792C103.004 41.464 102.396 41.8 101.564 41.8C100.7 41.8 100.06 41.576 99.6443 41.128C99.2603 40.68 99.0043 40.104 98.8763 39.4C98.8123 39.112 98.7323 38.648 98.6363 38.008C98.5403 37.336 98.4283 36.616 98.3003 35.848C98.1723 35.048 98.0603 34.312 97.9643 33.64C97.8683 32.936 97.7883 32.424 97.7243 32.104C97.6283 31.464 97.4043 30.712 97.0523 29.848C96.7323 28.952 96.4283 28.184 96.1403 27.544C95.8523 26.872 95.4843 26.168 95.0363 25.432C94.5883 24.696 93.9323 24.328 93.0683 24.328C92.3003 24.328 91.5963 24.6 90.9563 25.144C90.3483 25.688 89.8043 26.328 89.3243 27.064C88.8763 27.8 88.4763 28.456 88.1243 29.032C87.3243 30.312 86.6043 31.592 85.9643 32.872C85.3243 34.152 84.6363 35.544 83.9003 37.048C83.6123 37.656 83.3403 38.36 83.0843 39.16C82.8283 39.928 82.4763 40.6 82.0283 41.176C81.5803 41.752 80.9083 42.04 80.0123 42.04ZM114.804 43.72C113.204 43.304 111.86 42.6 110.772 41.608C109.716 40.584 108.916 39.384 108.372 38.008C107.86 36.632 107.604 35.192 107.604 33.688C107.604 31.608 108.052 29.608 108.948 27.688C109.844 25.736 111.044 24.008 112.548 22.504C114.084 20.968 115.812 19.752 117.732 18.856C119.684 17.96 121.7 17.512 123.78 17.512C124.516 17.512 125.22 17.624 125.892 17.848C126.596 18.04 127.3 18.152 128.004 18.184L128.196 17.56C128.228 16.984 128.276 16.264 128.34 15.4C128.404 14.536 128.484 13.64 128.58 12.712C128.708 11.752 128.836 10.84 128.964 9.976C129.124 9.112 129.3 8.424 129.492 7.912C129.748 7.176 130.116 6.552 130.596 6.04C131.076 5.496 131.716 5.224 132.516 5.224C133.316 5.224 133.828 5.48 134.052 5.992C134.308 6.504 134.436 7.144 134.436 7.912V9.112C133.988 12.792 133.636 16.424 133.38 20.008C133.156 23.56 133.044 27.112 133.044 30.664C133.044 32.296 133.124 33.896 133.284 35.464C133.444 37 133.524 38.616 133.524 40.312C133.524 40.92 133.428 41.528 133.236 42.136C133.076 42.712 132.596 43 131.796 43C130.964 43 130.324 42.776 129.876 42.328C129.428 41.848 129.108 41.256 128.916 40.552C128.724 39.848 128.564 39.176 128.436 38.536C128.372 38.056 128.308 37.816 128.244 37.816H128.052C126.388 39.64 124.676 41.08 122.916 42.136C121.188 43.192 119.188 43.72 116.916 43.72H114.804ZM116.628 38.824C117.876 38.824 119.076 38.488 120.228 37.816C121.38 37.144 122.404 36.264 123.3 35.176C124.228 34.088 124.948 32.92 125.46 31.672C126.004 30.392 126.276 29.176 126.276 28.024C126.276 27.736 126.212 27.304 126.084 26.728C125.956 26.152 125.796 25.544 125.604 24.904C125.412 24.264 125.204 23.736 124.98 23.32C124.788 22.872 124.612 22.648 124.452 22.648C122.916 22.648 121.46 22.968 120.084 23.608C118.708 24.216 117.476 25.048 116.388 26.104C115.332 27.16 114.484 28.36 113.844 29.704C113.236 31.048 112.932 32.456 112.932 33.928V35.848C113.188 36.776 113.62 37.512 114.228 38.056C114.836 38.568 115.636 38.824 116.628 38.824ZM147.128 42.52C145.752 42.52 144.6 42.232 143.672 41.656C142.776 41.048 142.072 40.264 141.56 39.304C141.048 38.344 140.68 37.304 140.456 36.184C140.264 35.032 140.168 33.896 140.168 32.776V30.424C140.168 30.328 140.216 29.96 140.312 29.32C140.408 28.648 140.504 27.928 140.6 27.16C140.728 26.392 140.824 25.816 140.888 25.432C140.984 24.984 141.096 24.424 141.224 23.752C141.384 23.048 141.576 22.36 141.8 21.688C142.056 20.984 142.376 20.408 142.76 19.96C143.176 19.48 143.672 19.24 144.248 19.24C145.112 19.24 145.768 19.496 146.216 20.008C146.696 20.52 146.936 21.144 146.936 21.88C146.936 22.488 146.84 23.08 146.648 23.656C146.488 24.232 146.344 24.824 146.216 25.432C145.992 26.648 145.768 27.864 145.544 29.08C145.352 30.296 145.256 31.528 145.256 32.776C145.256 33.224 145.288 33.8 145.352 34.504C145.416 35.208 145.592 35.832 145.88 36.376C146.168 36.92 146.664 37.192 147.368 37.192C147.912 37.192 148.552 36.84 149.288 36.136C150.056 35.432 150.856 34.52 151.688 33.4C152.552 32.28 153.416 31.064 154.28 29.752C155.144 28.408 155.944 27.112 156.68 25.864C157.448 24.584 158.104 23.464 158.648 22.504C159.192 21.512 159.576 20.824 159.8 20.44C160.056 20.088 160.328 19.8 160.616 19.576C160.904 19.352 161.272 19.24 161.72 19.24C163.224 19.24 164.12 19.944 164.408 21.352V23.08C164.408 24.488 164.36 25.896 164.264 27.304C164.2 28.68 164.168 30.024 164.168 31.336V34.168C164.264 34.68 164.472 35.144 164.792 35.56C165.112 35.976 165.4 36.392 165.656 36.808C165.944 37.192 166.088 37.656 166.088 38.2C166.088 38.936 165.864 39.56 165.416 40.072C164.968 40.584 164.376 40.84 163.64 40.84C162.68 40.84 161.912 40.52 161.336 39.88C160.76 39.208 160.312 38.424 159.992 37.528C159.8 36.952 159.576 36.216 159.32 35.32C159.096 34.392 158.872 33.48 158.648 32.584C158.168 33.416 157.624 34.248 157.016 35.08C156.44 35.88 155.832 36.664 155.192 37.432C154.168 38.712 152.968 39.88 151.592 40.936C150.216 41.992 148.728 42.52 147.128 42.52ZM175.127 42.52C174.423 42.52 173.799 42.296 173.255 41.848C172.743 41.368 172.487 40.776 172.487 40.072C172.487 39.016 172.519 37.992 172.583 37C172.679 36.008 172.727 35 172.727 33.976V30.808C172.727 29.496 172.679 28.2 172.583 26.92C172.519 25.608 172.311 24.312 171.959 23.032C171.831 22.648 171.719 22.248 171.623 21.832C171.559 21.384 171.527 20.936 171.527 20.488C171.527 19.848 171.687 19.208 172.007 18.568C172.327 17.896 172.903 17.56 173.735 17.56C174.407 17.56 174.951 17.816 175.367 18.328C175.783 18.808 176.103 19.416 176.327 20.152C176.551 20.856 176.711 21.576 176.807 22.312C176.935 23.016 177.047 23.608 177.143 24.088C177.207 24.504 177.303 24.952 177.431 25.432C177.559 25.912 177.623 26.376 177.623 26.824C177.623 26.856 177.655 26.952 177.719 27.112C177.783 27.272 177.847 27.432 177.911 27.592C178.327 26.856 178.791 26.056 179.303 25.192C179.847 24.296 180.439 23.464 181.079 22.696C181.751 21.896 182.487 21.24 183.287 20.728C184.119 20.216 185.031 19.96 186.023 19.96C187.047 19.96 187.815 20.216 188.327 20.728C188.871 21.208 189.303 21.816 189.623 22.552C189.943 23.256 190.263 23.96 190.583 24.664C190.711 24.984 190.791 25.32 190.823 25.672C190.855 25.992 190.935 26.328 191.063 26.68L191.591 25.912C192.231 25.016 192.951 24.04 193.751 22.984C194.583 21.896 195.511 20.968 196.535 20.2C197.559 19.4 198.711 19 199.991 19C201.015 19 201.879 19.304 202.583 19.912C203.319 20.488 203.911 21.24 204.359 22.168C204.839 23.096 205.191 24.056 205.415 25.048C205.639 26.04 205.751 26.952 205.751 27.784V37.96C205.751 38.44 205.671 38.968 205.511 39.544C205.383 40.088 205.143 40.568 204.791 40.984C204.439 41.368 203.943 41.56 203.303 41.56C202.567 41.56 201.975 41.304 201.527 40.792C201.079 40.28 200.855 39.736 200.855 39.16V30.424C200.855 30.328 200.839 30.12 200.807 29.8C200.775 29.48 200.727 29.144 200.663 28.792C200.631 28.44 200.615 28.184 200.615 28.024C200.615 27.768 200.583 27.368 200.519 26.824C200.455 26.28 200.327 25.768 200.135 25.288C199.943 24.808 199.655 24.568 199.271 24.568H198.839C197.879 25.4 197.159 26.2 196.679 26.968C196.199 27.704 195.831 28.44 195.575 29.176C195.319 29.912 195.079 30.696 194.855 31.528C194.631 32.328 194.311 33.208 193.895 34.168C193.671 35 193.303 35.784 192.791 36.52C192.311 37.224 191.639 37.576 190.775 37.576C189.943 37.576 189.303 37.352 188.855 36.904C188.439 36.424 188.119 35.848 187.895 35.176C187.703 34.504 187.543 33.864 187.415 33.256C187.351 32.968 187.239 32.488 187.079 31.816C186.919 31.144 186.743 30.408 186.551 29.608C186.391 28.808 186.231 28.056 186.071 27.352C185.911 26.616 185.799 26.072 185.735 25.72C185.543 25.432 185.351 25.288 185.159 25.288C184.871 25.288 184.567 25.496 184.247 25.912C183.927 26.328 183.687 26.728 183.527 27.112C183.335 27.4 183.063 27.912 182.711 28.648C182.359 29.352 182.023 30.04 181.703 30.712C181.415 31.384 181.223 31.832 181.127 32.056C181.063 32.248 180.871 32.712 180.551 33.448C180.263 34.184 179.927 35.032 179.543 35.992C179.159 36.92 178.807 37.768 178.487 38.536C178.167 39.304 177.959 39.816 177.863 40.072C177.543 40.68 177.207 41.24 176.855 41.752C176.535 42.264 175.959 42.52 175.127 42.52Z" fill="#4CAF50"/>
<path d="M235.015 43.24C234.215 43.24 233.591 43.032 233.143 42.616C232.727 42.2 232.391 41.592 232.135 40.792V38.2C232.135 35.448 232.279 32.696 232.567 29.944C232.887 27.192 233.047 24.44 233.047 21.688C233.047 21.048 233.031 20.36 232.999 19.624C232.999 18.888 232.919 18.072 232.759 17.176C231.991 16.984 231.335 16.696 230.791 16.312C230.247 15.928 229.975 15.336 229.975 14.536C229.975 13.672 230.295 12.984 230.935 12.472C231.575 11.928 232.391 11.528 233.383 11.272C234.375 10.984 235.415 10.792 236.503 10.696C237.623 10.568 238.663 10.504 239.623 10.504C240.583 10.472 241.335 10.456 241.879 10.456C243.991 10.456 246.039 10.696 248.023 11.176C250.039 11.624 251.799 12.456 253.303 13.672C254.839 14.888 255.927 16.664 256.567 19V20.968C256.567 21.224 256.567 21.496 256.567 21.784C256.599 22.072 256.615 22.344 256.615 22.6C256.615 22.824 256.599 23.064 256.567 23.32C256.535 23.576 256.471 23.816 256.375 24.04C255.767 25.448 254.903 26.568 253.783 27.4C252.695 28.2 251.511 28.904 250.231 29.512C250.007 29.576 249.671 29.688 249.223 29.848C248.775 29.976 248.551 30.152 248.551 30.376V30.616C249.319 31.192 250.039 31.832 250.711 32.536C251.415 33.24 252.103 33.928 252.775 34.6C253.511 35.304 254.167 36.12 254.743 37.048C255.351 37.944 255.655 38.808 255.655 39.64C255.655 40.472 255.415 41.128 254.935 41.608C254.455 42.056 253.799 42.28 252.967 42.28C252.583 42.28 252.183 42.2 251.767 42.04C251.351 41.592 250.967 41.192 250.615 40.84C250.295 40.456 249.959 40.024 249.607 39.544C249.255 39 248.791 38.408 248.215 37.768C247.671 37.096 247.095 36.472 246.487 35.896C245.911 35.288 245.383 34.808 244.903 34.456C244.583 34.136 244.087 33.768 243.415 33.352C242.775 32.904 242.103 32.44 241.399 31.96C240.727 31.48 240.151 30.968 239.671 30.424C239.191 29.88 238.951 29.32 238.951 28.744C238.951 28.136 239.255 27.64 239.863 27.256C240.471 26.872 241.239 26.552 242.167 26.296C243.127 26.008 244.135 25.72 245.191 25.432C246.279 25.144 247.287 24.808 248.215 24.424C249.175 24.04 249.959 23.56 250.567 22.984C251.175 22.376 251.479 21.624 251.479 20.728C251.479 19.544 251.095 18.632 250.327 17.992C249.591 17.352 248.663 16.904 247.543 16.648C246.455 16.36 245.351 16.2 244.231 16.168C243.111 16.104 242.167 16.072 241.399 16.072H239.047L238.855 16.264L237.655 37.72C237.623 38.168 237.591 38.712 237.559 39.352C237.527 39.96 237.431 40.568 237.271 41.176C237.143 41.752 236.903 42.248 236.551 42.664C236.199 43.048 235.687 43.24 235.015 43.24ZM267.131 13.432C266.171 13.432 265.339 13.128 264.635 12.52C263.931 11.912 263.579 11.016 263.579 9.832C263.579 8.648 263.995 7.816 264.827 7.336C265.659 6.856 266.507 6.616 267.371 6.616C268.363 6.616 269.195 6.92 269.867 7.528C270.571 8.136 270.923 9.048 270.923 10.264C270.923 11.416 270.507 12.232 269.675 12.712C268.875 13.192 268.027 13.432 267.131 13.432ZM265.211 42.28C264.603 42.28 264.139 41.96 263.819 41.32C263.499 40.68 263.259 40.04 263.099 39.4V33.208C263.099 33.048 263.131 32.632 263.195 31.96C263.291 31.256 263.387 30.44 263.483 29.512C263.611 28.552 263.723 27.64 263.819 26.776C263.947 25.88 264.043 25.176 264.107 24.664C264.203 24.024 264.315 23.32 264.443 22.552C264.603 21.784 264.875 21.112 265.259 20.536C265.643 19.96 266.187 19.672 266.891 19.672C267.659 19.672 268.203 19.864 268.523 20.248C268.875 20.6 269.083 21.048 269.147 21.592C269.211 22.136 269.243 22.696 269.243 23.272V24.952C269.243 25.016 269.227 25.16 269.195 25.384C269.163 25.576 269.115 25.8 269.051 26.056C268.827 27.176 268.651 28.008 268.523 28.552C268.427 29.064 268.347 29.512 268.283 29.896C268.251 30.248 268.235 30.744 268.235 31.384C268.235 31.768 268.235 32.248 268.235 32.824C268.267 33.4 268.283 34.152 268.283 35.08C268.283 35.496 268.299 35.912 268.331 36.328C268.363 36.712 268.379 37.128 268.379 37.576C268.379 38.056 268.331 38.568 268.235 39.112C268.107 39.912 267.819 40.648 267.371 41.32C266.923 41.96 266.203 42.28 265.211 42.28ZM278.205 42.52C277.501 42.52 276.877 42.296 276.333 41.848C275.821 41.368 275.565 40.776 275.565 40.072C275.565 39.016 275.597 37.992 275.661 37C275.757 36.008 275.805 35 275.805 33.976V30.808C275.805 29.496 275.757 28.2 275.661 26.92C275.597 25.608 275.389 24.312 275.037 23.032C274.909 22.648 274.797 22.248 274.701 21.832C274.637 21.384 274.605 20.936 274.605 20.488C274.605 19.848 274.765 19.208 275.085 18.568C275.405 17.896 275.981 17.56 276.813 17.56C277.485 17.56 278.029 17.816 278.445 18.328C278.861 18.808 279.181 19.416 279.405 20.152C279.629 20.856 279.789 21.576 279.885 22.312C280.013 23.016 280.125 23.608 280.221 24.088C280.285 24.504 280.381 24.952 280.509 25.432C280.637 25.912 280.701 26.376 280.701 26.824C280.701 26.856 280.733 26.952 280.797 27.112C280.861 27.272 280.925 27.432 280.989 27.592C281.405 26.856 281.869 26.056 282.381 25.192C282.925 24.296 283.517 23.464 284.157 22.696C284.829 21.896 285.565 21.24 286.365 20.728C287.197 20.216 288.109 19.96 289.101 19.96C290.125 19.96 290.893 20.216 291.405 20.728C291.949 21.208 292.381 21.816 292.701 22.552C293.021 23.256 293.341 23.96 293.661 24.664C293.789 24.984 293.869 25.32 293.901 25.672C293.933 25.992 294.013 26.328 294.141 26.68L294.669 25.912C295.309 25.016 296.029 24.04 296.829 22.984C297.661 21.896 298.589 20.968 299.613 20.2C300.637 19.4 301.789 19 303.069 19C304.093 19 304.957 19.304 305.661 19.912C306.397 20.488 306.989 21.24 307.437 22.168C307.917 23.096 308.269 24.056 308.493 25.048C308.717 26.04 308.829 26.952 308.829 27.784V37.96C308.829 38.44 308.749 38.968 308.589 39.544C308.461 40.088 308.221 40.568 307.869 40.984C307.517 41.368 307.021 41.56 306.381 41.56C305.645 41.56 305.053 41.304 304.605 40.792C304.157 40.28 303.933 39.736 303.933 39.16V30.424C303.933 30.328 303.917 30.12 303.885 29.8C303.853 29.48 303.805 29.144 303.741 28.792C303.709 28.44 303.693 28.184 303.693 28.024C303.693 27.768 303.661 27.368 303.597 26.824C303.533 26.28 303.405 25.768 303.213 25.288C303.021 24.808 302.733 24.568 302.349 24.568H301.917C300.957 25.4 300.237 26.2 299.757 26.968C299.277 27.704 298.909 28.44 298.653 29.176C298.397 29.912 298.157 30.696 297.933 31.528C297.709 32.328 297.389 33.208 296.973 34.168C296.749 35 296.381 35.784 295.869 36.52C295.389 37.224 294.717 37.576 293.853 37.576C293.021 37.576 292.381 37.352 291.933 36.904C291.517 36.424 291.197 35.848 290.973 35.176C290.781 34.504 290.621 33.864 290.493 33.256C290.429 32.968 290.317 32.488 290.157 31.816C289.997 31.144 289.821 30.408 289.629 29.608C289.469 28.808 289.309 28.056 289.149 27.352C288.989 26.616 288.877 26.072 288.813 25.72C288.621 25.432 288.429 25.288 288.237 25.288C287.949 25.288 287.645 25.496 287.325 25.912C287.005 26.328 286.765 26.728 286.605 27.112C286.413 27.4 286.141 27.912 285.789 28.648C285.437 29.352 285.101 30.04 284.781 30.712C284.493 31.384 284.301 31.832 284.205 32.056C284.141 32.248 283.949 32.712 283.629 33.448C283.341 34.184 283.005 35.032 282.621 35.992C282.237 36.92 281.885 37.768 281.565 38.536C281.245 39.304 281.037 39.816 280.941 40.072C280.621 40.68 280.285 41.24 279.933 41.752C279.613 42.264 279.037 42.52 278.205 42.52ZM324.767 42.52C324.159 42.52 323.679 42.52 323.327 42.52C323.007 42.488 322.607 42.408 322.127 42.28C321.903 42.152 321.599 42.008 321.215 41.848C320.831 41.656 320.463 41.48 320.111 41.32C319.759 41.16 319.503 41.08 319.343 41.08C319.119 41.08 318.767 41.288 318.287 41.704C317.839 42.088 317.327 42.28 316.751 42.28C315.919 42.28 315.343 41.992 315.023 41.416C314.703 40.808 314.543 40.12 314.543 39.352C314.543 38.648 314.575 38.024 314.639 37.48C314.703 36.904 314.831 36.264 315.023 35.56C315.503 32.04 315.871 28.424 316.127 24.712C316.415 20.968 316.559 17.256 316.559 13.576C316.559 12.648 316.559 11.736 316.559 10.84C316.559 9.944 316.527 9.048 316.463 8.152C316.431 7.512 316.623 7.064 317.039 6.808C317.455 6.552 317.919 6.424 318.431 6.424H318.863C319.567 6.424 320.159 6.6 320.639 6.952C321.119 7.304 321.423 7.928 321.551 8.824V11.416C321.551 13.272 321.519 15.128 321.455 16.984C321.391 18.84 321.343 20.824 321.311 22.936H321.455C322.767 21.432 324.223 20.152 325.823 19.096C327.423 18.04 329.199 17.512 331.151 17.512C332.655 17.512 334.111 17.864 335.519 18.568C336.959 19.24 338.143 20.2 339.071 21.448C339.999 22.664 340.463 24.072 340.463 25.672C340.463 27.816 340.063 29.896 339.263 31.912C338.463 33.896 337.343 35.688 335.903 37.288C334.463 38.888 332.799 40.168 330.911 41.128C329.023 42.056 326.975 42.52 324.767 42.52ZM324.767 37.384C326.015 37.384 327.279 37.08 328.559 36.472C329.839 35.864 331.007 35.048 332.063 34.024C333.119 33 333.967 31.864 334.607 30.616C335.279 29.368 335.615 28.104 335.615 26.824C335.615 25.8 335.247 24.856 334.511 23.992C333.807 23.096 332.911 22.648 331.823 22.648C330.671 22.648 329.615 22.92 328.655 23.464C327.727 24.008 326.863 24.712 326.063 25.576C325.295 26.408 324.591 27.32 323.951 28.312C323.311 29.304 322.719 30.232 322.175 31.096C321.951 31.608 321.663 32.184 321.311 32.824C320.991 33.464 320.831 34.072 320.831 34.648C320.831 35.224 321.055 35.72 321.503 36.136C321.951 36.552 322.479 36.872 323.087 37.096C323.727 37.288 324.287 37.384 324.767 37.384ZM353.557 43.48C352.085 43.48 350.709 43.144 349.429 42.472C348.149 41.8 347.077 40.904 346.213 39.784C345.349 38.632 344.789 37.336 344.533 35.896V33.448C344.533 31.656 344.853 29.848 345.493 28.024C346.133 26.2 347.045 24.52 348.229 22.984C349.413 21.416 350.821 20.168 352.453 19.24C354.085 18.28 355.877 17.8 357.829 17.8C358.629 17.8 359.317 17.944 359.893 18.232C360.501 18.52 361.045 18.824 361.525 19.144C362.037 19.432 362.533 19.608 363.013 19.672C363.269 18.36 363.621 17.496 364.069 17.08C364.517 16.632 365.125 16.408 365.893 16.408C366.821 16.408 367.445 16.712 367.765 17.32C368.117 17.896 368.293 18.632 368.293 19.528C368.293 21.288 368.245 23.016 368.149 24.712C368.085 26.408 368.053 28.152 368.053 29.944C368.053 31.352 368.133 32.808 368.293 34.312C368.453 35.816 368.533 37.272 368.533 38.68V39.688C368.533 40.392 368.389 41.048 368.101 41.656C367.845 42.232 367.253 42.52 366.325 42.52C365.461 42.52 364.837 42.264 364.453 41.752C364.101 41.208 363.861 40.568 363.733 39.832C363.637 39.064 363.541 38.376 363.445 37.768L363.253 37.576C362.165 38.664 361.189 39.656 360.325 40.552C359.493 41.448 358.565 42.168 357.541 42.712C356.517 43.224 355.189 43.48 353.557 43.48ZM353.077 38.632C354.197 38.632 355.253 38.296 356.245 37.624C357.269 36.92 358.181 36.024 358.981 34.936C359.781 33.816 360.405 32.648 360.853 31.432C361.301 30.216 361.525 29.08 361.525 28.024C361.525 27.224 361.413 26.424 361.189 25.624C360.965 24.792 360.581 24.088 360.037 23.512C359.525 22.936 358.789 22.648 357.829 22.648C356.773 22.648 355.733 23.016 354.709 23.752C353.717 24.488 352.821 25.432 352.021 26.584C351.221 27.704 350.581 28.888 350.101 30.136C349.621 31.352 349.381 32.456 349.381 33.448C349.381 34.248 349.493 35.048 349.717 35.848C349.973 36.648 350.373 37.32 350.917 37.864C351.461 38.376 352.181 38.632 353.077 38.632Z" fill="white"/>
<path d="M268.847 3.53135C270.107 3.53135 271.262 3.98635 272.312 4.89635C273.292 5.80635 273.782 7.13635 273.782 8.88635C273.782 11.1964 273.152 12.9464 271.892 14.1364C270.562 15.3264 269.127 15.9214 267.587 15.9214C266.257 15.9214 265.067 15.4314 264.017 14.4514C262.967 13.4714 262.477 12.0014 262.547 10.0414C262.687 7.87135 263.422 6.22635 264.752 5.10635C266.012 4.05635 267.377 3.53135 268.847 3.53135Z" fill="#FFD54F"/>
</svg>
