<svg width="330" height="80" viewBox="0 0 330 80" fill="none" xmlns="http://www.w3.org/2000/svg">
<path d="M291.355 16.04H298.383L312.607 53H305.159L302.275 45.02H287.491L284.551 53H277.075L291.355 16.04ZM289.787 38.832H299.979L294.911 24.496H294.827L289.787 38.832ZM316.327 16.04H323.327V53H316.327V16.04Z" fill="url(#paint0_linear_29_530)"/>
<path d="M134.836 15.368C137.058 15.368 138.99 15.62 140.632 16.124C142.294 16.6093 143.61 17.132 144.58 17.692C145.57 18.252 146.167 18.616 146.372 18.784L142.956 24.468C142.658 24.2253 142.144 23.8893 141.416 23.46C140.707 23.012 139.848 22.62 138.84 22.284C137.832 21.9293 136.74 21.752 135.564 21.752C133.866 21.752 132.503 22.0787 131.476 22.732C130.468 23.3667 129.964 24.2907 129.964 25.504C129.964 26.3253 130.235 27.0627 130.776 27.716C131.318 28.3507 132.111 28.948 133.156 29.508C134.22 30.068 135.518 30.656 137.048 31.272C138.392 31.7947 139.671 32.4013 140.884 33.092C142.116 33.7827 143.208 34.5947 144.16 35.528C145.131 36.4613 145.896 37.544 146.456 38.776C147.035 40.008 147.324 41.4173 147.324 43.004C147.324 44.7773 146.96 46.3267 146.232 47.652C145.523 48.9773 144.534 50.088 143.264 50.984C142.014 51.88 140.576 52.552 138.952 53C137.328 53.448 135.62 53.672 133.828 53.672C131.402 53.672 129.218 53.392 127.276 52.832C125.354 52.2533 123.795 51.6373 122.6 50.984C121.406 50.3307 120.706 49.9107 120.5 49.724L124.084 43.816C124.308 43.984 124.728 44.2547 125.344 44.628C125.979 45.0013 126.744 45.384 127.64 45.776C128.555 46.168 129.544 46.504 130.608 46.784C131.691 47.064 132.792 47.204 133.912 47.204C135.928 47.204 137.45 46.784 138.476 45.944C139.503 45.104 140.016 44.012 140.016 42.668C140.016 41.66 139.69 40.7733 139.036 40.008C138.383 39.2427 137.459 38.5427 136.264 37.908C135.088 37.2547 133.679 36.592 132.036 35.92C130.394 35.2293 128.863 34.4267 127.444 33.512C126.044 32.5787 124.915 31.44 124.056 30.096C123.198 28.7333 122.768 27.0627 122.768 25.084C122.768 23.124 123.319 21.416 124.42 19.96C125.54 18.504 127.015 17.3747 128.844 16.572C130.692 15.7693 132.69 15.368 134.836 15.368ZM159.468 41.016C159.468 43.0693 159.879 44.712 160.7 45.944C161.521 47.1573 162.847 47.764 164.676 47.764C166.524 47.764 167.859 47.1573 168.68 45.944C169.501 44.712 169.912 43.0693 169.912 41.016V30.012H176.912V41.828C176.912 44.1987 176.436 46.28 175.484 48.072C174.532 49.8453 173.141 51.2267 171.312 52.216C169.501 53.1867 167.289 53.672 164.676 53.672C162.081 53.672 159.869 53.1867 158.04 52.216C156.229 51.2267 154.848 49.8453 153.896 48.072C152.944 46.28 152.468 44.1987 152.468 41.828V30.012H159.468V41.016ZM200.75 53V48.996C200.582 49.4067 200.153 49.9853 199.462 50.732C198.771 51.4787 197.838 52.16 196.662 52.776C195.505 53.3733 194.142 53.672 192.574 53.672C190.371 53.672 188.421 53.1493 186.722 52.104C185.023 51.04 183.689 49.5933 182.718 47.764C181.766 45.916 181.29 43.8347 181.29 41.52C181.29 39.2053 181.766 37.1333 182.718 35.304C183.689 33.456 185.023 32 186.722 30.936C188.421 29.872 190.371 29.34 192.574 29.34C194.105 29.34 195.43 29.6013 196.55 30.124C197.689 30.628 198.603 31.2253 199.294 31.916C200.003 32.588 200.461 33.1947 200.666 33.736V30.012H207.722V53H200.75ZM188.262 41.52C188.262 42.808 188.551 43.9467 189.13 44.936C189.709 45.9067 190.474 46.6627 191.426 47.204C192.378 47.7453 193.414 48.016 194.534 48.016C195.71 48.016 196.755 47.7453 197.67 47.204C198.585 46.644 199.303 45.8787 199.826 44.908C200.367 43.9187 200.638 42.7893 200.638 41.52C200.638 40.2507 200.367 39.1307 199.826 38.16C199.303 37.1707 198.585 36.396 197.67 35.836C196.755 35.276 195.71 34.996 194.534 34.996C193.414 34.996 192.378 35.276 191.426 35.836C190.474 36.3773 189.709 37.1427 189.13 38.132C188.551 39.1027 188.262 40.232 188.262 41.52ZM220.196 53H213.084V30.012H220.196V33.736H220.056C220.187 33.288 220.542 32.7187 221.12 32.028C221.718 31.3373 222.539 30.7213 223.584 30.18C224.63 29.62 225.89 29.34 227.364 29.34C228.428 29.34 229.39 29.4987 230.248 29.816C231.126 30.1147 231.751 30.4133 232.124 30.712L229.324 36.536C229.082 36.2373 228.624 35.9293 227.952 35.612C227.299 35.2947 226.478 35.136 225.488 35.136C224.312 35.136 223.332 35.4627 222.548 36.116C221.764 36.7507 221.176 37.5347 220.784 38.468C220.392 39.3827 220.196 40.2413 220.196 41.044V53ZM252.32 53V48.996C252.152 49.4067 251.723 49.9853 251.032 50.732C250.342 51.4787 249.408 52.16 248.232 52.776C247.075 53.3733 245.712 53.672 244.144 53.672C241.942 53.672 239.991 53.1493 238.292 52.104C236.594 51.04 235.259 49.5933 234.288 47.764C233.336 45.916 232.86 43.8347 232.86 41.52C232.86 39.2053 233.336 37.1333 234.288 35.304C235.259 33.456 236.594 32 238.292 30.936C239.991 29.872 241.942 29.34 244.144 29.34C245.675 29.34 247 29.6013 248.12 30.124C249.259 30.628 250.174 31.2253 250.864 31.916C251.574 32.588 252.031 33.1947 252.236 33.736V30.012H259.292V53H252.32ZM239.832 41.52C239.832 42.808 240.122 43.9467 240.7 44.936C241.279 45.9067 242.044 46.6627 242.996 47.204C243.948 47.7453 244.984 48.016 246.104 48.016C247.28 48.016 248.326 47.7453 249.24 47.204C250.155 46.644 250.874 45.8787 251.396 44.908C251.938 43.9187 252.208 42.7893 252.208 41.52C252.208 40.2507 251.938 39.1307 251.396 38.16C250.874 37.1707 250.155 36.396 249.24 35.836C248.326 35.276 247.28 34.996 246.104 34.996C244.984 34.996 243.948 35.276 242.996 35.836C242.044 36.3773 241.279 37.1427 240.7 38.132C240.122 39.1027 239.832 40.232 239.832 41.52Z" fill="url(#paint1_linear_29_530)"/>
<path d="M134.836 15.368C137.058 15.368 138.99 15.62 140.632 16.124C142.294 16.6093 143.61 17.132 144.58 17.692C145.57 18.252 146.167 18.616 146.372 18.784L142.956 24.468C142.658 24.2253 142.144 23.8893 141.416 23.46C140.707 23.012 139.848 22.62 138.84 22.284C137.832 21.9293 136.74 21.752 135.564 21.752C133.866 21.752 132.503 22.0787 131.476 22.732C130.468 23.3667 129.964 24.2907 129.964 25.504C129.964 26.3253 130.235 27.0627 130.776 27.716C131.318 28.3507 132.111 28.948 133.156 29.508C134.22 30.068 135.518 30.656 137.048 31.272C138.392 31.7947 139.671 32.4013 140.884 33.092C142.116 33.7827 143.208 34.5947 144.16 35.528C145.131 36.4613 145.896 37.544 146.456 38.776C147.035 40.008 147.324 41.4173 147.324 43.004C147.324 44.7773 146.96 46.3267 146.232 47.652C145.523 48.9773 144.534 50.088 143.264 50.984C142.014 51.88 140.576 52.552 138.952 53C137.328 53.448 135.62 53.672 133.828 53.672C131.402 53.672 129.218 53.392 127.276 52.832C125.354 52.2533 123.795 51.6373 122.6 50.984C121.406 50.3307 120.706 49.9107 120.5 49.724L124.084 43.816C124.308 43.984 124.728 44.2547 125.344 44.628C125.979 45.0013 126.744 45.384 127.64 45.776C128.555 46.168 129.544 46.504 130.608 46.784C131.691 47.064 132.792 47.204 133.912 47.204C135.928 47.204 137.45 46.784 138.476 45.944C139.503 45.104 140.016 44.012 140.016 42.668C140.016 41.66 139.69 40.7733 139.036 40.008C138.383 39.2427 137.459 38.5427 136.264 37.908C135.088 37.2547 133.679 36.592 132.036 35.92C130.394 35.2293 128.863 34.4267 127.444 33.512C126.044 32.5787 124.915 31.44 124.056 30.096C123.198 28.7333 122.768 27.0627 122.768 25.084C122.768 23.124 123.319 21.416 124.42 19.96C125.54 18.504 127.015 17.3747 128.844 16.572C130.692 15.7693 132.69 15.368 134.836 15.368ZM159.468 41.016C159.468 43.0693 159.879 44.712 160.7 45.944C161.521 47.1573 162.847 47.764 164.676 47.764C166.524 47.764 167.859 47.1573 168.68 45.944C169.501 44.712 169.912 43.0693 169.912 41.016V30.012H176.912V41.828C176.912 44.1987 176.436 46.28 175.484 48.072C174.532 49.8453 173.141 51.2267 171.312 52.216C169.501 53.1867 167.289 53.672 164.676 53.672C162.081 53.672 159.869 53.1867 158.04 52.216C156.229 51.2267 154.848 49.8453 153.896 48.072C152.944 46.28 152.468 44.1987 152.468 41.828V30.012H159.468V41.016ZM200.75 53V48.996C200.582 49.4067 200.153 49.9853 199.462 50.732C198.771 51.4787 197.838 52.16 196.662 52.776C195.505 53.3733 194.142 53.672 192.574 53.672C190.371 53.672 188.421 53.1493 186.722 52.104C185.023 51.04 183.689 49.5933 182.718 47.764C181.766 45.916 181.29 43.8347 181.29 41.52C181.29 39.2053 181.766 37.1333 182.718 35.304C183.689 33.456 185.023 32 186.722 30.936C188.421 29.872 190.371 29.34 192.574 29.34C194.105 29.34 195.43 29.6013 196.55 30.124C197.689 30.628 198.603 31.2253 199.294 31.916C200.003 32.588 200.461 33.1947 200.666 33.736V30.012H207.722V53H200.75ZM188.262 41.52C188.262 42.808 188.551 43.9467 189.13 44.936C189.709 45.9067 190.474 46.6627 191.426 47.204C192.378 47.7453 193.414 48.016 194.534 48.016C195.71 48.016 196.755 47.7453 197.67 47.204C198.585 46.644 199.303 45.8787 199.826 44.908C200.367 43.9187 200.638 42.7893 200.638 41.52C200.638 40.2507 200.367 39.1307 199.826 38.16C199.303 37.1707 198.585 36.396 197.67 35.836C196.755 35.276 195.71 34.996 194.534 34.996C193.414 34.996 192.378 35.276 191.426 35.836C190.474 36.3773 189.709 37.1427 189.13 38.132C188.551 39.1027 188.262 40.232 188.262 41.52ZM220.196 53H213.084V30.012H220.196V33.736H220.056C220.187 33.288 220.542 32.7187 221.12 32.028C221.718 31.3373 222.539 30.7213 223.584 30.18C224.63 29.62 225.89 29.34 227.364 29.34C228.428 29.34 229.39 29.4987 230.248 29.816C231.126 30.1147 231.751 30.4133 232.124 30.712L229.324 36.536C229.082 36.2373 228.624 35.9293 227.952 35.612C227.299 35.2947 226.478 35.136 225.488 35.136C224.312 35.136 223.332 35.4627 222.548 36.116C221.764 36.7507 221.176 37.5347 220.784 38.468C220.392 39.3827 220.196 40.2413 220.196 41.044V53ZM252.32 53V48.996C252.152 49.4067 251.723 49.9853 251.032 50.732C250.342 51.4787 249.408 52.16 248.232 52.776C247.075 53.3733 245.712 53.672 244.144 53.672C241.942 53.672 239.991 53.1493 238.292 52.104C236.594 51.04 235.259 49.5933 234.288 47.764C233.336 45.916 232.86 43.8347 232.86 41.52C232.86 39.2053 233.336 37.1333 234.288 35.304C235.259 33.456 236.594 32 238.292 30.936C239.991 29.872 241.942 29.34 244.144 29.34C245.675 29.34 247 29.6013 248.12 30.124C249.259 30.628 250.174 31.2253 250.864 31.916C251.574 32.588 252.031 33.1947 252.236 33.736V30.012H259.292V53H252.32ZM239.832 41.52C239.832 42.808 240.122 43.9467 240.7 44.936C241.279 45.9067 242.044 46.6627 242.996 47.204C243.948 47.7453 244.984 48.016 246.104 48.016C247.28 48.016 248.326 47.7453 249.24 47.204C250.155 46.644 250.874 45.8787 251.396 44.908C251.938 43.9187 252.208 42.7893 252.208 41.52C252.208 40.2507 251.938 39.1307 251.396 38.16C250.874 37.1707 250.155 36.396 249.24 35.836C248.326 35.276 247.28 34.996 246.104 34.996C244.984 34.996 243.948 35.276 242.996 35.836C242.044 36.3773 241.279 37.1427 240.7 38.132C240.122 39.1027 239.832 40.232 239.832 41.52Z" fill="white"/>
<path d="M57.8114 5.40329C62.1075 7.74469 64.0552 10.8235 65.6568 15.3655C66.4795 18.7948 66.3711 22.271 66.348 25.7812C66.3389 27.2153 66.343 28.6489 66.3502 30.083C66.3634 33.1262 66.3606 36.1693 66.3554 39.2126C66.3494 42.7446 66.3501 46.2764 66.368 49.8083C66.3717 51.2129 66.363 52.6171 66.3538 54.0217C66.3299 61.6414 66.3299 61.6414 70.12 68.047C72.3754 69.3234 74.0365 69.5062 76.569 69.0289C79.5634 67.6732 80.6354 65.6695 81.8067 62.7449C82.3849 61.0105 82.4435 59.5966 82.5269 57.7701C83.4867 41.8246 83.4867 41.8246 88.5134 37.2775C91.8739 34.754 94.2601 34.2879 98.3383 34.3032C98.7903 34.2948 99.2423 34.2863 99.7081 34.2776C100.143 34.2773 100.577 34.277 101.025 34.2766C101.42 34.275 101.815 34.2735 102.223 34.2719C103.568 34.5196 104.03 34.9635 104.853 36.0378C105.049 37.3797 105.049 37.3797 104.853 38.6562C103.261 39.7171 102.959 39.8293 101.176 39.8283C100.77 39.8367 100.364 39.8452 99.9454 39.8539C99.0984 39.8627 98.2513 39.8655 97.4043 39.8621C95.2967 39.9161 93.7807 40.0484 92.0796 41.3625C88.889 44.8195 88.8679 48.0172 88.6485 52.5334C88.214 59.3289 87.7466 66.3994 82.8542 71.6472C79.72 74.1149 76.8799 75.0506 72.8944 74.9979C69.6928 74.5705 67.2467 72.9462 65.1237 70.5549C61.9169 66.0535 61.1455 61.5628 61.0522 56.1336C61.0353 55.5131 61.0184 54.8927 61.0009 54.2534C60.8909 50.0671 60.8372 45.8795 60.7759 41.6922C60.7472 39.7464 60.7168 37.8007 60.6862 35.855C60.6453 33.2461 60.6121 30.6372 60.5834 28.0281C60.566 26.8046 60.5484 25.5811 60.5305 24.3576C60.5239 23.5132 60.5239 23.5132 60.5172 22.6517C60.4448 18.2771 59.9945 14.9723 57.1894 11.4255C54.7587 9.89145 52.106 9.93498 49.3328 10.3781C46.7635 11.6788 45.4903 13.5124 44.4224 16.1652C43.8516 17.9449 43.7097 19.7527 43.5713 21.6043C43.5317 22.054 43.4922 22.5038 43.4514 22.9673C43.1957 25.9751 42.9925 28.9859 42.7978 31.9982C42.6761 33.8667 42.5483 35.7348 42.4207 37.603C42.3288 38.9942 42.2471 40.3858 42.1657 41.7776C41.7689 47.9764 41.1399 53.6552 36.2385 58.0319C32.8971 60.4088 29.7795 60.9887 25.7631 60.6502C22.4586 60.0862 20.415 58.3311 18.3013 55.7961C16.6696 53.2563 16.0247 50.4586 15.2876 47.5585C14.3745 44.3452 13.2957 42.6617 10.5737 40.7509C8.66244 39.7954 6.28507 40.0321 4.16563 39.9561C1.25782 39.8156 1.25782 39.8156 0.0982073 38.6562C-0.0327358 37.0852 -0.0327358 37.0852 0.0982073 35.5142C1.68489 33.9278 3.50212 34.2431 5.63055 34.2377C10.049 34.2443 12.9414 34.8437 16.2083 37.9648C18.705 40.678 19.9186 43.428 20.7545 47.0021C21.7378 51.3067 21.7378 51.3067 24.6398 54.448C26.5757 55.2095 28.4333 55.1808 30.477 54.8899C33.2458 53.4545 34.7694 51.9988 35.7301 49.0403C36.2368 47.0415 36.482 45.1814 36.6477 43.1278C36.6934 42.5782 36.6934 42.5782 36.74 42.0176C36.8045 41.2359 36.8673 40.4541 36.9286 39.6722C37.0254 38.4443 37.1281 37.217 37.2322 35.9896C37.5447 32.2648 37.8302 28.5424 38.0328 24.8097C38.7471 12.2493 38.7471 12.2493 44.0624 7.2034C48.6083 3.67414 52.6099 3.04121 57.8114 5.40329Z" fill="#F4654A"/>
<defs>
<linearGradient id="paint0_linear_29_530" x1="105" y1="40" x2="330" y2="40" gradientUnits="userSpaceOnUse">
<stop stop-color="#F4511E"/>
<stop offset="0.5" stop-color="#FFB300"/>
<stop offset="1" stop-color="#E91E63"/>
</linearGradient>
<linearGradient id="paint1_linear_29_530" x1="105" y1="40" x2="330" y2="40" gradientUnits="userSpaceOnUse">
<stop stop-color="#F4511E"/>
<stop offset="0.5" stop-color="#FFB300"/>
<stop offset="1" stop-color="#E91E63"/>
</linearGradient>
</defs>
</svg>
