<svg width="295" height="61" viewBox="0 0 295 61" fill="none" xmlns="http://www.w3.org/2000/svg">
<path d="M117.641 46L108.473 20.704H114.953L121.625 41.008L128.249 20.704H134.681L125.513 46H117.641ZM149.168 46.336C146.576 46.336 144.336 45.808 142.448 44.752C140.592 43.696 139.152 42.192 138.128 40.24C137.136 38.288 136.64 36 136.64 33.376C136.64 30.72 137.152 28.432 138.176 26.512C139.2 24.56 140.64 23.04 142.496 21.952C144.352 20.864 146.576 20.32 149.168 20.32C151.728 20.32 153.936 20.864 155.792 21.952C157.648 23.04 159.072 24.576 160.064 26.56C161.056 28.512 161.552 30.816 161.552 33.472C161.552 36.064 161.056 38.336 160.064 40.288C159.104 42.208 157.696 43.696 155.84 44.752C153.984 45.808 151.76 46.336 149.168 46.336ZM149.12 41.008C150.72 41.008 152 40.656 152.96 39.952C153.952 39.248 154.672 38.32 155.12 37.168C155.568 36.016 155.792 34.768 155.792 33.424C155.792 32.08 155.568 30.816 155.12 29.632C154.672 28.448 153.952 27.504 152.96 26.8C152 26.064 150.72 25.696 149.12 25.696C147.52 25.696 146.224 26.064 145.232 26.8C144.24 27.504 143.52 28.448 143.072 29.632C142.624 30.784 142.4 32.048 142.4 33.424C142.4 34.768 142.624 36.032 143.072 37.216C143.552 38.368 144.272 39.296 145.232 40C146.224 40.672 147.52 41.008 149.12 41.008ZM166.24 46V20.704H172.096V46H166.24ZM169.168 17.776C168.048 17.776 167.152 17.44 166.48 16.768C165.808 16.096 165.472 15.216 165.472 14.128C165.472 13.072 165.824 12.208 166.528 11.536C167.232 10.832 168.112 10.48 169.168 10.48C170.192 10.48 171.072 10.816 171.808 11.488C172.544 12.16 172.912 13.04 172.912 14.128C172.912 15.216 172.56 16.096 171.856 16.768C171.152 17.44 170.256 17.776 169.168 17.776ZM188.907 46.336C186.283 46.336 184.075 45.808 182.283 44.752C180.491 43.664 179.131 42.144 178.203 40.192C177.275 38.24 176.811 35.984 176.811 33.424C176.811 30.864 177.291 28.608 178.251 26.656C179.211 24.672 180.619 23.12 182.475 22C184.331 20.88 186.587 20.32 189.243 20.32C191.195 20.32 192.923 20.656 194.427 21.328C195.963 22 197.195 22.992 198.123 24.304C199.083 25.584 199.691 27.184 199.947 29.104H194.187C193.803 27.888 193.163 27.008 192.267 26.464C191.403 25.888 190.363 25.6 189.147 25.6C187.515 25.6 186.219 26 185.259 26.8C184.331 27.568 183.659 28.544 183.243 29.728C182.827 30.912 182.619 32.144 182.619 33.424C182.619 34.768 182.843 36.032 183.291 37.216C183.739 38.368 184.427 39.296 185.355 40C186.315 40.704 187.547 41.056 189.051 41.056C190.267 41.056 191.355 40.784 192.315 40.24C193.307 39.696 193.947 38.816 194.235 37.6H200.187C199.963 39.552 199.307 41.184 198.219 42.496C197.163 43.776 195.819 44.736 194.187 45.376C192.555 46.016 190.795 46.336 188.907 46.336ZM215.912 46.336C213.288 46.336 211.048 45.792 209.192 44.704C207.368 43.616 205.976 42.112 205.016 40.192C204.088 38.24 203.624 35.984 203.624 33.424C203.624 30.864 204.104 28.608 205.064 26.656C206.056 24.672 207.464 23.12 209.288 22C211.144 20.88 213.368 20.32 215.96 20.32C217.88 20.32 219.56 20.672 221 21.376C222.44 22.048 223.64 22.976 224.6 24.16C225.592 25.344 226.328 26.688 226.808 28.192C227.288 29.696 227.512 31.28 227.48 32.944C227.448 33.328 227.416 33.712 227.384 34.096C227.352 34.448 227.304 34.832 227.24 35.248H209.48C209.576 36.368 209.864 37.392 210.344 38.32C210.856 39.248 211.56 39.984 212.456 40.528C213.384 41.072 214.536 41.344 215.912 41.344C216.712 41.344 217.48 41.248 218.216 41.056C218.952 40.832 219.592 40.512 220.136 40.096C220.712 39.68 221.096 39.152 221.288 38.512H227.144C226.728 40.336 225.96 41.824 224.84 42.976C223.72 44.128 222.376 44.976 220.808 45.52C219.272 46.064 217.64 46.336 215.912 46.336ZM209.576 30.88H221.768C221.768 29.824 221.528 28.864 221.048 28C220.568 27.136 219.88 26.464 218.984 25.984C218.12 25.472 217.064 25.216 215.816 25.216C214.472 25.216 213.352 25.488 212.456 26.032C211.56 26.576 210.872 27.28 210.392 28.144C209.912 29.008 209.64 29.92 209.576 30.88ZM232.146 46V12.064H238.002V46H232.146ZM254.862 57.568C252.91 57.568 251.006 57.296 249.15 56.752C247.326 56.24 245.63 55.36 244.062 54.112L246.174 49.408C247.262 50.272 248.478 50.944 249.822 51.424C251.166 51.936 252.638 52.192 254.238 52.192C256.766 52.192 258.606 51.552 259.758 50.272C260.942 48.992 261.534 47.248 261.534 45.04V43.168C260.958 43.904 260.254 44.512 259.422 44.992C258.59 45.472 257.694 45.824 256.734 46.048C255.774 46.272 254.798 46.384 253.806 46.384C251.342 46.384 249.374 45.888 247.902 44.896C246.462 43.872 245.422 42.48 244.782 40.72C244.142 38.928 243.822 36.896 243.822 34.624V20.704H249.63V33.328C249.63 34.224 249.694 35.136 249.822 36.064C249.95 36.992 250.206 37.84 250.59 38.608C250.974 39.376 251.534 40 252.27 40.48C253.038 40.928 254.046 41.152 255.294 41.152C256.926 41.152 258.19 40.752 259.086 39.952C259.982 39.152 260.59 38.112 260.91 36.832C261.262 35.552 261.438 34.192 261.438 32.752V20.704H267.294V43.6C267.294 45.744 267.07 47.664 266.622 49.36C266.174 51.088 265.454 52.56 264.462 53.776C263.47 54.992 262.19 55.92 260.622 56.56C259.054 57.232 257.134 57.568 254.862 57.568ZM275.231 46V25.888H271.295V20.704H275.231V18.304C275.231 16.384 275.519 14.816 276.095 13.6C276.671 12.352 277.583 11.44 278.831 10.864C280.111 10.288 281.743 10 283.727 10H287.471V15.184H284.399C283.535 15.184 282.863 15.328 282.383 15.616C281.903 15.904 281.551 16.336 281.327 16.912C281.135 17.456 281.039 18.128 281.039 18.928V20.704H287.471V25.888H281.039V46H275.231Z" fill="#212121"/>
<path d="M1.33002 41.7714C12.5522 41.7714 14.7967 2 26.0189 2" stroke="url(#paint0_linear_17_83)" stroke-width="2.66" stroke-linecap="round" stroke-linejoin="round"/>
<path d="M26.019 2C36.119 2 38.3634 50 48.4634 50" stroke="url(#paint1_linear_17_83)" stroke-width="2.66" stroke-linecap="round" stroke-linejoin="round"/>
<path d="M48.4633 50C56.0944 50 57.6655 21.2 65.2967 21.2" stroke="url(#paint2_linear_17_83)" stroke-width="2.66" stroke-linecap="round" stroke-linejoin="round"/>
<path d="M65.2966 21.2C71.8055 21.2 73.3766 41.7714 79.8855 41.7714" stroke="url(#paint3_linear_17_83)" stroke-width="2.66" stroke-linecap="round" stroke-linejoin="round"/>
<path d="M79.8856 41.7714C84.3745 41.7714 85.4967 34.9143 89.9856 34.9143" stroke="url(#paint4_linear_17_83)" stroke-width="2.66" stroke-linecap="round" stroke-linejoin="round"/>
<path d="M89.9856 34.9143C93.0156 34.9143 93.6889 40.4 96.7189 40.4" stroke="url(#paint5_linear_17_83)" stroke-width="2.66" stroke-linecap="round" stroke-linejoin="round"/>
<path d="M96.7189 40.4C99.1878 40.4 100.647 38.3429 102.33 36.9714" stroke="url(#paint6_linear_17_83)" stroke-width="2.66" stroke-linecap="round" stroke-linejoin="round"/>
<defs>
<linearGradient id="paint0_linear_17_83" x1="1.33002" y1="41.7714" x2="32.5705" y2="8.07385" gradientUnits="userSpaceOnUse">
<stop stop-color="#00F9FF"/>
<stop offset="1" stop-color="#00F9FF"/>
</linearGradient>
<linearGradient id="paint1_linear_17_83" x1="26.019" y1="2" x2="55.9081" y2="44.8012" gradientUnits="userSpaceOnUse">
<stop stop-color="#00F9FF"/>
<stop offset="1" stop-color="#2135FF"/>
</linearGradient>
<linearGradient id="paint2_linear_17_83" x1="48.4633" y1="50" x2="70.0109" y2="25.3151" gradientUnits="userSpaceOnUse">
<stop stop-color="#2135FF"/>
<stop offset="1" stop-color="#A638FF"/>
</linearGradient>
<linearGradient id="paint3_linear_17_83" x1="65.2966" y1="21.2" x2="83.2784" y2="38.178" gradientUnits="userSpaceOnUse">
<stop stop-color="#A638FF"/>
<stop offset="1" stop-color="#FF2E93"/>
</linearGradient>
<linearGradient id="paint4_linear_17_83" x1="79.8856" y1="41.7714" x2="90.8392" y2="36.7919" gradientUnits="userSpaceOnUse">
<stop stop-color="#FF2E93"/>
<stop offset="1" stop-color="#FF534D"/>
</linearGradient>
<linearGradient id="paint5_linear_17_83" x1="89.9856" y1="34.9143" x2="97.4809" y2="39.0032" gradientUnits="userSpaceOnUse">
<stop stop-color="#FF534D"/>
<stop offset="1" stop-color="#FF8136"/>
</linearGradient>
<linearGradient id="paint6_linear_17_83" x1="96.7189" y1="40.4" x2="102.727" y2="37.9418" gradientUnits="userSpaceOnUse">
<stop stop-color="#FF8136"/>
<stop offset="1" stop-color="#FF9A2B"/>
</linearGradient>
</defs>
</svg>
